{"glyphs":{"0":{"ha":704,"x_min":52,"x_max":701,"o":"m 701 627 q 697 554 701 597 q 685 461 693 511 q 663 358 676 412 q 629 254 649 304 q 583 157 610 203 q 522 77 556 111 q 425 12 481 36 q 292 -13 368 -13 q 183 4 229 -13 q 109 55 138 22 q 66 138 79 89 q 52 250 52 187 q 56 323 52 280 q 68 416 60 366 q 90 519 77 466 q 124 624 104 572 q 170 721 144 675 q 231 801 197 766 q 277 839 252 822 q 331 867 302 856 q 392 884 359 878 q 461 890 425 890 q 571 873 526 890 q 645 822 616 855 q 687 739 674 788 q 701 627 701 690 m 582 626 q 550 753 582 712 q 447 795 517 795 q 375 781 407 795 q 315 741 342 767 q 267 673 288 713 q 230 587 246 633 q 203 491 214 541 q 185 396 192 442 q 174 313 178 351 q 171 252 171 275 q 203 124 171 165 q 306 83 236 83 q 379 97 347 83 q 437 137 411 111 q 485 204 464 163 q 523 291 507 244 q 550 386 539 337 q 569 481 562 435 q 579 564 576 526 q 582 626 582 602 z "},"1":{"ha":704,"x_min":64,"x_max":577,"o":"m 577 69 q 576 58 577 65 q 573 43 575 51 q 569 28 572 35 q 562 14 566 20 q 553 4 558 7 q 542 0 548 0 l 83 0 q 70 7 75 0 q 64 25 64 14 q 65 35 64 28 q 68 49 66 41 q 73 64 70 56 q 80 79 76 73 q 90 89 84 85 q 102 94 95 94 l 285 94 l 417 754 l 227 654 q 209 647 216 648 q 198 647 202 645 q 192 654 193 649 q 190 668 190 660 q 192 687 190 675 q 197 709 193 698 q 207 730 201 720 q 222 746 213 741 l 451 876 q 459 879 454 878 q 469 882 463 880 q 484 883 475 883 q 504 884 492 884 q 531 882 521 884 q 548 879 542 881 q 554 872 553 876 q 555 865 555 869 l 401 94 l 560 94 q 573 87 570 94 q 577 69 577 81 z "},"2":{"ha":704,"x_min":22,"x_max":658,"o":"m 576 71 q 575 60 576 67 q 572 44 574 52 q 567 28 570 37 q 560 14 564 20 q 550 4 555 8 q 538 0 545 0 l 53 0 q 38 2 44 0 q 28 8 32 4 q 23 17 25 12 q 22 28 22 22 q 23 46 22 35 q 28 70 24 57 q 40 96 32 83 q 62 121 48 109 l 288 319 q 379 406 341 366 q 444 481 418 446 q 486 546 470 516 q 510 600 501 575 q 522 644 519 624 q 524 680 524 664 q 519 714 524 696 q 502 749 514 733 q 466 777 489 766 q 408 787 443 787 q 334 776 369 787 q 270 750 298 764 q 222 725 241 736 q 195 713 203 713 q 184 720 189 713 q 180 739 180 726 q 181 751 180 745 q 183 765 182 758 q 187 780 184 772 q 192 794 189 787 q 199 807 195 801 q 208 819 203 814 q 237 838 215 826 q 290 862 259 850 q 359 882 321 873 q 438 890 397 890 q 546 872 503 890 q 613 826 589 854 q 648 766 638 798 q 658 704 658 733 q 654 647 658 676 q 638 586 650 618 q 605 517 626 553 q 549 440 583 481 q 466 350 515 398 q 351 244 418 301 l 181 99 l 555 99 q 572 91 567 99 q 576 71 576 82 z "},"3":{"ha":704,"x_min":24,"x_max":653,"o":"m 608 280 q 599 212 608 247 q 572 145 591 178 q 526 84 554 113 q 458 34 498 55 q 368 0 418 12 q 252 -13 317 -13 q 188 -9 218 -13 q 131 2 158 -5 q 82 19 104 9 q 43 41 60 29 q 28 55 33 47 q 24 75 24 64 q 24 86 24 79 q 26 101 25 93 q 30 118 28 109 q 35 135 32 127 q 42 146 38 142 q 52 151 47 151 q 74 140 58 151 q 116 117 90 130 q 177 94 142 104 q 257 83 212 83 q 356 101 314 83 q 425 146 397 119 q 465 207 452 174 q 478 274 478 241 q 468 325 478 301 q 437 366 458 349 q 381 393 416 383 q 299 404 347 404 l 205 404 q 188 409 194 404 q 182 428 182 415 q 183 440 182 433 q 186 455 184 448 q 192 469 189 462 q 199 483 195 477 q 209 492 203 489 q 222 496 214 496 l 298 496 q 391 511 349 496 q 463 553 433 526 q 510 615 493 580 q 527 690 527 650 q 499 766 527 739 q 408 794 472 794 q 334 782 370 794 q 271 756 299 770 q 222 730 242 743 q 194 718 202 718 q 184 724 188 718 q 181 740 181 730 q 182 755 181 745 q 187 777 184 766 q 195 800 190 789 q 207 817 200 810 q 236 837 214 825 q 289 862 258 850 q 359 882 320 873 q 439 890 398 890 q 533 878 493 890 q 600 842 574 865 q 640 785 627 819 q 653 710 653 751 q 638 621 653 663 q 594 547 623 579 q 528 491 566 514 q 443 457 489 467 l 443 456 q 519 434 488 451 q 570 394 551 418 q 599 340 590 370 q 608 280 608 311 z "},"4":{"ha":704,"x_min":16,"x_max":653,"o":"m 653 272 q 652 260 653 267 q 649 245 651 253 q 644 229 647 237 q 636 215 641 221 q 627 205 632 209 q 615 201 621 201 l 516 201 l 479 17 q 475 8 478 12 q 464 1 471 4 q 445 -3 456 -1 q 418 -4 434 -4 q 390 -3 401 -4 q 374 1 380 -1 q 366 8 368 4 q 366 17 364 12 l 402 201 l 40 201 q 21 208 26 201 q 16 226 16 214 q 17 238 16 231 q 19 254 18 245 q 24 273 21 263 q 30 292 26 283 q 38 311 33 302 q 48 327 42 319 l 471 861 q 483 870 475 866 q 502 877 491 874 q 529 881 513 880 q 566 882 545 882 q 604 880 588 882 q 630 876 620 878 q 645 868 640 873 q 648 858 649 864 l 536 298 l 635 298 q 649 291 645 298 q 653 272 653 283 m 517 773 l 515 773 l 139 298 l 422 298 l 517 773 z "},"5":{"ha":704,"x_min":20,"x_max":673,"o":"m 619 334 q 609 248 619 291 q 577 167 598 205 q 525 95 557 128 q 450 38 493 62 q 354 1 408 14 q 234 -13 300 -13 q 176 -9 204 -13 q 122 1 147 -5 q 76 15 97 7 q 38 31 54 23 q 24 43 28 36 q 20 61 20 50 q 20 72 20 65 q 23 88 21 79 q 27 105 24 96 q 33 121 29 113 q 40 133 36 128 q 51 138 45 138 q 71 129 58 138 q 107 111 85 121 q 163 92 130 101 q 241 83 196 83 q 352 103 304 83 q 432 156 400 123 q 479 232 463 189 q 494 323 494 275 q 486 369 494 347 q 456 407 477 391 q 400 432 435 423 q 313 441 366 441 q 231 437 264 441 q 171 433 197 433 q 146 442 153 433 q 145 476 140 451 l 217 833 q 234 867 221 856 q 266 878 246 878 l 654 878 q 669 871 664 878 q 673 852 673 865 q 672 840 673 848 q 669 824 671 833 q 664 807 667 815 q 657 791 661 798 q 647 780 653 785 q 634 776 642 776 l 307 776 l 258 530 q 301 534 281 532 q 347 535 321 535 q 473 519 421 535 q 557 476 525 503 q 605 412 590 449 q 619 334 619 375 z "},"6":{"ha":704,"x_min":72,"x_max":707,"o":"m 648 349 q 640 270 648 311 q 614 188 631 228 q 570 112 597 148 q 503 47 543 75 q 413 3 464 20 q 296 -13 361 -13 q 192 5 235 -13 q 123 55 150 23 q 84 131 96 87 q 72 229 72 176 q 75 297 72 255 q 87 391 79 339 q 111 499 96 443 q 151 611 126 556 q 210 717 176 667 q 292 806 245 768 q 400 867 339 844 q 538 890 462 890 q 618 883 583 890 q 680 867 654 876 q 702 853 696 860 q 707 833 707 846 q 707 822 707 829 q 705 808 706 816 q 701 793 703 801 q 695 780 699 786 q 688 770 692 774 q 677 766 684 766 q 659 771 670 766 q 630 782 648 776 q 588 792 612 787 q 530 797 563 797 q 416 771 466 797 q 328 703 366 745 q 264 604 290 660 q 224 486 238 548 q 314 523 263 507 q 430 538 366 538 q 530 524 489 538 q 597 483 571 509 q 636 423 624 458 q 648 349 648 389 m 529 334 q 522 380 529 359 q 499 416 515 401 q 459 438 484 431 q 399 446 434 446 q 348 442 374 446 q 297 430 322 438 q 249 412 272 422 q 205 389 226 401 q 192 304 196 342 q 189 236 189 267 q 221 117 189 153 q 317 81 254 81 q 382 93 353 81 q 436 123 412 104 q 477 168 460 142 q 506 221 494 193 q 523 278 517 250 q 529 334 529 307 z "},"7":{"ha":704,"x_min":113,"x_max":744,"o":"m 744 852 q 742 832 744 844 q 738 807 741 821 q 728 779 734 793 q 713 751 722 764 l 252 23 q 240 9 246 14 q 224 1 233 4 q 202 -3 215 -2 q 172 -4 190 -4 q 136 -2 149 -4 q 118 5 123 0 q 114 16 113 9 q 121 31 115 22 l 602 775 l 184 775 q 170 782 174 775 q 165 800 165 789 q 166 812 165 804 q 169 828 167 820 q 174 846 171 837 q 181 862 177 854 q 192 873 186 869 q 205 878 197 878 l 716 878 q 739 870 734 878 q 744 852 744 863 z "},"8":{"ha":704,"x_min":31,"x_max":692,"o":"m 631 254 q 623 191 631 223 q 597 130 614 159 q 553 74 580 100 q 487 29 526 48 q 399 -2 449 9 q 286 -13 349 -13 q 172 1 220 -13 q 93 39 124 15 q 46 97 62 64 q 31 168 31 130 q 47 254 31 214 q 96 329 64 294 q 174 395 127 364 q 281 452 221 425 q 185 535 215 490 q 155 636 155 580 q 163 697 155 667 q 187 756 171 728 q 228 808 203 784 q 287 851 252 833 q 365 880 321 869 q 463 890 408 890 q 576 874 532 890 q 646 833 620 858 q 682 779 672 808 q 692 722 692 749 q 676 638 692 677 q 632 567 661 600 q 564 506 604 534 q 474 455 524 479 q 546 409 516 432 q 594 361 576 386 q 622 310 613 336 q 631 254 631 283 m 576 707 q 569 741 576 724 q 548 771 563 758 q 510 792 534 784 q 450 800 486 800 q 369 786 403 800 q 313 750 335 772 q 281 702 292 729 q 271 648 271 674 q 276 609 271 627 q 292 575 280 591 q 327 541 304 558 q 387 503 350 524 q 467 546 432 524 q 526 594 502 568 q 563 647 550 619 q 576 707 576 675 m 511 244 q 504 285 511 266 q 479 323 496 304 q 435 362 463 342 q 369 403 408 381 q 262 348 304 374 q 195 295 220 321 q 160 241 170 269 q 150 183 150 214 q 157 143 150 163 q 182 110 165 124 q 230 86 200 95 q 303 78 259 78 q 397 92 358 78 q 462 130 437 106 q 499 183 488 153 q 511 244 511 213 z "},"9":{"ha":704,"x_min":28,"x_max":682,"o":"m 106 529 q 115 608 106 566 q 140 690 123 650 q 184 766 157 730 q 251 830 212 802 q 341 874 290 858 q 458 890 393 890 q 562 872 519 890 q 631 823 604 854 q 670 746 659 791 q 682 650 682 702 q 679 581 682 623 q 668 487 676 538 q 644 378 659 435 q 603 265 628 321 q 542 159 578 210 q 458 71 507 109 q 345 10 409 33 q 201 -13 281 -13 q 158 -11 178 -13 q 119 -5 137 -9 q 84 3 100 -1 q 55 13 68 8 q 34 26 39 20 q 28 45 28 33 q 28 56 28 49 q 31 71 29 63 q 34 85 32 78 q 40 99 37 93 q 47 109 43 105 q 58 113 52 113 q 78 108 65 113 q 109 97 90 103 q 154 86 128 91 q 213 81 180 81 q 333 106 281 81 q 423 173 385 131 q 487 272 461 216 q 530 391 513 328 q 439 355 490 370 q 323 339 388 339 q 224 354 265 339 q 156 394 182 368 q 118 454 130 420 q 106 529 106 489 m 225 544 q 232 498 225 519 q 254 462 239 477 q 295 439 270 447 q 355 431 319 431 q 406 435 380 431 q 457 447 432 439 q 505 465 481 455 q 548 488 528 475 q 561 573 557 534 q 566 642 566 612 q 533 761 566 725 q 437 798 500 798 q 372 786 401 798 q 318 755 342 775 q 277 710 295 736 q 248 656 260 685 q 231 599 237 628 q 225 544 225 570 z "},"\u0000":{"ha":0,"x_min":0,"x_max":0,"o":""},"\r":{"ha":0,"x_min":0,"x_max":0,"o":""}," ":{"ha":314,"x_min":0,"x_max":0,"o":""},"A":{"ha":804,"x_min":-37,"x_max":721,"o":"m 719 41 q 720 17 721 26 q 712 3 719 8 q 692 -3 706 -1 q 656 -4 679 -4 q 630 -3 641 -4 q 613 0 619 -2 q 605 7 608 3 q 602 17 602 11 l 569 231 l 203 231 l 89 19 q 81 8 85 12 q 69 1 77 3 q 48 -3 61 -2 q 18 -4 36 -4 q -15 -2 -3 -4 q -32 4 -27 -1 q -35 18 -37 9 q -25 42 -33 27 l 432 857 q 442 869 437 865 q 456 877 448 874 q 479 881 465 880 q 512 882 492 882 q 548 881 534 882 q 571 877 562 880 q 583 869 579 874 q 587 857 586 864 l 719 41 m 490 761 l 490 761 l 252 323 l 556 323 l 490 761 z "},"À":{"ha":804,"x_min":-37,"x_max":721,"o":"m 719 41 q 720 17 721 26 q 712 3 719 8 q 692 -3 706 -1 q 656 -4 679 -4 q 630 -3 641 -4 q 613 0 619 -2 q 605 7 608 3 q 602 17 602 11 l 569 231 l 203 231 l 89 19 q 81 8 85 12 q 69 1 77 3 q 48 -3 61 -2 q 18 -4 36 -4 q -15 -2 -3 -4 q -32 4 -27 -1 q -35 18 -37 9 q -25 42 -33 27 l 432 857 q 442 869 437 865 q 456 877 448 874 q 479 881 465 880 q 512 882 492 882 q 548 881 534 882 q 571 877 562 880 q 583 869 579 874 q 587 857 586 864 l 719 41 m 490 761 l 490 761 l 252 323 l 556 323 l 490 761 m 569 975 q 577 962 575 968 q 574 953 578 957 q 561 948 570 949 q 537 946 552 946 q 513 947 523 946 q 497 950 504 948 q 484 957 490 953 q 471 967 477 960 l 323 1111 q 315 1124 317 1118 q 319 1135 314 1130 q 336 1142 323 1139 q 368 1145 348 1145 q 397 1145 385 1145 q 418 1141 408 1144 q 434 1134 427 1139 q 448 1120 441 1128 l 569 975 m 76 878 z "},"Á":{"ha":804,"x_min":-37,"x_max":757,"o":"m 719 41 q 720 17 721 26 q 712 3 719 8 q 692 -3 706 -1 q 656 -4 679 -4 q 630 -3 641 -4 q 613 0 619 -2 q 605 7 608 3 q 602 17 602 11 l 569 231 l 203 231 l 89 19 q 81 8 85 12 q 69 1 77 3 q 48 -3 61 -2 q 18 -4 36 -4 q -15 -2 -3 -4 q -32 4 -27 -1 q -35 18 -37 9 q -25 42 -33 27 l 432 857 q 442 869 437 865 q 456 877 448 874 q 479 881 465 880 q 512 882 492 882 q 548 881 534 882 q 571 877 562 880 q 583 869 579 874 q 587 857 586 864 l 719 41 m 490 761 l 490 761 l 252 323 l 556 323 l 490 761 m 586 967 q 572 957 578 961 q 559 950 566 953 q 542 947 551 948 q 518 946 532 946 q 481 953 487 946 q 488 975 475 960 l 622 1120 q 637 1133 629 1128 q 654 1141 645 1138 q 675 1144 663 1143 q 704 1145 687 1145 q 736 1142 724 1145 q 752 1135 747 1139 q 754 1124 757 1130 q 745 1111 752 1118 l 586 967 m 247 878 z "},"Â":{"ha":804,"x_min":-37,"x_max":764,"o":"m 719 41 q 720 17 721 26 q 712 3 719 8 q 692 -3 706 -1 q 656 -4 679 -4 q 630 -3 641 -4 q 613 0 619 -2 q 605 7 608 3 q 602 17 602 11 l 569 231 l 203 231 l 89 19 q 81 8 85 12 q 69 1 77 3 q 48 -3 61 -2 q 18 -4 36 -4 q -15 -2 -3 -4 q -32 4 -27 -1 q -35 18 -37 9 q -25 42 -33 27 l 432 857 q 442 869 437 865 q 456 877 448 874 q 479 881 465 880 q 512 882 492 882 q 548 881 534 882 q 571 877 562 880 q 583 869 579 874 q 587 857 586 864 l 719 41 m 490 761 l 490 761 l 252 323 l 556 323 l 490 761 m 759 972 q 763 960 764 965 q 758 952 763 955 q 744 947 753 949 q 720 946 734 946 q 688 947 699 946 q 669 950 676 948 q 659 955 663 951 q 653 961 656 958 l 573 1078 l 442 964 q 429 955 435 959 q 413 949 422 951 q 391 947 404 947 q 360 946 378 946 q 334 948 343 946 q 322 952 325 949 q 321 960 319 956 q 332 972 324 965 l 515 1126 q 527 1136 521 1132 q 542 1142 534 1139 q 559 1145 549 1144 q 584 1145 570 1145 q 607 1145 598 1145 q 623 1142 616 1144 q 634 1136 629 1139 q 644 1126 639 1132 l 759 972 m 102 878 z "},"Ã":{"ha":804,"x_min":-37,"x_max":789,"o":"m 719 41 q 720 17 721 26 q 712 3 719 8 q 692 -3 706 -1 q 656 -4 679 -4 q 630 -3 641 -4 q 613 0 619 -2 q 605 7 608 3 q 602 17 602 11 l 569 231 l 203 231 l 89 19 q 81 8 85 12 q 69 1 77 3 q 48 -3 61 -2 q 18 -4 36 -4 q -15 -2 -3 -4 q -32 4 -27 -1 q -35 18 -37 9 q -25 42 -33 27 l 432 857 q 442 869 437 865 q 456 877 448 874 q 479 881 465 880 q 512 882 492 882 q 548 881 534 882 q 571 877 562 880 q 583 869 579 874 q 587 857 586 864 l 719 41 m 490 761 l 490 761 l 252 323 l 556 323 l 490 761 m 708 1095 q 711 1102 709 1099 q 720 1106 714 1105 q 733 1109 725 1108 q 752 1109 741 1109 q 782 1105 775 1109 q 789 1093 789 1101 q 788 1078 789 1090 q 782 1050 787 1066 q 768 1016 777 1034 q 744 982 760 998 q 703 957 728 967 q 644 947 679 947 q 583 959 609 947 q 537 986 557 971 q 497 1012 516 1000 q 456 1024 477 1024 q 413 1007 427 1024 q 397 962 400 990 q 393 955 396 958 q 386 950 391 952 q 372 948 380 949 q 353 947 364 947 q 323 950 331 947 q 315 964 315 954 q 317 985 315 971 q 325 1016 319 1000 q 341 1048 331 1031 q 368 1079 351 1065 q 407 1101 384 1093 q 462 1109 430 1109 q 522 1097 496 1109 q 568 1071 547 1085 q 608 1044 589 1057 q 649 1032 627 1032 q 689 1046 673 1032 q 708 1095 705 1060 m 94 878 z "},"Ä":{"ha":804,"x_min":-37,"x_max":764,"o":"m 719 41 q 720 17 721 26 q 712 3 719 8 q 692 -3 706 -1 q 656 -4 679 -4 q 630 -3 641 -4 q 613 0 619 -2 q 605 7 608 3 q 602 17 602 11 l 569 231 l 203 231 l 89 19 q 81 8 85 12 q 69 1 77 3 q 48 -3 61 -2 q 18 -4 36 -4 q -15 -2 -3 -4 q -32 4 -27 -1 q -35 18 -37 9 q -25 42 -33 27 l 432 857 q 442 869 437 865 q 456 877 448 874 q 479 881 465 880 q 512 882 492 882 q 548 881 534 882 q 571 877 562 880 q 583 869 579 874 q 587 857 586 864 l 719 41 m 490 761 l 490 761 l 252 323 l 556 323 l 490 761 m 761 1036 q 752 1004 758 1017 q 738 984 747 992 q 716 974 729 977 q 684 970 703 970 q 653 974 665 970 q 635 984 642 977 q 628 1004 629 992 q 629 1036 627 1017 q 637 1067 633 1055 q 651 1087 642 1080 q 673 1098 661 1095 q 705 1101 686 1101 q 736 1098 724 1101 q 754 1087 748 1095 q 763 1067 761 1080 q 761 1036 764 1055 m 481 1036 q 473 1004 478 1017 q 458 984 467 992 q 436 974 449 977 q 404 970 422 970 q 373 974 385 970 q 355 984 361 977 q 348 1004 349 992 q 350 1036 347 1017 q 358 1067 353 1055 q 371 1087 363 1080 q 393 1098 380 1095 q 426 1101 406 1101 q 456 1098 444 1101 q 474 1087 468 1095 q 482 1067 481 1080 q 481 1036 484 1055 m 115 878 z "},"Ā":{"ha":804,"x_min":-37,"x_max":764,"o":"m 719 41 q 720 17 721 26 q 712 3 719 8 q 692 -3 706 -1 q 656 -4 679 -4 q 630 -3 641 -4 q 613 0 619 -2 q 605 7 608 3 q 602 17 602 11 l 569 231 l 203 231 l 89 19 q 81 8 85 12 q 69 1 77 3 q 48 -3 61 -2 q 18 -4 36 -4 q -15 -2 -3 -4 q -32 4 -27 -1 q -35 18 -37 9 q -25 42 -33 27 l 432 857 q 442 869 437 865 q 456 877 448 874 q 479 881 465 880 q 512 882 492 882 q 548 881 534 882 q 571 877 562 880 q 583 869 579 874 q 587 857 586 864 l 719 41 m 490 761 l 490 761 l 252 323 l 556 323 l 490 761 m 764 1058 q 764 1046 764 1053 q 761 1031 763 1039 q 756 1016 759 1023 q 750 1002 753 1008 q 742 992 746 996 q 732 988 737 988 l 361 988 q 349 993 353 988 q 345 1010 345 998 q 346 1021 345 1014 q 348 1035 347 1027 q 352 1050 349 1042 q 359 1064 355 1058 q 368 1074 363 1070 q 380 1078 373 1078 l 749 1078 q 761 1073 758 1078 q 764 1058 764 1067 m 115 878 z "},"Ă":{"ha":804,"x_min":-37,"x_max":745,"o":"m 719 41 q 720 17 721 26 q 712 3 719 8 q 692 -3 706 -1 q 656 -4 679 -4 q 630 -3 641 -4 q 613 0 619 -2 q 605 7 608 3 q 602 17 602 11 l 569 231 l 203 231 l 89 19 q 81 8 85 12 q 69 1 77 3 q 48 -3 61 -2 q 18 -4 36 -4 q -15 -2 -3 -4 q -32 4 -27 -1 q -35 18 -37 9 q -25 42 -33 27 l 432 857 q 442 869 437 865 q 456 877 448 874 q 479 881 465 880 q 512 882 492 882 q 548 881 534 882 q 571 877 562 880 q 583 869 579 874 q 587 857 586 864 l 719 41 m 490 761 l 490 761 l 252 323 l 556 323 l 490 761 m 745 1133 q 742 1108 745 1125 q 730 1070 739 1091 q 706 1028 721 1050 q 669 988 692 1006 q 613 958 646 970 q 537 946 581 946 q 463 957 492 946 q 416 985 434 967 q 391 1026 399 1002 q 384 1075 384 1049 q 385 1092 384 1082 q 387 1111 386 1101 q 391 1128 389 1120 q 396 1139 393 1136 q 411 1145 401 1143 q 434 1147 421 1147 q 453 1146 446 1147 q 466 1143 461 1145 q 472 1138 470 1141 q 473 1131 473 1135 q 472 1116 473 1124 q 471 1097 471 1107 q 475 1069 471 1082 q 486 1047 478 1056 q 508 1033 494 1038 q 544 1028 522 1028 q 582 1034 564 1028 q 615 1050 600 1039 q 642 1081 631 1062 q 661 1128 654 1100 q 666 1136 663 1133 q 674 1142 669 1140 q 688 1146 680 1145 q 708 1147 696 1147 q 727 1146 720 1147 q 739 1144 734 1145 q 744 1139 743 1142 q 745 1133 745 1136 m 138 878 z "},"Å":{"ha":804,"x_min":-37,"x_max":721,"o":"m 719 41 q 720 17 721 26 q 712 3 719 8 q 692 -3 706 -1 q 656 -4 679 -4 q 630 -3 641 -4 q 613 0 619 -2 q 605 7 608 3 q 602 17 602 11 l 569 231 l 203 231 l 89 19 q 81 8 85 12 q 69 1 77 3 q 48 -3 61 -2 q 18 -4 36 -4 q -15 -2 -3 -4 q -32 4 -27 -1 q -35 18 -37 9 q -25 42 -33 27 l 432 857 q 442 869 437 865 q 456 877 448 874 q 479 881 465 880 q 512 882 492 882 q 548 881 534 882 q 571 877 562 880 q 583 869 579 874 q 587 857 586 864 l 719 41 m 490 761 l 490 761 l 252 323 l 556 323 l 490 761 m 695 1065 q 684 1009 695 1036 q 653 964 673 983 q 605 933 633 945 q 541 922 576 922 q 484 931 507 922 q 446 956 461 941 q 425 990 431 970 q 418 1030 418 1009 q 422 1069 418 1050 q 436 1103 427 1087 q 458 1133 445 1119 q 489 1156 471 1146 q 527 1170 506 1165 q 572 1175 548 1175 q 628 1166 605 1175 q 667 1141 652 1157 q 688 1106 682 1126 q 695 1065 695 1086 m 619 1057 q 616 1078 619 1067 q 607 1097 613 1088 q 589 1110 600 1105 q 562 1115 578 1115 q 533 1109 546 1115 q 511 1093 519 1103 q 498 1069 503 1082 q 494 1039 494 1055 q 496 1018 494 1029 q 506 1000 499 1008 q 523 987 512 992 q 550 983 534 983 q 579 988 566 983 q 601 1004 592 994 q 614 1027 610 1014 q 619 1057 619 1041 m 181 878 z "},"Ǻ":{"ha":804,"x_min":-37,"x_max":743,"o":"m 719 41 q 720 17 721 26 q 712 3 719 8 q 692 -3 706 -1 q 656 -4 679 -4 q 630 -3 641 -4 q 613 0 619 -2 q 605 7 608 3 q 602 17 602 11 l 569 231 l 203 231 l 89 19 q 81 8 85 12 q 69 1 77 3 q 48 -3 61 -2 q 18 -4 36 -4 q -15 -2 -3 -4 q -32 4 -27 -1 q -35 18 -37 9 q -25 42 -33 27 l 432 857 q 442 869 437 865 q 456 877 448 874 q 479 881 465 880 q 512 882 492 882 q 548 881 534 882 q 571 877 562 880 q 583 869 579 874 q 587 857 586 864 l 719 41 m 490 761 l 490 761 l 252 323 l 556 323 l 490 761 m 593 1183 q 580 1174 586 1178 q 568 1167 574 1170 q 553 1164 562 1165 q 532 1163 545 1163 q 508 1165 517 1163 q 496 1170 499 1166 q 495 1178 492 1173 q 503 1190 497 1183 l 616 1299 q 630 1311 623 1306 q 646 1318 637 1316 q 665 1322 654 1321 q 692 1322 676 1322 q 723 1320 711 1322 q 738 1313 734 1317 q 741 1303 743 1309 q 733 1293 740 1298 l 593 1183 m 672 1039 q 662 988 672 1011 q 633 948 651 964 q 589 922 614 931 q 533 913 564 913 q 476 921 500 913 q 437 943 452 928 q 414 976 422 957 q 407 1017 407 994 q 417 1067 407 1044 q 445 1106 427 1090 q 490 1131 464 1122 q 549 1140 516 1140 q 603 1132 579 1140 q 641 1111 626 1124 q 664 1078 656 1097 q 672 1039 672 1060 m 601 1029 q 597 1049 601 1040 q 587 1067 594 1059 q 569 1080 580 1076 q 542 1085 558 1085 q 495 1068 511 1085 q 478 1023 478 1051 q 481 1002 478 1012 q 491 984 484 991 q 509 971 498 976 q 537 967 520 967 q 584 985 567 967 q 601 1029 601 1003 m 182 878 z "},"Ą":{"ha":804,"x_min":-37,"x_max":719,"o":"m 696 -177 q 695 -189 696 -182 q 693 -204 694 -196 q 688 -218 691 -212 q 683 -227 686 -224 q 669 -234 679 -231 q 645 -241 659 -238 q 615 -246 631 -244 q 583 -248 600 -248 q 528 -242 552 -248 q 487 -226 504 -237 q 461 -199 470 -215 q 452 -161 452 -183 q 457 -131 452 -146 q 473 -100 463 -116 q 500 -68 484 -85 q 541 -31 517 -51 l 602 19 l 569 231 l 203 231 l 89 19 q 81 8 85 12 q 69 1 77 3 q 48 -3 61 -2 q 18 -4 36 -4 q -15 -2 -3 -4 q -32 4 -27 -1 q -35 18 -37 9 q -25 42 -33 27 l 432 857 q 442 869 437 865 q 456 877 448 874 q 479 881 465 880 q 512 882 492 882 q 548 881 534 882 q 570 877 562 880 q 582 869 578 874 q 587 857 586 865 l 715 62 q 719 37 718 47 q 716 19 719 27 q 708 5 713 12 q 693 -9 702 -2 l 627 -64 q 598 -91 609 -79 q 581 -111 587 -102 q 573 -125 575 -119 q 571 -137 571 -132 q 580 -156 571 -149 q 611 -163 589 -163 l 682 -163 q 693 -167 690 -163 q 696 -177 696 -170 m 491 762 l 490 762 l 252 323 l 556 323 l 491 762 z "},"Æ":{"ha":1060,"x_min":-95,"x_max":1086,"o":"m 935 75 q 933 63 935 70 q 931 47 932 56 q 927 31 929 39 q 920 16 924 22 q 911 4 916 9 q 900 0 906 0 l 483 0 q 467 2 475 0 q 455 11 460 5 q 448 25 450 16 q 448 47 446 35 l 482 214 l 180 214 l 37 19 q 26 8 31 12 q 12 1 20 3 q -10 -3 3 -2 q -43 -4 -23 -4 q -75 -2 -63 -4 q -91 4 -87 -1 q -92 18 -95 9 q -79 42 -89 27 l 523 852 q 535 866 528 861 q 551 873 541 871 q 574 877 561 876 q 608 878 588 878 l 1069 878 q 1086 854 1086 878 q 1085 843 1086 850 q 1082 827 1084 836 q 1078 811 1081 819 q 1072 796 1076 803 q 1062 785 1067 789 q 1050 781 1057 781 l 711 781 l 656 505 l 946 505 q 958 498 954 505 q 962 481 962 492 q 961 470 962 477 q 959 454 960 463 q 954 437 957 446 q 948 422 951 429 q 939 412 944 416 q 927 408 934 408 l 636 408 l 574 97 l 918 97 q 930 91 926 97 q 935 75 935 85 m 595 781 l 593 781 l 243 308 l 501 308 l 595 781 z "},"Ǽ":{"ha":1060,"x_min":-95,"x_max":1086,"o":"m 935 75 q 933 63 935 70 q 931 47 932 56 q 927 31 929 39 q 920 16 924 22 q 911 4 916 9 q 900 0 906 0 l 483 0 q 467 2 475 0 q 455 11 460 5 q 448 25 450 16 q 448 47 446 35 l 482 214 l 180 214 l 37 19 q 26 8 31 12 q 12 1 20 3 q -10 -3 3 -2 q -43 -4 -23 -4 q -75 -2 -63 -4 q -91 4 -87 -1 q -92 18 -95 9 q -79 42 -89 27 l 523 852 q 535 866 528 861 q 551 873 541 871 q 574 877 561 876 q 608 878 588 878 l 1069 878 q 1086 854 1086 878 q 1085 843 1086 850 q 1082 827 1084 836 q 1078 811 1081 819 q 1072 796 1076 803 q 1062 785 1067 789 q 1050 781 1057 781 l 711 781 l 656 505 l 946 505 q 958 498 954 505 q 962 481 962 492 q 961 470 962 477 q 959 454 960 463 q 954 437 957 446 q 948 422 951 429 q 939 412 944 416 q 927 408 934 408 l 636 408 l 574 97 l 918 97 q 930 91 926 97 q 935 75 935 85 m 595 781 l 593 781 l 243 308 l 501 308 l 595 781 m 783 967 q 769 957 775 961 q 755 950 763 953 q 738 947 748 948 q 715 946 728 946 q 677 953 684 946 q 685 975 671 960 l 819 1120 q 834 1133 826 1128 q 851 1141 842 1138 q 872 1144 860 1143 q 901 1145 884 1145 q 932 1142 921 1145 q 949 1135 944 1139 q 951 1124 954 1130 q 942 1111 949 1118 l 783 967 m 444 878 z "},"B":{"ha":755,"x_min":57,"x_max":713,"o":"m 713 707 q 702 628 713 665 q 670 560 690 591 q 620 505 649 529 q 553 466 590 481 q 606 446 581 460 q 648 411 631 432 q 676 360 666 389 q 686 296 686 331 q 676 223 686 260 q 647 154 667 187 q 599 93 628 121 q 532 44 570 65 q 445 12 493 23 q 334 0 397 0 l 102 0 q 68 11 79 0 q 63 47 57 22 l 219 830 q 241 867 224 857 q 276 878 258 878 l 465 878 q 577 866 532 878 q 653 833 623 855 q 698 780 683 812 q 713 707 713 748 m 589 686 q 581 726 589 708 q 557 756 574 743 q 515 775 541 768 q 448 783 490 783 l 325 783 l 269 498 l 401 498 q 489 516 454 498 q 546 561 524 534 q 578 622 568 589 q 589 686 589 655 m 562 288 q 522 375 562 344 q 399 406 482 406 l 249 406 l 188 96 l 351 96 q 445 112 407 96 q 509 154 484 128 q 549 215 535 180 q 562 288 562 250 z "},"C":{"ha":726,"x_min":78,"x_max":777,"o":"m 777 788 q 772 753 777 774 q 759 720 767 732 q 743 707 751 707 q 720 720 733 707 q 686 747 707 732 q 630 774 664 762 q 544 787 595 787 q 440 765 487 787 q 356 708 393 744 q 290 624 318 671 q 242 525 261 576 q 214 420 224 473 q 205 319 205 367 q 218 223 205 265 q 258 151 232 180 q 321 107 283 122 q 406 92 358 92 q 497 104 458 92 q 563 131 535 116 q 608 157 590 145 q 638 169 627 169 q 649 163 646 169 q 652 147 652 158 q 651 137 652 144 q 649 123 650 131 q 646 107 648 116 q 642 91 644 98 q 636 76 639 83 q 626 63 633 70 q 596 43 618 56 q 540 18 573 30 q 466 -2 507 6 q 379 -11 425 -11 q 254 10 310 -11 q 160 71 199 31 q 99 171 121 111 q 78 309 78 231 q 92 442 78 374 q 132 574 105 510 q 198 696 158 639 q 290 796 237 753 q 408 864 342 839 q 553 888 474 888 q 645 877 602 888 q 719 849 688 866 q 763 819 749 832 q 777 788 777 806 z "},"Ć":{"ha":726,"x_min":78,"x_max":779,"o":"m 777 788 q 772 753 777 774 q 759 720 767 732 q 743 707 751 707 q 720 720 733 707 q 686 747 707 732 q 630 774 664 762 q 544 787 595 787 q 440 765 487 787 q 356 708 393 744 q 290 624 318 671 q 242 525 261 576 q 214 420 224 473 q 205 319 205 367 q 218 223 205 265 q 258 151 232 180 q 321 107 283 122 q 406 92 358 92 q 497 104 458 92 q 563 131 535 116 q 608 157 590 145 q 638 169 627 169 q 649 163 646 169 q 652 147 652 158 q 651 137 652 144 q 649 123 650 131 q 646 107 648 116 q 642 91 644 98 q 636 76 639 83 q 626 63 633 70 q 596 43 618 56 q 540 18 573 30 q 466 -2 507 6 q 379 -11 425 -11 q 254 10 310 -11 q 160 71 199 31 q 99 171 121 111 q 78 309 78 231 q 92 442 78 374 q 132 574 105 510 q 198 696 158 639 q 290 796 237 753 q 408 864 342 839 q 553 888 474 888 q 645 877 602 888 q 719 849 688 866 q 763 819 749 832 q 777 788 777 806 m 608 967 q 595 957 601 961 q 581 950 589 953 q 564 947 574 948 q 541 946 554 946 q 503 953 509 946 q 511 975 497 960 l 644 1120 q 660 1133 652 1128 q 676 1141 667 1138 q 697 1144 686 1143 q 726 1145 709 1145 q 758 1142 747 1145 q 774 1135 770 1139 q 777 1124 779 1130 q 768 1111 774 1118 l 608 967 m 269 878 z "},"Ĉ":{"ha":726,"x_min":78,"x_max":777,"o":"m 777 788 q 772 753 777 774 q 759 720 767 732 q 743 707 751 707 q 720 720 733 707 q 686 747 707 732 q 630 774 664 762 q 544 787 595 787 q 440 765 487 787 q 356 708 393 744 q 290 624 318 671 q 242 525 261 576 q 214 420 224 473 q 205 319 205 367 q 218 223 205 265 q 258 151 232 180 q 321 107 283 122 q 406 92 358 92 q 497 104 458 92 q 563 131 535 116 q 608 157 590 145 q 638 169 627 169 q 649 163 646 169 q 652 147 652 158 q 651 137 652 144 q 649 123 650 131 q 646 107 648 116 q 642 91 644 98 q 636 76 639 83 q 626 63 633 70 q 596 43 618 56 q 540 18 573 30 q 466 -2 507 6 q 379 -11 425 -11 q 254 10 310 -11 q 160 71 199 31 q 99 171 121 111 q 78 309 78 231 q 92 442 78 374 q 132 574 105 510 q 198 696 158 639 q 290 796 237 753 q 408 864 342 839 q 553 888 474 888 q 645 877 602 888 q 719 849 688 866 q 763 819 749 832 q 777 788 777 806 m 772 972 q 777 960 777 965 q 772 952 777 955 q 758 947 767 949 q 733 946 748 946 q 701 947 713 946 q 683 950 690 948 q 673 955 676 951 q 667 961 669 958 l 587 1078 l 456 964 q 443 955 449 959 q 427 949 436 951 q 405 947 418 947 q 374 946 392 946 q 348 948 357 946 q 335 952 338 949 q 335 960 332 956 q 346 972 338 965 l 528 1126 q 541 1136 534 1132 q 555 1142 547 1139 q 573 1145 563 1144 q 597 1145 583 1145 q 621 1145 612 1145 q 636 1142 630 1144 q 648 1136 643 1139 q 657 1126 652 1132 l 772 972 m 116 878 z "},"Č":{"ha":726,"x_min":78,"x_max":820,"o":"m 777 788 q 772 753 777 774 q 759 720 767 732 q 743 707 751 707 q 720 720 733 707 q 686 747 707 732 q 630 774 664 762 q 544 787 595 787 q 440 765 487 787 q 356 708 393 744 q 290 624 318 671 q 242 525 261 576 q 214 420 224 473 q 205 319 205 367 q 218 223 205 265 q 258 151 232 180 q 321 107 283 122 q 406 92 358 92 q 497 104 458 92 q 563 131 535 116 q 608 157 590 145 q 638 169 627 169 q 649 163 646 169 q 652 147 652 158 q 651 137 652 144 q 649 123 650 131 q 646 107 648 116 q 642 91 644 98 q 636 76 639 83 q 626 63 633 70 q 596 43 618 56 q 540 18 573 30 q 466 -2 507 6 q 379 -11 425 -11 q 254 10 310 -11 q 160 71 199 31 q 99 171 121 111 q 78 309 78 231 q 92 442 78 374 q 132 574 105 510 q 198 696 158 639 q 290 796 237 753 q 408 864 342 839 q 553 888 474 888 q 645 877 602 888 q 719 849 688 866 q 763 819 749 832 q 777 788 777 806 m 625 966 q 612 956 618 960 q 597 950 606 952 q 579 947 589 948 q 555 946 569 946 q 531 947 541 946 q 516 949 522 947 q 505 956 509 951 q 495 966 500 960 l 380 1120 q 375 1132 376 1126 q 380 1140 375 1137 q 394 1144 385 1143 q 419 1145 404 1145 q 451 1144 439 1145 q 469 1142 463 1143 q 478 1137 475 1140 q 484 1130 481 1133 l 566 1013 l 696 1127 q 709 1136 703 1133 q 725 1142 715 1140 q 747 1145 734 1144 q 779 1145 760 1145 q 804 1144 795 1145 q 817 1139 814 1142 q 818 1131 820 1136 q 808 1120 815 1126 l 625 966 m 123 878 z "},"Ċ":{"ha":726,"x_min":78,"x_max":777,"o":"m 777 788 q 772 753 777 774 q 759 720 767 732 q 743 707 751 707 q 720 720 733 707 q 686 747 707 732 q 630 774 664 762 q 544 787 595 787 q 440 765 487 787 q 356 708 393 744 q 290 624 318 671 q 242 525 261 576 q 214 420 224 473 q 205 319 205 367 q 218 223 205 265 q 258 151 232 180 q 321 107 283 122 q 406 92 358 92 q 497 104 458 92 q 563 131 535 116 q 608 157 590 145 q 638 169 627 169 q 649 163 646 169 q 652 147 652 158 q 651 137 652 144 q 649 123 650 131 q 646 107 648 116 q 642 91 644 98 q 636 76 639 83 q 626 63 633 70 q 596 43 618 56 q 540 18 573 30 q 466 -2 507 6 q 379 -11 425 -11 q 254 10 310 -11 q 160 71 199 31 q 99 171 121 111 q 78 309 78 231 q 92 442 78 374 q 132 574 105 510 q 198 696 158 639 q 290 796 237 753 q 408 864 342 839 q 553 888 474 888 q 645 877 602 888 q 719 849 688 866 q 763 819 749 832 q 777 788 777 806 m 517 1036 q 527 1066 521 1054 q 542 1087 532 1079 q 566 1098 552 1095 q 598 1102 579 1102 q 629 1098 617 1102 q 648 1087 642 1095 q 654 1066 654 1079 q 652 1036 655 1054 q 642 1006 648 1019 q 627 985 636 994 q 604 974 618 977 q 572 970 590 970 q 540 974 552 970 q 522 985 528 977 q 515 1006 516 994 q 517 1036 514 1019 m 284 878 z "},"Ç":{"ha":726,"x_min":79,"x_max":777,"o":"m 314 -5 q 177 55 228 9 q 102 166 125 101 q 79 309 79 231 q 92 442 79 374 q 132 574 105 510 q 198 696 159 639 q 290 796 237 753 q 409 864 343 839 q 553 888 474 888 q 645 877 602 888 q 719 849 688 866 q 764 819 750 832 q 777 788 777 806 q 772 753 777 774 q 760 720 767 732 q 743 707 752 707 q 721 720 733 707 q 686 747 708 732 q 630 774 665 762 q 545 787 596 787 q 440 765 488 787 q 356 708 393 744 q 290 624 318 671 q 243 525 262 576 q 215 420 224 473 q 205 319 205 367 q 219 223 205 265 q 258 151 233 180 q 321 107 284 122 q 406 92 359 92 q 497 104 458 92 q 563 131 535 116 q 609 157 591 145 q 638 169 628 169 q 650 163 646 169 q 653 147 653 158 q 652 137 653 144 q 650 123 651 131 q 646 107 648 116 q 642 91 644 98 q 636 76 640 83 q 626 63 633 70 q 593 41 619 56 q 518 11 568 26 q 410 -9 469 -5 l 420 -50 q 429 -89 426 -73 q 433 -119 433 -104 q 422 -176 433 -152 q 392 -216 411 -201 q 345 -240 373 -232 q 283 -248 317 -248 q 249 -246 267 -248 q 217 -242 231 -245 q 192 -236 202 -239 q 176 -231 181 -233 q 171 -225 173 -229 q 170 -216 170 -222 q 171 -200 170 -209 q 176 -183 173 -191 q 184 -169 179 -175 q 198 -163 190 -163 l 281 -163 q 302 -161 292 -163 q 320 -153 313 -159 q 333 -139 328 -148 q 337 -116 337 -130 q 336 -98 337 -109 q 332 -77 334 -87 l 314 -5 z "},"D":{"ha":854,"x_min":60,"x_max":828,"o":"m 828 562 q 822 470 828 517 q 803 374 816 422 q 768 280 789 326 q 717 192 747 234 q 647 115 687 151 q 557 54 608 80 q 444 14 506 28 q 294 0 381 0 l 99 0 q 82 2 90 0 q 69 10 75 5 q 62 25 64 16 q 63 47 60 34 l 219 830 q 240 867 224 857 q 276 878 256 878 l 461 878 q 629 856 562 878 q 740 794 695 835 q 806 695 784 753 q 828 562 828 636 m 705 551 q 691 644 705 602 q 647 716 677 686 q 571 763 617 746 q 448 781 524 781 l 326 781 l 189 98 l 310 98 q 448 118 393 98 q 547 172 504 138 q 619 252 589 206 q 668 347 649 297 q 696 450 687 397 q 705 551 705 503 z "},"Ď":{"ha":854,"x_min":60,"x_max":828,"o":"m 828 562 q 822 470 828 517 q 803 374 816 422 q 768 280 789 326 q 717 192 747 234 q 647 115 687 151 q 557 54 608 80 q 444 14 506 28 q 294 0 381 0 l 99 0 q 82 2 90 0 q 69 10 75 5 q 62 25 64 16 q 63 47 60 34 l 219 830 q 240 867 224 857 q 276 878 256 878 l 461 878 q 629 856 562 878 q 740 794 695 835 q 806 695 784 753 q 828 562 828 636 m 705 551 q 691 644 705 602 q 647 716 677 686 q 571 763 617 746 q 448 781 524 781 l 326 781 l 189 98 l 310 98 q 448 118 393 98 q 547 172 504 138 q 619 252 589 206 q 668 347 649 297 q 696 450 687 397 q 705 551 705 503 m 570 966 q 557 956 564 960 q 543 950 551 952 q 524 947 534 948 q 500 946 514 946 q 476 947 486 946 q 461 949 467 947 q 450 956 454 951 q 440 966 445 960 l 326 1120 q 320 1132 321 1126 q 325 1140 320 1137 q 339 1144 330 1143 q 364 1145 349 1145 q 396 1144 385 1145 q 414 1142 408 1143 q 423 1137 420 1140 q 429 1130 426 1133 l 511 1013 l 642 1127 q 654 1136 648 1133 q 670 1142 661 1140 q 692 1145 679 1144 q 724 1145 705 1145 q 749 1144 740 1145 q 762 1139 759 1142 q 763 1131 765 1136 q 753 1120 760 1126 l 570 966 m 68 878 z "},"Đ":{"ha":867,"x_min":43,"x_max":841,"o":"m 841 562 q 829 435 841 500 q 793 307 818 370 q 728 189 768 245 q 630 92 688 134 q 495 25 572 50 q 307 0 418 0 l 111 0 q 81 11 92 0 q 75 47 70 21 l 147 408 l 59 408 q 47 413 51 408 q 43 431 43 419 q 44 443 43 435 q 46 458 45 450 q 50 475 47 467 q 57 489 53 483 q 66 500 61 496 q 78 505 71 505 l 167 505 l 232 830 q 252 867 237 857 q 288 878 268 878 l 473 878 q 641 856 574 878 q 752 793 708 834 q 819 694 796 753 q 841 562 841 635 m 718 551 q 703 644 718 602 q 659 716 689 686 q 583 764 629 747 q 460 781 536 781 l 338 781 l 283 505 l 441 505 q 456 497 453 505 q 458 481 458 490 q 458 467 458 475 q 455 452 457 460 q 450 435 453 444 q 443 421 447 427 q 434 411 439 415 q 423 408 429 408 l 264 408 l 202 98 l 322 98 q 461 118 405 98 q 559 172 517 138 q 632 252 602 206 q 681 347 662 297 q 709 450 700 397 q 718 551 718 503 z "},"Ð":{"ha":867,"x_min":43,"x_max":841,"o":"m 841 562 q 829 435 841 500 q 793 307 818 370 q 728 189 768 245 q 630 92 688 134 q 495 25 572 50 q 307 0 418 0 l 111 0 q 81 11 92 0 q 75 47 70 21 l 147 408 l 59 408 q 47 413 51 408 q 43 431 43 419 q 44 443 43 435 q 46 458 45 450 q 50 475 47 467 q 57 489 53 483 q 66 500 61 496 q 78 505 71 505 l 167 505 l 232 830 q 252 867 237 857 q 288 878 268 878 l 473 878 q 641 856 574 878 q 752 793 708 834 q 819 694 796 753 q 841 562 841 635 m 718 551 q 703 644 718 602 q 659 716 689 686 q 583 764 629 747 q 460 781 536 781 l 338 781 l 283 505 l 441 505 q 456 497 453 505 q 458 481 458 490 q 458 467 458 475 q 455 452 457 460 q 450 435 453 444 q 443 421 447 427 q 434 411 439 415 q 423 408 429 408 l 264 408 l 202 98 l 322 98 q 461 118 405 98 q 559 172 517 138 q 632 252 602 206 q 681 347 662 297 q 709 450 700 397 q 718 551 718 503 z "},"E":{"ha":678,"x_min":60,"x_max":704,"o":"m 704 855 q 704 845 704 852 q 702 829 703 838 q 697 812 700 821 q 691 797 695 804 q 681 785 687 789 q 669 781 675 781 l 326 781 l 271 505 l 566 505 q 578 500 574 505 q 582 484 582 494 q 581 473 582 480 q 578 457 580 466 q 574 441 577 449 q 568 426 572 433 q 559 415 564 420 q 547 411 553 411 l 252 411 l 189 97 l 538 97 q 549 92 545 97 q 553 75 553 86 q 553 63 553 71 q 550 47 552 56 q 546 31 549 39 q 540 15 544 22 q 530 4 536 8 q 517 0 524 0 l 96 0 q 81 2 88 0 q 69 11 74 5 q 62 25 64 16 q 63 47 60 35 l 220 830 q 241 867 224 857 q 273 878 257 878 l 688 878 q 704 855 704 878 z "},"È":{"ha":678,"x_min":35,"x_max":704,"o":"m 704 855 q 704 845 704 852 q 702 829 703 838 q 697 812 700 821 q 691 797 695 804 q 681 785 687 789 q 669 781 675 781 l 326 781 l 271 505 l 566 505 q 578 500 574 505 q 582 484 582 494 q 581 473 582 480 q 578 457 580 466 q 574 441 577 449 q 568 426 572 433 q 559 415 564 420 q 547 411 553 411 l 252 411 l 189 97 l 538 97 q 549 92 545 97 q 553 75 553 86 q 553 63 553 71 q 550 47 552 56 q 546 31 549 39 q 540 15 544 22 q 530 4 536 8 q 517 0 524 0 l 96 0 q 81 2 88 0 q 69 11 74 5 q 62 25 64 16 q 63 47 60 35 l 220 830 q 241 867 224 857 q 273 878 257 878 l 688 878 q 704 855 704 878 m 528 975 q 535 962 534 968 q 533 953 537 957 q 520 948 529 949 q 496 946 511 946 q 472 947 481 946 q 455 950 463 948 q 442 957 448 953 q 429 967 436 960 l 282 1111 q 274 1124 275 1118 q 277 1135 273 1130 q 294 1142 282 1139 q 327 1145 307 1145 q 355 1145 344 1145 q 376 1141 367 1144 q 393 1134 386 1139 q 406 1120 399 1128 l 528 975 m 35 878 z "},"É":{"ha":678,"x_min":60,"x_max":713,"o":"m 704 855 q 704 845 704 852 q 702 829 703 838 q 697 812 700 821 q 691 797 695 804 q 681 785 687 789 q 669 781 675 781 l 326 781 l 271 505 l 566 505 q 578 500 574 505 q 582 484 582 494 q 581 473 582 480 q 578 457 580 466 q 574 441 577 449 q 568 426 572 433 q 559 415 564 420 q 547 411 553 411 l 252 411 l 189 97 l 538 97 q 549 92 545 97 q 553 75 553 86 q 553 63 553 71 q 550 47 552 56 q 546 31 549 39 q 540 15 544 22 q 530 4 536 8 q 517 0 524 0 l 96 0 q 81 2 88 0 q 69 11 74 5 q 62 25 64 16 q 63 47 60 35 l 220 830 q 241 867 224 857 q 273 878 257 878 l 688 878 q 704 855 704 878 m 542 967 q 528 957 534 961 q 515 950 522 953 q 497 947 507 948 q 474 946 488 946 q 437 953 443 946 q 444 975 431 960 l 578 1120 q 593 1133 585 1128 q 610 1141 601 1138 q 631 1144 619 1143 q 660 1145 643 1145 q 692 1142 680 1145 q 708 1135 703 1139 q 710 1124 713 1130 q 701 1111 708 1118 l 542 967 m 203 878 z "},"Ê":{"ha":678,"x_min":45,"x_max":707,"o":"m 704 855 q 704 845 704 852 q 702 829 703 838 q 697 812 700 821 q 691 797 695 804 q 681 785 687 789 q 669 781 675 781 l 326 781 l 271 505 l 566 505 q 578 500 574 505 q 582 484 582 494 q 581 473 582 480 q 578 457 580 466 q 574 441 577 449 q 568 426 572 433 q 559 415 564 420 q 547 411 553 411 l 252 411 l 189 97 l 538 97 q 549 92 545 97 q 553 75 553 86 q 553 63 553 71 q 550 47 552 56 q 546 31 549 39 q 540 15 544 22 q 530 4 536 8 q 517 0 524 0 l 96 0 q 81 2 88 0 q 69 11 74 5 q 62 25 64 16 q 63 47 60 35 l 220 830 q 241 867 224 857 q 273 878 257 878 l 688 878 q 704 855 704 878 m 702 972 q 706 960 707 965 q 701 952 706 955 q 687 947 696 949 q 663 946 677 946 q 631 947 642 946 q 612 950 619 948 q 602 955 606 951 q 596 961 599 958 l 516 1078 l 385 964 q 372 955 378 959 q 356 949 366 951 q 334 947 347 947 q 303 946 321 946 q 277 948 286 946 q 265 952 268 949 q 264 960 262 956 q 275 972 267 965 l 458 1126 q 470 1136 464 1132 q 485 1142 477 1139 q 503 1145 492 1144 q 527 1145 513 1145 q 550 1145 541 1145 q 566 1142 559 1144 q 577 1136 572 1139 q 587 1126 582 1132 l 702 972 m 45 878 z "},"Ě":{"ha":678,"x_min":40,"x_max":737,"o":"m 704 855 q 704 845 704 852 q 702 829 703 838 q 697 812 700 821 q 691 797 695 804 q 681 785 687 789 q 669 781 675 781 l 326 781 l 271 505 l 566 505 q 578 500 574 505 q 582 484 582 494 q 581 473 582 480 q 578 457 580 466 q 574 441 577 449 q 568 426 572 433 q 559 415 564 420 q 547 411 553 411 l 252 411 l 189 97 l 538 97 q 549 92 545 97 q 553 75 553 86 q 553 63 553 71 q 550 47 552 56 q 546 31 549 39 q 540 15 544 22 q 530 4 536 8 q 517 0 524 0 l 96 0 q 81 2 88 0 q 69 11 74 5 q 62 25 64 16 q 63 47 60 35 l 220 830 q 241 867 224 857 q 273 878 257 878 l 688 878 q 704 855 704 878 m 542 966 q 529 956 536 960 q 515 950 523 952 q 496 947 507 948 q 472 946 486 946 q 449 947 458 946 q 433 949 439 947 q 422 956 427 951 q 412 966 417 960 l 298 1120 q 293 1132 293 1126 q 297 1140 292 1137 q 312 1144 302 1143 q 336 1145 321 1145 q 368 1144 357 1145 q 386 1142 380 1143 q 395 1137 392 1140 q 401 1130 398 1133 l 483 1013 l 614 1127 q 626 1136 620 1133 q 642 1142 633 1140 q 664 1145 651 1144 q 696 1145 677 1145 q 722 1144 712 1145 q 734 1139 731 1142 q 735 1131 737 1136 q 725 1120 732 1126 l 542 966 m 40 878 z "},"Ë":{"ha":678,"x_min":57,"x_max":706,"o":"m 704 855 q 704 845 704 852 q 702 829 703 838 q 697 812 700 821 q 691 797 695 804 q 681 785 687 789 q 669 781 675 781 l 326 781 l 271 505 l 566 505 q 578 500 574 505 q 582 484 582 494 q 581 473 582 480 q 578 457 580 466 q 574 441 577 449 q 568 426 572 433 q 559 415 564 420 q 547 411 553 411 l 252 411 l 189 97 l 538 97 q 549 92 545 97 q 553 75 553 86 q 553 63 553 71 q 550 47 552 56 q 546 31 549 39 q 540 15 544 22 q 530 4 536 8 q 517 0 524 0 l 96 0 q 81 2 88 0 q 69 11 74 5 q 62 25 64 16 q 63 47 60 35 l 220 830 q 241 867 224 857 q 273 878 257 878 l 688 878 q 704 855 704 878 m 703 1036 q 694 1004 699 1017 q 680 984 689 992 q 657 974 671 977 q 626 970 644 970 q 595 974 607 970 q 577 984 583 977 q 569 1004 570 992 q 571 1036 568 1017 q 579 1067 574 1055 q 593 1087 584 1080 q 615 1098 602 1095 q 647 1101 628 1101 q 678 1098 666 1101 q 696 1087 690 1095 q 704 1067 703 1080 q 703 1036 706 1055 m 422 1036 q 414 1004 420 1017 q 400 984 409 992 q 377 974 391 977 q 345 970 364 970 q 314 974 326 970 q 296 984 302 977 q 289 1004 290 992 q 292 1036 288 1017 q 299 1067 294 1055 q 313 1087 304 1080 q 335 1098 321 1095 q 368 1101 348 1101 q 398 1098 386 1101 q 416 1087 410 1095 q 424 1067 422 1080 q 422 1036 425 1055 m 57 878 z "},"Ē":{"ha":678,"x_min":52,"x_max":704,"o":"m 704 855 q 704 845 704 852 q 702 829 703 838 q 697 812 700 821 q 691 797 695 804 q 681 785 687 789 q 669 781 675 781 l 326 781 l 271 505 l 566 505 q 578 500 574 505 q 582 484 582 494 q 581 473 582 480 q 578 457 580 466 q 574 441 577 449 q 568 426 572 433 q 559 415 564 420 q 547 411 553 411 l 252 411 l 189 97 l 538 97 q 549 92 545 97 q 553 75 553 86 q 553 63 553 71 q 550 47 552 56 q 546 31 549 39 q 540 15 544 22 q 530 4 536 8 q 517 0 524 0 l 96 0 q 81 2 88 0 q 69 11 74 5 q 62 25 64 16 q 63 47 60 35 l 220 830 q 241 867 224 857 q 273 878 257 878 l 688 878 q 704 855 704 878 m 702 1058 q 701 1046 702 1053 q 699 1031 701 1039 q 694 1016 696 1023 q 687 1002 691 1008 q 679 992 684 996 q 669 988 675 988 l 299 988 q 287 993 291 988 q 283 1010 283 998 q 283 1021 283 1014 q 286 1035 284 1027 q 290 1050 287 1042 q 297 1064 293 1058 q 306 1074 300 1070 q 317 1078 311 1078 l 687 1078 q 699 1073 695 1078 q 702 1058 702 1067 m 52 878 z "},"Ĕ":{"ha":678,"x_min":60,"x_max":704,"o":"m 704 855 q 704 845 704 852 q 702 829 703 838 q 697 812 700 821 q 691 797 695 804 q 681 785 687 789 q 669 781 675 781 l 326 781 l 271 505 l 566 505 q 578 500 574 505 q 582 484 582 494 q 581 473 582 480 q 578 457 580 466 q 574 441 577 449 q 568 426 572 433 q 559 415 564 420 q 547 411 553 411 l 252 411 l 189 97 l 538 97 q 549 92 545 97 q 553 75 553 86 q 553 63 553 71 q 550 47 552 56 q 546 31 549 39 q 540 15 544 22 q 530 4 536 8 q 517 0 524 0 l 96 0 q 81 2 88 0 q 69 11 74 5 q 62 25 64 16 q 63 47 60 35 l 220 830 q 241 867 224 857 q 273 878 257 878 l 688 878 q 704 855 704 878 m 690 1133 q 687 1108 690 1125 q 675 1070 684 1091 q 651 1028 666 1050 q 614 988 637 1006 q 558 958 591 970 q 482 946 526 946 q 408 957 437 946 q 361 985 379 967 q 336 1026 344 1002 q 329 1075 329 1049 q 330 1092 329 1082 q 332 1111 331 1101 q 336 1128 334 1120 q 341 1139 338 1136 q 356 1145 346 1143 q 379 1147 366 1147 q 398 1146 391 1147 q 411 1143 406 1145 q 417 1138 415 1141 q 418 1131 418 1135 q 417 1116 418 1124 q 416 1097 416 1107 q 420 1069 416 1082 q 431 1047 423 1056 q 453 1033 439 1038 q 489 1028 467 1028 q 527 1034 509 1028 q 561 1050 545 1039 q 587 1081 576 1062 q 606 1128 599 1100 q 611 1136 608 1133 q 619 1142 614 1140 q 633 1146 625 1145 q 653 1147 641 1147 q 672 1146 665 1147 q 684 1144 680 1145 q 689 1139 688 1142 q 690 1133 690 1136 m 83 878 z "},"Ė":{"ha":678,"x_min":60,"x_max":704,"o":"m 704 855 q 704 845 704 852 q 702 829 703 838 q 697 812 700 821 q 691 797 695 804 q 681 785 687 789 q 669 781 675 781 l 326 781 l 271 505 l 566 505 q 578 500 574 505 q 582 484 582 494 q 581 473 582 480 q 578 457 580 466 q 574 441 577 449 q 568 426 572 433 q 559 415 564 420 q 547 411 553 411 l 252 411 l 189 97 l 538 97 q 549 92 545 97 q 553 75 553 86 q 553 63 553 71 q 550 47 552 56 q 546 31 549 39 q 540 15 544 22 q 530 4 536 8 q 517 0 524 0 l 96 0 q 81 2 88 0 q 69 11 74 5 q 62 25 64 16 q 63 47 60 35 l 220 830 q 241 867 224 857 q 273 878 257 878 l 688 878 q 704 855 704 878 m 437 1036 q 446 1066 440 1054 q 461 1087 452 1079 q 485 1098 471 1095 q 517 1102 498 1102 q 549 1098 536 1102 q 567 1087 561 1095 q 574 1066 573 1079 q 571 1036 574 1054 q 562 1006 568 1019 q 546 985 555 994 q 523 974 537 977 q 491 970 509 970 q 459 974 471 970 q 441 985 448 977 q 434 1006 435 994 q 437 1036 433 1019 m 203 878 z "},"Ę":{"ha":678,"x_min":60,"x_max":704,"o":"m 529 -177 q 528 -191 529 -182 q 525 -206 527 -199 q 520 -218 523 -213 q 515 -227 518 -224 q 499 -235 511 -231 q 472 -241 487 -239 q 440 -246 456 -244 q 410 -248 423 -248 q 352 -241 376 -248 q 312 -223 328 -235 q 290 -196 297 -212 q 282 -161 282 -180 q 286 -133 282 -147 q 297 -105 289 -119 q 319 -76 305 -91 q 352 -43 332 -60 l 405 0 l 97 0 q 82 2 89 0 q 69 11 75 5 q 62 25 64 16 q 63 47 60 35 l 220 830 q 241 867 225 857 q 273 878 256 878 l 688 878 q 700 872 696 878 q 704 854 704 866 q 703 844 704 850 q 701 828 703 837 q 697 811 699 820 q 690 796 694 803 q 681 785 686 789 q 668 781 675 781 l 326 781 l 271 505 l 566 505 q 578 499 574 505 q 582 483 582 493 q 581 472 582 479 q 578 457 580 465 q 574 441 577 449 q 568 426 572 433 q 558 415 564 419 q 546 411 553 411 l 252 411 l 189 97 l 537 97 q 549 92 545 97 q 553 75 553 86 q 552 59 553 69 q 549 38 551 49 q 542 17 547 27 q 530 1 537 6 l 436 -77 q 405 -110 413 -96 q 397 -136 397 -124 q 406 -156 397 -149 q 440 -163 414 -163 l 515 -163 q 526 -166 523 -163 q 529 -177 529 -170 z "},"F":{"ha":638,"x_min":56,"x_max":682,"o":"m 682 854 q 682 844 682 850 q 680 828 682 837 q 675 811 678 820 q 669 795 673 802 q 659 783 665 787 q 647 779 654 779 l 326 779 l 267 480 l 570 480 q 582 474 578 480 q 586 458 586 469 q 585 446 586 453 q 583 431 585 439 q 578 414 581 423 q 572 399 576 406 q 562 388 568 392 q 550 383 557 383 l 247 383 l 174 18 q 169 8 173 12 q 158 2 165 4 q 140 -2 151 -1 q 111 -4 128 -4 q 83 -2 94 -4 q 66 2 72 -1 q 58 8 60 4 q 57 18 56 12 l 220 830 q 241 867 224 857 q 273 878 257 878 l 667 878 q 679 871 676 878 q 682 854 682 865 z "},"G":{"ha":876,"x_min":75,"x_max":867,"o":"m 867 782 q 866 770 867 777 q 864 755 865 763 q 859 739 862 747 q 853 724 857 730 q 846 714 850 718 q 837 710 842 710 q 809 722 827 710 q 763 750 792 734 q 693 778 734 765 q 594 790 652 790 q 481 772 534 790 q 385 723 429 754 q 306 648 340 691 q 247 554 271 605 q 211 448 223 504 q 198 336 198 393 q 215 230 198 276 q 265 153 233 184 q 344 106 298 122 q 447 90 390 90 q 535 100 489 90 q 620 130 581 110 l 671 385 l 468 385 q 455 390 460 385 q 451 407 451 396 q 452 419 451 412 q 455 435 453 427 q 459 452 456 444 q 467 466 463 460 q 476 476 471 473 q 487 480 481 480 l 766 480 q 793 467 785 480 q 797 433 802 454 l 729 95 q 722 74 726 82 q 712 60 718 66 q 681 42 706 54 q 619 18 656 31 q 534 -3 581 6 q 435 -12 487 -12 q 280 11 347 -12 q 168 77 213 33 q 98 182 122 120 q 75 321 75 243 q 91 464 75 394 q 139 597 108 534 q 216 714 170 661 q 321 806 262 768 q 452 867 380 845 q 606 890 523 890 q 694 881 653 890 q 768 861 736 873 q 823 835 801 849 q 854 813 846 821 q 865 799 862 806 q 867 782 867 792 z "},"Ĝ":{"ha":876,"x_min":75,"x_max":867,"o":"m 867 782 q 866 770 867 777 q 864 755 865 763 q 859 739 862 747 q 853 724 857 730 q 846 714 850 718 q 837 710 842 710 q 809 722 827 710 q 763 750 792 734 q 693 778 734 765 q 594 790 652 790 q 481 772 534 790 q 385 723 429 754 q 306 648 340 691 q 247 554 271 605 q 211 448 223 504 q 198 336 198 393 q 215 230 198 276 q 265 153 233 184 q 344 106 298 122 q 447 90 390 90 q 535 100 489 90 q 620 130 581 110 l 671 385 l 468 385 q 455 390 460 385 q 451 407 451 396 q 452 419 451 412 q 455 435 453 427 q 459 452 456 444 q 467 466 463 460 q 476 476 471 473 q 487 480 481 480 l 766 480 q 793 467 785 480 q 797 433 802 454 l 729 95 q 722 74 726 82 q 712 60 718 66 q 681 42 706 54 q 619 18 656 31 q 534 -3 581 6 q 435 -12 487 -12 q 280 11 347 -12 q 168 77 213 33 q 98 182 122 120 q 75 321 75 243 q 91 464 75 394 q 139 597 108 534 q 216 714 170 661 q 321 806 262 768 q 452 867 380 845 q 606 890 523 890 q 694 881 653 890 q 768 861 736 873 q 823 835 801 849 q 854 813 846 821 q 865 799 862 806 q 867 782 867 792 m 807 972 q 811 960 812 965 q 806 952 811 955 q 792 947 802 949 q 768 946 783 946 q 736 947 747 946 q 718 950 724 948 q 707 955 711 951 q 701 961 704 958 l 621 1078 l 490 964 q 477 955 484 959 q 461 949 471 951 q 439 947 452 947 q 408 946 427 946 q 382 948 391 946 q 370 952 373 949 q 370 960 367 956 q 380 972 372 965 l 563 1126 q 575 1136 569 1132 q 590 1142 582 1139 q 608 1145 597 1144 q 632 1145 618 1145 q 655 1145 646 1145 q 671 1142 665 1144 q 682 1136 677 1139 q 692 1126 687 1132 l 807 972 m 151 878 z "},"Ğ":{"ha":876,"x_min":75,"x_max":867,"o":"m 867 782 q 866 770 867 777 q 864 755 865 763 q 859 739 862 747 q 853 724 857 730 q 846 714 850 718 q 837 710 842 710 q 809 722 827 710 q 763 750 792 734 q 693 778 734 765 q 594 790 652 790 q 481 772 534 790 q 385 723 429 754 q 306 648 340 691 q 247 554 271 605 q 211 448 223 504 q 198 336 198 393 q 215 230 198 276 q 265 153 233 184 q 344 106 298 122 q 447 90 390 90 q 535 100 489 90 q 620 130 581 110 l 671 385 l 468 385 q 455 390 460 385 q 451 407 451 396 q 452 419 451 412 q 455 435 453 427 q 459 452 456 444 q 467 466 463 460 q 476 476 471 473 q 487 480 481 480 l 766 480 q 793 467 785 480 q 797 433 802 454 l 729 95 q 722 74 726 82 q 712 60 718 66 q 681 42 706 54 q 619 18 656 31 q 534 -3 581 6 q 435 -12 487 -12 q 280 11 347 -12 q 168 77 213 33 q 98 182 122 120 q 75 321 75 243 q 91 464 75 394 q 139 597 108 534 q 216 714 170 661 q 321 806 262 768 q 452 867 380 845 q 606 890 523 890 q 694 881 653 890 q 768 861 736 873 q 823 835 801 849 q 854 813 846 821 q 865 799 862 806 q 867 782 867 792 m 806 1133 q 802 1108 806 1125 q 790 1070 799 1091 q 767 1028 781 1050 q 729 988 752 1006 q 673 958 706 970 q 597 946 641 946 q 524 957 553 946 q 477 985 494 967 q 452 1026 459 1002 q 444 1075 444 1049 q 445 1092 444 1082 q 448 1111 446 1101 q 451 1128 449 1120 q 456 1139 454 1136 q 471 1145 461 1143 q 494 1147 481 1147 q 514 1146 506 1147 q 526 1143 522 1145 q 532 1138 530 1141 q 534 1131 534 1135 q 533 1116 534 1124 q 532 1097 532 1107 q 535 1069 532 1082 q 547 1047 538 1056 q 569 1033 555 1038 q 604 1028 583 1028 q 642 1034 624 1028 q 676 1050 661 1039 q 703 1081 691 1062 q 722 1128 714 1100 q 726 1136 723 1133 q 734 1142 729 1140 q 748 1146 740 1145 q 768 1147 756 1147 q 788 1146 781 1147 q 799 1144 795 1145 q 804 1139 803 1142 q 806 1133 806 1136 m 199 878 z "},"Ġ":{"ha":876,"x_min":75,"x_max":867,"o":"m 867 782 q 866 770 867 777 q 864 755 865 763 q 859 739 862 747 q 853 724 857 730 q 846 714 850 718 q 837 710 842 710 q 809 722 827 710 q 763 750 792 734 q 693 778 734 765 q 594 790 652 790 q 481 772 534 790 q 385 723 429 754 q 306 648 340 691 q 247 554 271 605 q 211 448 223 504 q 198 336 198 393 q 215 230 198 276 q 265 153 233 184 q 344 106 298 122 q 447 90 390 90 q 535 100 489 90 q 620 130 581 110 l 671 385 l 468 385 q 455 390 460 385 q 451 407 451 396 q 452 419 451 412 q 455 435 453 427 q 459 452 456 444 q 467 466 463 460 q 476 476 471 473 q 487 480 481 480 l 766 480 q 793 467 785 480 q 797 433 802 454 l 729 95 q 722 74 726 82 q 712 60 718 66 q 681 42 706 54 q 619 18 656 31 q 534 -3 581 6 q 435 -12 487 -12 q 280 11 347 -12 q 168 77 213 33 q 98 182 122 120 q 75 321 75 243 q 91 464 75 394 q 139 597 108 534 q 216 714 170 661 q 321 806 262 768 q 452 867 380 845 q 606 890 523 890 q 694 881 653 890 q 768 861 736 873 q 823 835 801 849 q 854 813 846 821 q 865 799 862 806 q 867 782 867 792 m 549 1036 q 558 1066 553 1054 q 574 1087 564 1079 q 597 1098 584 1095 q 630 1102 611 1102 q 661 1098 649 1102 q 680 1087 673 1095 q 686 1066 686 1079 q 684 1036 687 1054 q 674 1006 680 1019 q 659 985 668 994 q 636 974 650 977 q 604 970 622 970 q 572 974 584 970 q 554 985 560 977 q 547 1006 548 994 q 549 1036 546 1019 m 316 878 z "},"Ģ":{"ha":876,"x_min":75,"x_max":867,"o":"m 867 782 q 866 770 867 777 q 864 755 865 763 q 859 739 862 747 q 853 724 857 730 q 846 714 850 718 q 837 710 842 710 q 809 722 827 710 q 763 750 792 734 q 693 778 734 765 q 594 790 652 790 q 481 772 534 790 q 385 723 429 754 q 306 648 340 691 q 247 554 271 605 q 211 448 223 504 q 198 336 198 393 q 215 230 198 276 q 265 153 233 184 q 344 106 298 122 q 447 90 390 90 q 535 100 489 90 q 620 130 581 110 l 671 385 l 468 385 q 455 390 460 385 q 451 407 451 396 q 452 419 451 412 q 455 435 453 427 q 459 452 456 444 q 467 466 463 460 q 476 476 471 473 q 487 480 481 480 l 766 480 q 793 467 785 480 q 797 433 802 454 l 729 95 q 722 74 726 82 q 712 60 718 66 q 681 42 706 54 q 619 18 656 31 q 534 -3 581 6 q 435 -12 487 -12 q 280 11 347 -12 q 168 77 213 33 q 98 182 122 120 q 75 321 75 243 q 91 464 75 394 q 139 597 108 534 q 216 714 170 661 q 321 806 262 768 q 452 867 380 845 q 606 890 523 890 q 694 881 653 890 q 768 861 736 873 q 823 835 801 849 q 854 813 846 821 q 865 799 862 806 q 867 782 867 792 m 342 -227 q 333 -237 337 -233 q 321 -243 328 -241 q 305 -247 315 -245 q 281 -248 296 -248 q 260 -246 268 -248 q 250 -241 253 -244 q 249 -232 248 -237 q 254 -219 250 -227 l 320 -82 q 328 -70 323 -75 q 341 -62 333 -64 q 361 -58 349 -59 q 391 -56 373 -56 q 419 -59 409 -56 q 432 -65 429 -61 q 435 -76 436 -70 q 429 -89 433 -81 l 342 -227 z "},"H":{"ha":865,"x_min":56,"x_max":859,"o":"m 689 17 q 684 8 688 12 q 673 2 680 4 q 655 -2 666 -1 q 626 -4 644 -4 q 599 -2 610 -4 q 582 2 588 -1 q 573 8 575 4 q 573 17 571 12 l 650 407 l 251 407 l 174 17 q 169 8 172 12 q 158 2 165 4 q 139 -2 151 -1 q 111 -4 127 -4 q 83 -2 94 -4 q 66 2 72 -1 q 58 8 60 4 q 57 17 56 12 l 225 861 q 230 869 226 865 q 241 876 234 873 q 260 880 249 878 q 288 882 271 882 q 316 880 304 882 q 333 876 327 878 q 341 869 339 873 q 342 861 342 865 l 272 509 l 671 509 l 741 861 q 746 869 742 865 q 757 876 749 873 q 775 880 764 878 q 804 882 787 882 q 831 880 821 882 q 849 876 842 878 q 857 869 855 873 q 857 861 859 865 l 689 17 z "},"Ĥ":{"ha":865,"x_min":56,"x_max":859,"o":"m 689 17 q 684 8 688 12 q 673 2 680 4 q 655 -2 666 -1 q 626 -4 644 -4 q 599 -2 610 -4 q 582 2 588 -1 q 573 8 575 4 q 573 17 571 12 l 650 407 l 251 407 l 174 17 q 169 8 172 12 q 158 2 165 4 q 139 -2 151 -1 q 111 -4 127 -4 q 83 -2 94 -4 q 66 2 72 -1 q 58 8 60 4 q 57 17 56 12 l 225 861 q 230 869 226 865 q 241 876 234 873 q 260 880 249 878 q 288 882 271 882 q 316 880 304 882 q 333 876 327 878 q 341 869 339 873 q 342 861 342 865 l 272 509 l 671 509 l 741 861 q 746 869 742 865 q 757 876 749 873 q 775 880 764 878 q 804 882 787 882 q 831 880 821 882 q 849 876 842 878 q 857 869 855 873 q 857 861 859 865 l 689 17 m 766 972 q 771 960 771 965 q 766 952 770 955 q 751 947 761 949 q 727 946 742 946 q 695 947 707 946 q 677 950 684 948 q 667 955 670 951 q 661 961 663 958 l 581 1078 l 450 964 q 436 955 443 959 q 421 949 430 951 q 399 947 412 947 q 368 946 386 946 q 341 948 351 946 q 329 952 332 949 q 329 960 326 956 q 340 972 332 965 l 522 1126 q 535 1136 528 1132 q 549 1142 541 1139 q 567 1145 557 1144 q 591 1145 577 1145 q 615 1145 606 1145 q 630 1142 624 1144 q 642 1136 637 1139 q 651 1126 646 1132 l 766 972 m 110 878 z "},"Ħ":{"ha":911,"x_min":79,"x_max":962,"o":"m 317 621 l 289 484 l 688 484 l 716 621 l 317 621 m 851 712 l 947 712 q 959 707 956 712 q 962 692 962 702 q 962 680 962 687 q 959 665 961 673 q 955 649 958 656 q 949 635 953 641 q 940 625 945 629 q 928 621 935 621 l 833 621 l 712 17 q 707 8 711 12 q 696 1 703 4 q 678 -3 689 -1 q 650 -4 667 -4 q 622 -3 633 -4 q 604 1 610 -1 q 596 8 598 4 q 595 17 594 12 l 669 387 l 270 387 l 197 17 q 192 8 195 12 q 181 1 189 4 q 162 -3 174 -1 q 134 -4 151 -4 q 106 -3 117 -4 q 89 1 95 -1 q 81 8 83 4 q 80 17 79 12 l 201 621 l 106 621 q 93 627 96 621 q 90 645 90 633 q 91 663 90 651 q 97 685 93 674 q 107 704 101 696 q 124 712 114 712 l 219 712 l 248 861 q 253 869 249 865 q 264 876 257 873 q 283 880 272 879 q 311 882 294 882 q 339 880 328 882 q 357 876 351 879 q 365 869 363 873 q 366 861 366 865 l 335 712 l 734 712 l 764 861 q 769 869 765 865 q 780 876 772 873 q 798 880 787 879 q 827 882 810 882 q 854 880 844 882 q 871 876 865 879 q 880 869 878 873 q 880 861 882 865 l 851 712 z "},"I":{"ha":350,"x_min":56,"x_max":343,"o":"m 174 17 q 169 8 173 12 q 158 2 165 4 q 139 -2 151 -1 q 111 -4 127 -4 q 83 -2 94 -4 q 66 2 72 -1 q 58 8 60 4 q 57 17 56 12 l 225 861 q 230 869 226 865 q 242 876 235 873 q 261 880 250 878 q 288 882 272 882 q 315 880 304 882 q 333 876 326 878 q 341 869 339 873 q 342 861 343 865 l 174 17 z "},"Ì":{"ha":350,"x_min":-149,"x_max":354,"o":"m 174 17 q 169 8 173 12 q 158 2 165 4 q 139 -2 151 -1 q 111 -4 127 -4 q 83 -2 94 -4 q 66 2 72 -1 q 58 8 60 4 q 57 17 56 12 l 225 861 q 230 869 226 865 q 242 876 235 873 q 261 880 250 878 q 288 882 272 882 q 315 880 304 882 q 333 876 326 878 q 341 869 339 873 q 342 861 343 865 l 174 17 m 345 975 q 352 962 351 968 q 350 953 354 957 q 337 948 346 949 q 313 946 328 946 q 289 947 298 946 q 272 950 279 948 q 259 957 265 953 q 246 967 253 960 l 99 1111 q 91 1124 92 1118 q 94 1135 90 1130 q 111 1142 99 1139 q 144 1145 123 1145 q 172 1145 161 1145 q 193 1141 184 1144 q 210 1134 203 1139 q 223 1120 216 1128 l 345 975 m -149 878 z "},"Í":{"ha":350,"x_min":15,"x_max":525,"o":"m 174 17 q 169 8 173 12 q 158 2 165 4 q 139 -2 151 -1 q 111 -4 127 -4 q 83 -2 94 -4 q 66 2 72 -1 q 58 8 60 4 q 57 17 56 12 l 225 861 q 230 869 226 865 q 242 876 235 873 q 261 880 250 878 q 288 882 272 882 q 315 880 304 882 q 333 876 326 878 q 341 869 339 873 q 342 861 343 865 l 174 17 m 354 967 q 340 957 347 961 q 327 950 334 953 q 310 947 319 948 q 286 946 300 946 q 249 953 255 946 q 256 975 243 960 l 390 1120 q 405 1133 397 1128 q 422 1141 413 1138 q 443 1144 431 1143 q 472 1145 455 1145 q 504 1142 492 1145 q 520 1135 515 1139 q 523 1124 525 1130 q 513 1111 520 1118 l 354 967 m 15 878 z "},"Î":{"ha":350,"x_min":-135,"x_max":526,"o":"m 174 17 q 169 8 173 12 q 158 2 165 4 q 139 -2 151 -1 q 111 -4 127 -4 q 83 -2 94 -4 q 66 2 72 -1 q 58 8 60 4 q 57 17 56 12 l 225 861 q 230 869 226 865 q 242 876 235 873 q 261 880 250 878 q 288 882 272 882 q 315 880 304 882 q 333 876 326 878 q 341 869 339 873 q 342 861 343 865 l 174 17 m 522 972 q 526 960 526 965 q 521 952 526 955 q 507 947 516 949 q 482 946 497 946 q 450 947 462 946 q 432 950 439 948 q 422 955 425 951 q 416 961 418 958 l 336 1078 l 205 964 q 192 955 198 959 q 176 949 185 951 q 154 947 167 947 q 123 946 141 946 q 97 948 106 946 q 84 952 87 949 q 84 960 81 956 q 95 972 87 965 l 277 1126 q 290 1136 283 1132 q 304 1142 296 1139 q 322 1145 312 1144 q 347 1145 332 1145 q 370 1145 361 1145 q 386 1142 379 1144 q 397 1136 392 1139 q 406 1126 401 1132 l 522 972 m -135 878 z "},"Ĩ":{"ha":350,"x_min":-143,"x_max":552,"o":"m 174 17 q 169 8 173 12 q 158 2 165 4 q 139 -2 151 -1 q 111 -4 127 -4 q 83 -2 94 -4 q 66 2 72 -1 q 58 8 60 4 q 57 17 56 12 l 225 861 q 230 869 226 865 q 242 876 235 873 q 261 880 250 878 q 288 882 272 882 q 315 880 304 882 q 333 876 326 878 q 341 869 339 873 q 342 861 343 865 l 174 17 m 471 1095 q 475 1102 472 1099 q 483 1106 477 1105 q 496 1109 488 1108 q 515 1109 505 1109 q 545 1105 538 1109 q 552 1093 552 1101 q 551 1078 552 1090 q 545 1050 550 1066 q 532 1016 541 1034 q 507 982 523 998 q 467 957 491 967 q 408 947 442 947 q 347 959 372 947 q 300 986 321 971 q 260 1012 279 1000 q 219 1024 241 1024 q 177 1007 190 1024 q 160 962 163 990 q 157 955 159 958 q 149 950 154 952 q 136 948 144 949 q 117 947 127 947 q 86 950 94 947 q 79 964 79 954 q 81 985 79 971 q 89 1016 83 1000 q 104 1048 94 1031 q 131 1079 115 1065 q 170 1101 147 1093 q 225 1109 193 1109 q 285 1097 260 1109 q 332 1071 311 1085 q 372 1044 353 1057 q 412 1032 391 1032 q 452 1046 437 1032 q 471 1095 468 1060 m -143 878 z "},"Ï":{"ha":350,"x_min":-121,"x_max":528,"o":"m 174 17 q 169 8 173 12 q 158 2 165 4 q 139 -2 151 -1 q 111 -4 127 -4 q 83 -2 94 -4 q 66 2 72 -1 q 58 8 60 4 q 57 17 56 12 l 225 861 q 230 869 226 865 q 242 876 235 873 q 261 880 250 878 q 288 882 272 882 q 315 880 304 882 q 333 876 326 878 q 341 869 339 873 q 342 861 343 865 l 174 17 m 525 1036 q 516 1004 522 1017 q 502 984 511 992 q 480 974 493 977 q 448 970 467 970 q 417 974 429 970 q 399 984 406 977 q 392 1004 393 992 q 393 1036 391 1017 q 401 1067 397 1055 q 415 1087 406 1080 q 437 1098 425 1095 q 469 1101 450 1101 q 500 1098 488 1101 q 518 1087 512 1095 q 527 1067 525 1080 q 525 1036 528 1055 m 245 1036 q 237 1004 242 1017 q 222 984 231 992 q 200 974 213 977 q 168 970 186 970 q 137 974 149 970 q 119 984 125 977 q 112 1004 113 992 q 114 1036 111 1017 q 122 1067 117 1055 q 135 1087 127 1080 q 157 1098 144 1095 q 190 1101 170 1101 q 220 1098 208 1101 q 238 1087 232 1095 q 246 1067 245 1080 q 245 1036 248 1055 m -121 878 z "},"Ī":{"ha":350,"x_min":-122,"x_max":528,"o":"m 174 17 q 169 8 173 12 q 158 2 165 4 q 139 -2 151 -1 q 111 -4 127 -4 q 83 -2 94 -4 q 66 2 72 -1 q 58 8 60 4 q 57 17 56 12 l 225 861 q 230 869 226 865 q 242 876 235 873 q 261 880 250 878 q 288 882 272 882 q 315 880 304 882 q 333 876 326 878 q 341 869 339 873 q 342 861 343 865 l 174 17 m 528 1058 q 527 1046 528 1053 q 524 1031 526 1039 q 519 1016 522 1023 q 513 1002 517 1008 q 505 992 509 996 q 495 988 500 988 l 125 988 q 113 993 117 988 q 109 1010 109 998 q 109 1021 109 1014 q 111 1035 110 1027 q 116 1050 113 1042 q 122 1064 119 1058 q 131 1074 126 1070 q 143 1078 136 1078 l 513 1078 q 524 1073 521 1078 q 528 1058 528 1067 m -122 878 z "},"Ĭ":{"ha":350,"x_min":-93,"x_max":514,"o":"m 174 17 q 169 8 173 12 q 158 2 165 4 q 139 -2 151 -1 q 111 -4 127 -4 q 83 -2 94 -4 q 66 2 72 -1 q 58 8 60 4 q 57 17 56 12 l 225 861 q 230 869 226 865 q 242 876 235 873 q 261 880 250 878 q 288 882 272 882 q 315 880 304 882 q 333 876 326 878 q 341 869 339 873 q 342 861 343 865 l 174 17 m 514 1133 q 511 1108 514 1125 q 498 1070 507 1091 q 475 1028 490 1050 q 437 988 460 1006 q 382 958 414 970 q 306 946 349 946 q 232 957 261 946 q 185 985 203 967 q 160 1026 168 1002 q 153 1075 153 1049 q 154 1092 153 1082 q 156 1111 155 1101 q 160 1128 157 1120 q 165 1139 162 1136 q 180 1145 170 1143 q 203 1147 190 1147 q 222 1146 214 1147 q 234 1143 230 1145 q 240 1138 239 1141 q 242 1131 242 1135 q 241 1116 242 1124 q 240 1097 240 1107 q 243 1069 240 1082 q 255 1047 247 1056 q 277 1033 263 1038 q 313 1028 291 1028 q 351 1034 332 1028 q 384 1050 369 1039 q 411 1081 399 1062 q 430 1128 422 1100 q 434 1136 431 1133 q 443 1142 437 1140 q 456 1146 448 1145 q 477 1147 465 1147 q 496 1146 489 1147 q 507 1144 503 1145 q 513 1139 511 1142 q 514 1133 514 1136 m -93 878 z "},"İ":{"ha":350,"x_min":18,"x_max":389,"o":"m 174 17 q 169 8 173 12 q 158 2 165 4 q 139 -2 151 -1 q 111 -4 127 -4 q 83 -2 94 -4 q 66 2 72 -1 q 58 8 60 4 q 57 17 56 12 l 225 861 q 230 869 226 865 q 242 876 235 873 q 261 880 250 878 q 288 882 272 882 q 315 880 304 882 q 333 876 326 878 q 341 869 339 873 q 342 861 343 865 l 174 17 m 252 1036 q 261 1066 255 1054 q 276 1087 267 1079 q 300 1098 286 1095 q 332 1102 313 1102 q 363 1098 351 1102 q 382 1087 376 1095 q 389 1066 388 1079 q 386 1036 389 1054 q 376 1006 382 1019 q 361 985 370 994 q 338 974 352 977 q 306 970 324 970 q 274 974 286 970 q 256 985 262 977 q 249 1006 250 994 q 252 1036 248 1019 m 18 878 z "},"Į":{"ha":350,"x_min":-67,"x_max":343,"o":"m 179 -177 q 178 -190 179 -182 q 175 -205 176 -198 q 171 -218 173 -212 q 165 -227 168 -224 q 151 -234 162 -230 q 126 -240 140 -237 q 94 -245 111 -243 q 59 -248 76 -248 q 2 -241 26 -248 q -37 -223 -22 -235 q -60 -196 -53 -212 q -67 -159 -67 -179 q -64 -132 -67 -145 q -52 -103 -60 -118 q -29 -74 -43 -89 q 5 -41 -15 -58 l 57 2 q 55 8 55 4 q 57 16 56 12 l 225 861 q 230 869 226 865 q 242 876 235 873 q 261 880 250 879 q 288 882 273 882 q 316 880 305 882 q 333 876 327 879 q 341 869 339 873 q 342 861 343 865 l 174 16 q 166 -4 171 5 q 153 -22 161 -14 l 90 -74 q 56 -109 65 -94 q 46 -136 46 -123 q 56 -156 46 -148 q 87 -163 65 -163 l 164 -163 q 176 -167 172 -163 q 179 -177 179 -170 z "},"Ĳ":{"ha":793,"x_min":56,"x_max":789,"o":"m 174 17 q 169 8 173 12 q 158 2 165 4 q 139 -2 151 -1 q 111 -4 127 -4 q 83 -2 94 -4 q 66 2 72 -1 q 58 8 60 4 q 57 17 56 12 l 225 861 q 230 869 226 865 q 242 876 235 873 q 261 880 250 878 q 288 882 272 882 q 315 880 304 882 q 333 876 326 878 q 341 869 339 873 q 342 861 343 865 l 174 17 m 659 212 q 632 122 649 163 q 588 52 615 81 q 523 5 561 22 q 431 -12 484 -12 q 373 -7 399 -12 q 329 6 347 -2 q 306 22 311 15 q 302 39 302 29 q 303 52 302 43 q 306 68 304 60 q 310 87 307 77 q 317 104 313 96 q 324 116 320 111 q 333 121 328 121 q 348 116 340 121 q 366 105 355 111 q 391 95 376 100 q 428 90 406 90 q 472 96 454 90 q 504 119 490 103 q 526 160 517 135 q 543 222 536 185 l 671 861 q 675 869 671 865 q 687 876 680 873 q 706 880 694 879 q 734 882 717 882 q 760 880 749 882 q 777 877 771 879 q 786 870 783 874 q 788 861 789 866 l 659 212 z "},"J":{"ha":443,"x_min":-49,"x_max":438,"o":"m 308 212 q 281 122 298 163 q 237 52 264 81 q 172 5 210 22 q 81 -12 134 -12 q 22 -7 49 -12 q -22 6 -4 -2 q -44 22 -40 15 q -49 39 -49 29 q -48 52 -49 43 q -45 68 -47 60 q -40 87 -43 77 q -34 104 -37 96 q -26 116 -31 111 q -18 121 -22 121 q -3 116 -10 121 q 15 105 5 111 q 41 95 26 100 q 77 90 56 90 q 121 96 103 90 q 153 119 140 103 q 176 160 166 135 q 193 222 185 185 l 320 861 q 325 869 321 865 q 336 876 329 873 q 355 880 344 879 q 383 882 366 882 q 410 880 399 882 q 427 877 420 879 q 435 870 433 874 q 437 861 438 866 l 308 212 z "},"Ĵ":{"ha":443,"x_min":-62,"x_max":600,"o":"m 308 212 q 281 122 298 163 q 237 52 264 81 q 172 5 210 22 q 81 -12 134 -12 q 22 -7 49 -12 q -22 6 -4 -2 q -44 22 -40 15 q -49 39 -49 29 q -48 52 -49 43 q -45 68 -47 60 q -40 87 -43 77 q -34 104 -37 96 q -26 116 -31 111 q -18 121 -22 121 q -3 116 -10 121 q 15 105 5 111 q 41 95 26 100 q 77 90 56 90 q 121 96 103 90 q 153 119 140 103 q 176 160 166 135 q 193 222 185 185 l 320 861 q 325 869 321 865 q 336 876 329 873 q 355 880 344 879 q 383 882 366 882 q 410 880 399 882 q 427 877 420 879 q 435 870 433 874 q 437 861 438 866 l 308 212 m 595 972 q 599 960 600 965 q 594 952 599 955 q 580 947 589 949 q 555 946 570 946 q 524 947 535 946 q 505 950 512 948 q 495 955 498 951 q 489 961 492 958 l 409 1078 l 278 964 q 265 955 271 959 q 249 949 258 951 q 227 947 240 947 q 196 946 214 946 q 170 948 179 946 q 158 952 161 949 q 157 960 155 956 q 168 972 160 965 l 351 1126 q 363 1136 357 1132 q 377 1142 370 1139 q 395 1145 385 1144 q 420 1145 406 1145 q 443 1145 434 1145 q 459 1142 452 1144 q 470 1136 465 1139 q 479 1126 475 1132 l 595 972 m -62 878 z "},"K":{"ha":722,"x_min":56,"x_max":781,"o":"m 781 859 q 773 840 781 850 q 751 816 766 830 l 387 460 l 617 52 q 626 33 623 40 q 628 20 628 26 q 625 9 628 14 q 616 2 623 5 q 598 -2 610 -1 q 568 -4 586 -4 q 537 -3 549 -4 q 518 1 525 -1 q 507 8 511 3 q 500 18 503 12 l 260 456 l 174 18 q 169 8 173 12 q 158 2 165 4 q 139 -2 151 -1 q 111 -4 127 -4 q 83 -2 94 -4 q 66 2 72 -1 q 58 8 60 4 q 57 18 56 12 l 225 861 q 230 869 226 865 q 241 876 234 873 q 260 880 249 878 q 288 882 272 882 q 316 880 304 882 q 333 876 327 878 q 341 869 339 873 q 342 861 343 865 l 264 470 l 648 859 q 660 870 654 865 q 675 877 667 874 q 696 880 684 879 q 724 882 708 882 q 753 880 742 882 q 770 876 764 878 q 778 869 776 873 q 781 859 781 865 z "},"Ķ":{"ha":722,"x_min":56,"x_max":781,"o":"m 781 859 q 773 840 781 850 q 751 816 766 830 l 387 460 l 617 52 q 626 33 623 40 q 628 20 628 26 q 625 9 628 14 q 616 2 623 5 q 598 -2 610 -1 q 568 -4 586 -4 q 537 -3 549 -4 q 518 1 525 -1 q 507 8 511 3 q 500 18 503 12 l 260 456 l 174 18 q 169 8 173 12 q 158 2 165 4 q 139 -2 151 -1 q 111 -4 127 -4 q 83 -2 94 -4 q 66 2 72 -1 q 58 8 60 4 q 57 18 56 12 l 225 861 q 230 869 226 865 q 241 876 234 873 q 260 880 249 878 q 288 882 272 882 q 316 880 304 882 q 333 876 327 878 q 341 869 339 873 q 342 861 343 865 l 264 470 l 648 859 q 660 870 654 865 q 675 877 667 874 q 696 880 684 879 q 724 882 708 882 q 753 880 742 882 q 770 876 764 878 q 778 869 776 873 q 781 859 781 865 m 266 -227 q 257 -237 261 -233 q 245 -243 252 -241 q 229 -247 239 -245 q 205 -248 220 -248 q 184 -246 192 -248 q 174 -241 177 -244 q 173 -232 172 -237 q 178 -219 174 -227 l 244 -82 q 252 -70 248 -75 q 265 -62 257 -64 q 285 -58 273 -59 q 315 -56 297 -56 q 343 -59 333 -56 q 356 -65 353 -61 q 359 -76 360 -70 q 353 -89 357 -81 l 266 -227 z "},"L":{"ha":584,"x_min":60,"x_max":522,"o":"m 522 78 q 520 67 522 75 q 518 51 519 60 q 514 33 516 42 q 507 17 511 24 q 498 5 503 9 q 486 0 492 0 l 97 0 q 82 2 89 0 q 69 11 75 5 q 62 25 64 16 q 63 47 60 35 l 225 861 q 230 869 226 865 q 241 876 234 873 q 260 880 249 878 q 288 882 272 882 q 316 880 304 882 q 333 876 327 878 q 341 869 339 873 q 342 861 343 865 l 191 101 l 505 101 q 518 95 514 101 q 522 78 522 89 z "},"Ĺ":{"ha":584,"x_min":60,"x_max":593,"o":"m 522 78 q 520 67 522 75 q 518 51 519 60 q 514 33 516 42 q 507 17 511 24 q 498 5 503 9 q 486 0 492 0 l 97 0 q 82 2 89 0 q 69 11 75 5 q 62 25 64 16 q 63 47 60 35 l 225 861 q 230 869 226 865 q 241 876 234 873 q 260 880 249 878 q 288 882 272 882 q 316 880 304 882 q 333 876 327 878 q 341 869 339 873 q 342 861 343 865 l 191 101 l 505 101 q 518 95 514 101 q 522 78 522 89 m 422 967 q 408 957 414 961 q 395 950 402 953 q 377 947 387 948 q 354 946 368 946 q 317 953 323 946 q 324 975 311 960 l 458 1120 q 473 1133 465 1128 q 490 1141 481 1138 q 511 1144 499 1143 q 540 1145 523 1145 q 572 1142 560 1145 q 588 1135 583 1139 q 590 1124 593 1130 q 581 1111 588 1118 l 422 967 m 83 878 z "},"Ľ":{"ha":587,"x_min":60,"x_max":619,"o":"m 522 78 q 520 67 522 75 q 518 51 519 60 q 514 33 516 42 q 507 17 511 24 q 498 5 503 9 q 486 0 492 0 l 97 0 q 82 2 89 0 q 69 11 75 5 q 62 25 64 16 q 63 47 60 35 l 225 861 q 230 869 226 865 q 241 876 234 873 q 260 880 249 878 q 288 882 272 882 q 316 880 304 882 q 333 876 327 878 q 341 869 339 873 q 342 861 343 865 l 191 101 l 505 101 q 518 95 514 101 q 522 78 522 89 m 507 680 q 501 672 505 675 q 491 667 497 669 q 476 665 485 665 q 452 664 467 664 q 437 665 443 664 q 429 669 431 667 q 426 676 426 672 q 427 685 425 680 l 514 892 q 521 903 517 899 q 533 911 526 908 q 551 915 541 913 q 578 916 562 916 q 603 915 593 916 q 615 910 612 913 q 618 903 619 907 q 615 891 618 898 l 507 680 m 254 645 z "},"Ļ":{"ha":584,"x_min":60,"x_max":522,"o":"m 522 78 q 520 67 522 75 q 518 51 519 60 q 514 33 516 42 q 507 17 511 24 q 498 5 503 9 q 486 0 492 0 l 97 0 q 82 2 89 0 q 69 11 75 5 q 62 25 64 16 q 63 47 60 35 l 225 861 q 230 869 226 865 q 241 876 234 873 q 260 880 249 878 q 288 882 272 882 q 316 880 304 882 q 333 876 327 878 q 341 869 339 873 q 342 861 343 865 l 191 101 l 505 101 q 518 95 514 101 q 522 78 522 89 m 229 -227 q 220 -237 224 -233 q 209 -243 216 -241 q 193 -247 202 -245 q 169 -248 183 -248 q 148 -246 155 -248 q 138 -241 140 -244 q 136 -232 135 -237 q 141 -219 138 -227 l 208 -82 q 216 -70 211 -75 q 229 -62 220 -64 q 249 -58 237 -59 q 279 -56 260 -56 q 306 -59 296 -56 q 320 -65 316 -61 q 322 -76 323 -70 q 316 -89 321 -81 l 229 -227 z "},"Ł":{"ha":597,"x_min":24,"x_max":534,"o":"m 534 78 q 533 67 534 75 q 531 51 532 60 q 527 33 529 42 q 520 17 524 24 q 510 5 516 9 q 498 0 505 0 l 109 0 q 80 12 90 0 q 75 47 70 23 l 140 368 l 47 315 q 29 313 34 308 q 24 331 24 317 q 24 342 24 335 q 27 358 25 349 q 31 375 28 366 q 37 391 33 383 q 44 404 40 398 q 54 413 48 410 l 161 473 l 238 861 q 243 869 239 865 q 254 876 247 873 q 273 880 261 879 q 301 882 284 882 q 329 880 318 882 q 346 876 340 879 q 354 869 352 873 q 355 861 356 865 l 292 546 l 461 640 q 478 642 473 647 q 483 626 483 637 q 482 615 483 622 q 480 600 481 608 q 476 583 479 592 q 471 567 474 574 q 464 552 468 559 q 455 543 460 546 l 271 441 l 203 101 l 519 101 q 531 94 527 101 q 534 78 534 87 z "},"Ŀ":{"ha":758,"x_min":60,"x_max":702,"o":"m 522 78 q 520 67 522 75 q 518 51 519 60 q 514 33 516 42 q 507 17 511 24 q 498 5 503 9 q 486 0 492 0 l 97 0 q 82 2 89 0 q 69 11 75 5 q 62 25 64 16 q 63 47 60 35 l 225 861 q 230 869 226 865 q 241 876 234 873 q 260 880 249 878 q 288 882 272 882 q 316 880 304 882 q 333 876 327 878 q 341 869 339 873 q 342 861 343 865 l 191 101 l 505 101 q 518 95 514 101 q 522 78 522 89 m 702 487 q 700 462 702 475 q 693 436 697 449 q 684 411 690 422 q 671 393 679 399 q 644 378 661 381 q 609 374 627 374 q 579 377 591 374 q 560 386 568 380 q 550 400 553 392 q 547 420 547 408 q 550 445 547 431 q 556 471 552 458 q 565 495 559 484 q 576 512 570 507 q 600 526 585 521 q 640 532 614 532 q 672 528 660 532 q 691 519 684 525 q 700 505 697 513 q 702 487 702 497 z "},"M":{"ha":1187,"x_min":56,"x_max":1175,"o":"m 1011 17 q 1006 8 1010 12 q 996 2 1003 4 q 978 -2 989 -1 q 950 -4 967 -4 q 923 -2 934 -4 q 906 2 912 -1 q 898 8 900 4 q 898 17 897 12 l 1050 781 l 1049 781 l 582 14 q 562 0 576 5 q 521 -4 548 -4 q 481 1 493 -4 q 469 14 470 6 l 323 782 l 322 782 l 170 17 q 165 8 168 12 q 155 2 161 4 q 137 -2 148 -1 q 109 -4 125 -4 q 81 -2 92 -4 q 65 2 71 -1 q 57 8 59 4 q 57 17 56 12 l 218 825 q 227 848 220 838 q 241 865 233 859 q 258 874 249 871 q 277 878 267 878 l 345 878 q 381 873 366 878 q 405 860 395 869 q 420 838 415 851 q 429 805 426 824 l 555 171 l 559 171 l 951 805 q 971 837 961 823 q 994 859 981 850 q 1022 873 1006 868 q 1056 878 1037 878 l 1133 878 q 1152 874 1143 878 q 1165 865 1160 871 q 1173 849 1171 859 q 1172 825 1175 839 l 1011 17 z "},"N":{"ha":895,"x_min":56,"x_max":888,"o":"m 724 48 q 716 25 722 35 q 702 9 710 16 q 686 1 694 3 q 668 -2 677 -2 l 624 -2 q 594 2 606 -2 q 573 16 582 6 q 556 42 564 26 q 541 81 549 58 l 376 549 q 343 649 359 600 q 311 749 326 699 l 309 749 q 290 639 300 694 q 269 529 280 584 l 168 18 q 162 8 166 12 q 152 2 159 4 q 133 -2 144 -1 q 106 -4 122 -4 q 80 -2 91 -4 q 64 2 70 -1 q 57 8 59 4 q 57 18 56 12 l 218 827 q 241 866 224 854 q 276 878 258 878 l 330 878 q 358 874 346 878 q 379 862 370 871 q 395 839 388 853 q 410 804 401 825 l 576 330 q 607 241 591 286 q 637 153 622 197 l 638 153 q 659 268 648 208 q 681 383 670 328 l 777 859 q 781 868 778 864 q 791 874 785 871 q 809 878 798 877 q 836 880 819 880 q 862 878 851 880 q 878 874 872 877 q 886 868 884 871 q 887 859 888 864 l 724 48 z "},"Ń":{"ha":895,"x_min":56,"x_max":888,"o":"m 724 48 q 716 25 722 35 q 702 9 710 16 q 686 1 694 3 q 668 -2 677 -2 l 624 -2 q 594 2 606 -2 q 573 16 582 6 q 556 42 564 26 q 541 81 549 58 l 376 549 q 343 649 359 600 q 311 749 326 699 l 309 749 q 290 639 300 694 q 269 529 280 584 l 168 18 q 162 8 166 12 q 152 2 159 4 q 133 -2 144 -1 q 106 -4 122 -4 q 80 -2 91 -4 q 64 2 70 -1 q 57 8 59 4 q 57 18 56 12 l 218 827 q 241 866 224 854 q 276 878 258 878 l 330 878 q 358 874 346 878 q 379 862 370 871 q 395 839 388 853 q 410 804 401 825 l 576 330 q 607 241 591 286 q 637 153 622 197 l 638 153 q 659 268 648 208 q 681 383 670 328 l 777 859 q 781 868 778 864 q 791 874 785 871 q 809 878 798 877 q 836 880 819 880 q 862 878 851 880 q 878 874 872 877 q 886 868 884 871 q 887 859 888 864 l 724 48 m 642 967 q 628 957 634 961 q 614 950 622 953 q 597 947 607 948 q 574 946 587 946 q 536 953 543 946 q 544 975 530 960 l 677 1120 q 693 1133 685 1128 q 710 1141 701 1138 q 731 1144 719 1143 q 760 1145 743 1145 q 791 1142 780 1145 q 808 1135 803 1139 q 810 1124 812 1130 q 801 1111 808 1118 l 642 967 m 302 878 z "},"Ň":{"ha":895,"x_min":56,"x_max":888,"o":"m 724 48 q 716 25 722 35 q 702 9 710 16 q 686 1 694 3 q 668 -2 677 -2 l 624 -2 q 594 2 606 -2 q 573 16 582 6 q 556 42 564 26 q 541 81 549 58 l 376 549 q 343 649 359 600 q 311 749 326 699 l 309 749 q 290 639 300 694 q 269 529 280 584 l 168 18 q 162 8 166 12 q 152 2 159 4 q 133 -2 144 -1 q 106 -4 122 -4 q 80 -2 91 -4 q 64 2 70 -1 q 57 8 59 4 q 57 18 56 12 l 218 827 q 241 866 224 854 q 276 878 258 878 l 330 878 q 358 874 346 878 q 379 862 370 871 q 395 839 388 853 q 410 804 401 825 l 576 330 q 607 241 591 286 q 637 153 622 197 l 638 153 q 659 268 648 208 q 681 383 670 328 l 777 859 q 781 868 778 864 q 791 874 785 871 q 809 878 798 877 q 836 880 819 880 q 862 878 851 880 q 878 874 872 877 q 886 868 884 871 q 887 859 888 864 l 724 48 m 645 966 q 632 956 639 960 q 618 950 626 952 q 600 947 610 948 q 575 946 589 946 q 552 947 561 946 q 536 949 543 947 q 525 956 530 951 q 515 966 520 960 l 401 1120 q 396 1132 396 1126 q 400 1140 395 1137 q 415 1144 405 1143 q 439 1145 425 1145 q 471 1144 460 1145 q 489 1142 483 1143 q 498 1137 495 1140 q 505 1130 501 1133 l 586 1013 l 717 1127 q 729 1136 723 1133 q 745 1142 736 1140 q 767 1145 754 1144 q 799 1145 781 1145 q 825 1144 815 1145 q 837 1139 834 1142 q 838 1131 840 1136 q 828 1120 836 1126 l 645 966 m 143 878 z "},"Ñ":{"ha":895,"x_min":56,"x_max":888,"o":"m 724 48 q 716 25 722 35 q 702 9 710 16 q 686 1 694 3 q 668 -2 677 -2 l 624 -2 q 594 2 606 -2 q 573 16 582 6 q 556 42 564 26 q 541 81 549 58 l 376 549 q 343 649 359 600 q 311 749 326 699 l 309 749 q 290 639 300 694 q 269 529 280 584 l 168 18 q 162 8 166 12 q 152 2 159 4 q 133 -2 144 -1 q 106 -4 122 -4 q 80 -2 91 -4 q 64 2 70 -1 q 57 8 59 4 q 57 18 56 12 l 218 827 q 241 866 224 854 q 276 878 258 878 l 330 878 q 358 874 346 878 q 379 862 370 871 q 395 839 388 853 q 410 804 401 825 l 576 330 q 607 241 591 286 q 637 153 622 197 l 638 153 q 659 268 648 208 q 681 383 670 328 l 777 859 q 781 868 778 864 q 791 874 785 871 q 809 878 798 877 q 836 880 819 880 q 862 878 851 880 q 878 874 872 877 q 886 868 884 871 q 887 859 888 864 l 724 48 m 743 1095 q 746 1102 743 1099 q 754 1106 749 1105 q 768 1109 760 1108 q 787 1109 776 1109 q 817 1105 810 1109 q 823 1093 823 1101 q 822 1078 823 1090 q 817 1050 821 1066 q 803 1016 812 1034 q 778 982 794 998 q 738 957 762 967 q 679 947 713 947 q 618 959 644 947 q 571 986 592 971 q 531 1012 551 1000 q 490 1024 512 1024 q 448 1007 461 1024 q 431 962 435 990 q 428 955 431 958 q 420 950 425 952 q 407 948 415 949 q 388 947 399 947 q 358 950 366 947 q 350 964 350 954 q 352 985 350 971 q 360 1016 354 1000 q 376 1048 366 1031 q 402 1079 386 1065 q 441 1101 418 1093 q 496 1109 465 1109 q 556 1097 531 1109 q 603 1071 582 1085 q 643 1044 624 1057 q 684 1032 662 1032 q 724 1046 708 1032 q 743 1095 739 1060 m 128 878 z "},"Ņ":{"ha":895,"x_min":56,"x_max":888,"o":"m 724 48 q 716 25 722 35 q 702 9 710 16 q 686 1 694 3 q 668 -2 677 -2 l 624 -2 q 594 2 606 -2 q 573 16 582 6 q 556 42 564 26 q 541 81 549 58 l 376 549 q 343 649 359 600 q 311 749 326 699 l 309 749 q 290 639 300 694 q 269 529 280 584 l 168 18 q 162 8 166 12 q 152 2 159 4 q 133 -2 144 -1 q 106 -4 122 -4 q 80 -2 91 -4 q 64 2 70 -1 q 57 8 59 4 q 57 18 56 12 l 218 827 q 241 866 224 854 q 276 878 258 878 l 330 878 q 358 874 346 878 q 379 862 370 871 q 395 839 388 853 q 410 804 401 825 l 576 330 q 607 241 591 286 q 637 153 622 197 l 638 153 q 659 268 648 208 q 681 383 670 328 l 777 859 q 781 868 778 864 q 791 874 785 871 q 809 878 798 877 q 836 880 819 880 q 862 878 851 880 q 878 874 872 877 q 886 868 884 871 q 887 859 888 864 l 724 48 m 318 -227 q 309 -237 313 -233 q 298 -243 304 -241 q 281 -247 291 -245 q 258 -248 272 -248 q 237 -246 244 -248 q 227 -241 229 -244 q 225 -232 224 -237 q 230 -219 227 -227 l 296 -82 q 304 -70 300 -75 q 317 -62 309 -64 q 337 -58 326 -59 q 368 -56 349 -56 q 395 -59 385 -56 q 409 -65 405 -61 q 411 -76 412 -70 q 405 -89 410 -81 l 318 -227 z "},"Ŋ":{"ha":871,"x_min":56,"x_max":863,"o":"m 686 -20 q 658 -116 675 -74 q 614 -188 641 -158 q 550 -232 588 -217 q 460 -248 513 -248 q 400 -242 427 -248 q 366 -229 374 -237 q 361 -222 362 -226 q 360 -213 360 -218 q 361 -202 360 -209 q 363 -187 361 -195 q 367 -171 364 -179 q 373 -156 370 -163 q 380 -145 376 -149 q 389 -141 384 -141 q 400 -143 395 -141 q 412 -148 405 -145 q 430 -152 418 -151 q 460 -154 441 -154 q 499 -148 482 -154 q 529 -127 516 -142 q 552 -89 542 -113 q 570 -31 562 -65 l 576 0 l 374 549 q 341 642 357 595 q 310 736 326 688 l 309 736 q 283 598 297 668 q 256 463 270 528 l 168 17 q 163 8 167 12 q 153 1 160 4 q 135 -3 146 -1 q 109 -4 124 -4 q 82 -3 92 -4 q 65 1 71 -1 q 57 8 59 4 q 57 17 56 12 l 218 827 q 241 866 224 854 q 275 878 257 878 l 328 878 q 352 874 342 878 q 370 865 362 871 q 383 848 378 859 q 395 823 389 838 l 538 433 q 581 316 559 377 q 621 197 602 256 l 622 197 q 633 261 627 228 q 645 328 639 294 q 658 394 652 361 q 671 459 665 428 l 751 858 q 755 867 752 863 q 765 874 758 871 q 782 878 771 877 q 809 880 793 880 q 835 878 824 880 q 852 874 846 877 q 860 867 858 871 q 862 858 863 863 l 686 -20 z "},"O":{"ha":909,"x_min":77,"x_max":880,"o":"m 880 583 q 871 467 880 531 q 839 336 861 402 q 780 207 817 269 q 688 95 743 144 q 559 17 634 47 q 389 -13 485 -13 q 253 6 311 -13 q 156 64 195 26 q 97 159 117 102 q 77 289 77 215 q 87 414 77 347 q 121 548 98 481 q 182 677 144 615 q 274 786 220 739 q 402 862 329 834 q 570 890 475 890 q 705 870 647 890 q 802 811 763 850 q 861 715 841 772 q 880 583 880 658 m 755 575 q 745 662 755 623 q 710 730 734 702 q 647 775 686 759 q 552 791 608 791 q 428 765 481 791 q 336 696 375 739 q 272 601 297 654 q 231 494 246 548 q 209 389 216 439 q 203 300 203 338 q 213 213 203 252 q 248 146 224 174 q 312 103 273 119 q 407 88 351 88 q 530 114 477 88 q 621 180 583 139 q 686 274 660 222 q 727 381 711 327 q 749 486 743 435 q 755 575 755 536 z "},"Ò":{"ha":909,"x_min":77,"x_max":880,"o":"m 880 583 q 871 467 880 531 q 839 336 861 402 q 780 207 817 269 q 688 95 743 144 q 559 17 634 47 q 389 -13 485 -13 q 253 6 311 -13 q 156 64 195 26 q 97 159 117 102 q 77 289 77 215 q 87 414 77 347 q 121 548 98 481 q 182 677 144 615 q 274 786 220 739 q 402 862 329 834 q 570 890 475 890 q 705 870 647 890 q 802 811 763 850 q 861 715 841 772 q 880 583 880 658 m 755 575 q 745 662 755 623 q 710 730 734 702 q 647 775 686 759 q 552 791 608 791 q 428 765 481 791 q 336 696 375 739 q 272 601 297 654 q 231 494 246 548 q 209 389 216 439 q 203 300 203 338 q 213 213 203 252 q 248 146 224 174 q 312 103 273 119 q 407 88 351 88 q 530 114 477 88 q 621 180 583 139 q 686 274 660 222 q 727 381 711 327 q 749 486 743 435 q 755 575 755 536 m 618 975 q 626 962 625 968 q 624 953 628 957 q 611 948 620 949 q 587 946 602 946 q 563 947 572 946 q 546 950 553 948 q 533 957 539 953 q 520 967 527 960 l 373 1111 q 365 1124 366 1118 q 368 1135 363 1130 q 385 1142 373 1139 q 418 1145 397 1145 q 446 1145 435 1145 q 467 1141 458 1144 q 484 1134 477 1139 q 497 1120 490 1128 l 618 975 m 125 878 z "},"Ó":{"ha":909,"x_min":77,"x_max":880,"o":"m 880 583 q 871 467 880 531 q 839 336 861 402 q 780 207 817 269 q 688 95 743 144 q 559 17 634 47 q 389 -13 485 -13 q 253 6 311 -13 q 156 64 195 26 q 97 159 117 102 q 77 289 77 215 q 87 414 77 347 q 121 548 98 481 q 182 677 144 615 q 274 786 220 739 q 402 862 329 834 q 570 890 475 890 q 705 870 647 890 q 802 811 763 850 q 861 715 841 772 q 880 583 880 658 m 755 575 q 745 662 755 623 q 710 730 734 702 q 647 775 686 759 q 552 791 608 791 q 428 765 481 791 q 336 696 375 739 q 272 601 297 654 q 231 494 246 548 q 209 389 216 439 q 203 300 203 338 q 213 213 203 252 q 248 146 224 174 q 312 103 273 119 q 407 88 351 88 q 530 114 477 88 q 621 180 583 139 q 686 274 660 222 q 727 381 711 327 q 749 486 743 435 q 755 575 755 536 m 614 967 q 601 957 607 961 q 587 950 595 953 q 570 947 580 948 q 547 946 560 946 q 509 953 515 946 q 517 975 503 960 l 650 1120 q 666 1133 658 1128 q 683 1141 673 1138 q 704 1144 692 1143 q 732 1145 715 1145 q 764 1142 753 1145 q 781 1135 776 1139 q 783 1124 785 1130 q 774 1111 781 1118 l 614 967 m 275 878 z "},"Ô":{"ha":909,"x_min":77,"x_max":880,"o":"m 880 583 q 871 467 880 531 q 839 336 861 402 q 780 207 817 269 q 688 95 743 144 q 559 17 634 47 q 389 -13 485 -13 q 253 6 311 -13 q 156 64 195 26 q 97 159 117 102 q 77 289 77 215 q 87 414 77 347 q 121 548 98 481 q 182 677 144 615 q 274 786 220 739 q 402 862 329 834 q 570 890 475 890 q 705 870 647 890 q 802 811 763 850 q 861 715 841 772 q 880 583 880 658 m 755 575 q 745 662 755 623 q 710 730 734 702 q 647 775 686 759 q 552 791 608 791 q 428 765 481 791 q 336 696 375 739 q 272 601 297 654 q 231 494 246 548 q 209 389 216 439 q 203 300 203 338 q 213 213 203 252 q 248 146 224 174 q 312 103 273 119 q 407 88 351 88 q 530 114 477 88 q 621 180 583 139 q 686 274 660 222 q 727 381 711 327 q 749 486 743 435 q 755 575 755 536 m 799 972 q 803 960 804 965 q 798 952 803 955 q 784 947 793 949 q 760 946 774 946 q 728 947 739 946 q 709 950 716 948 q 699 955 703 951 q 693 961 696 958 l 613 1078 l 482 964 q 469 955 475 959 q 453 949 463 951 q 431 947 444 947 q 400 946 418 946 q 374 948 383 946 q 362 952 365 949 q 361 960 359 956 q 372 972 364 965 l 555 1126 q 567 1136 561 1132 q 582 1142 574 1139 q 600 1145 589 1144 q 624 1145 610 1145 q 647 1145 638 1145 q 663 1142 656 1144 q 674 1136 669 1139 q 684 1126 679 1132 l 799 972 m 142 878 z "},"Õ":{"ha":909,"x_min":77,"x_max":880,"o":"m 880 583 q 871 467 880 531 q 839 336 861 402 q 780 207 817 269 q 688 95 743 144 q 559 17 634 47 q 389 -13 485 -13 q 253 6 311 -13 q 156 64 195 26 q 97 159 117 102 q 77 289 77 215 q 87 414 77 347 q 121 548 98 481 q 182 677 144 615 q 274 786 220 739 q 402 862 329 834 q 570 890 475 890 q 705 870 647 890 q 802 811 763 850 q 861 715 841 772 q 880 583 880 658 m 755 575 q 745 662 755 623 q 710 730 734 702 q 647 775 686 759 q 552 791 608 791 q 428 765 481 791 q 336 696 375 739 q 272 601 297 654 q 231 494 246 548 q 209 389 216 439 q 203 300 203 338 q 213 213 203 252 q 248 146 224 174 q 312 103 273 119 q 407 88 351 88 q 530 114 477 88 q 621 180 583 139 q 686 274 660 222 q 727 381 711 327 q 749 486 743 435 q 755 575 755 536 m 752 1095 q 755 1102 753 1099 q 764 1106 758 1105 q 777 1109 769 1108 q 796 1109 785 1109 q 826 1105 819 1109 q 833 1093 833 1101 q 832 1078 833 1090 q 826 1050 831 1066 q 812 1016 821 1034 q 788 982 804 998 q 747 957 772 967 q 688 947 723 947 q 627 959 653 947 q 581 986 602 971 q 541 1012 560 1000 q 500 1024 522 1024 q 457 1007 471 1024 q 441 962 444 990 q 437 955 440 958 q 430 950 435 952 q 416 948 425 949 q 397 947 408 947 q 367 950 375 947 q 359 964 359 954 q 361 985 359 971 q 369 1016 363 1000 q 385 1048 375 1031 q 412 1079 395 1065 q 451 1101 428 1093 q 506 1109 474 1109 q 566 1097 541 1109 q 612 1071 591 1085 q 652 1044 633 1057 q 693 1032 671 1032 q 733 1046 718 1032 q 752 1095 749 1060 m 138 878 z "},"Ö":{"ha":909,"x_min":77,"x_max":880,"o":"m 880 583 q 871 467 880 531 q 839 336 861 402 q 780 207 817 269 q 688 95 743 144 q 559 17 634 47 q 389 -13 485 -13 q 253 6 311 -13 q 156 64 195 26 q 97 159 117 102 q 77 289 77 215 q 87 414 77 347 q 121 548 98 481 q 182 677 144 615 q 274 786 220 739 q 402 862 329 834 q 570 890 475 890 q 705 870 647 890 q 802 811 763 850 q 861 715 841 772 q 880 583 880 658 m 755 575 q 745 662 755 623 q 710 730 734 702 q 647 775 686 759 q 552 791 608 791 q 428 765 481 791 q 336 696 375 739 q 272 601 297 654 q 231 494 246 548 q 209 389 216 439 q 203 300 203 338 q 213 213 203 252 q 248 146 224 174 q 312 103 273 119 q 407 88 351 88 q 530 114 477 88 q 621 180 583 139 q 686 274 660 222 q 727 381 711 327 q 749 486 743 435 q 755 575 755 536 m 810 1036 q 802 1004 807 1017 q 788 984 797 992 q 765 974 779 977 q 734 970 752 970 q 703 974 715 970 q 685 984 691 977 q 677 1004 678 992 q 679 1036 676 1017 q 687 1067 682 1055 q 701 1087 692 1080 q 723 1098 710 1095 q 755 1101 736 1101 q 786 1098 774 1101 q 804 1087 798 1095 q 812 1067 810 1080 q 810 1036 814 1055 m 530 1036 q 522 1004 528 1017 q 508 984 517 992 q 485 974 498 977 q 453 970 472 970 q 422 974 434 970 q 404 984 410 977 q 397 1004 398 992 q 399 1036 396 1017 q 407 1067 402 1055 q 421 1087 412 1080 q 443 1098 429 1095 q 475 1101 456 1101 q 506 1098 494 1101 q 524 1087 517 1095 q 532 1067 530 1080 q 530 1036 533 1055 m 165 878 z "},"Ō":{"ha":909,"x_min":77,"x_max":880,"o":"m 880 583 q 871 467 880 531 q 839 336 861 402 q 780 207 817 269 q 688 95 743 144 q 559 17 634 47 q 389 -13 485 -13 q 253 6 311 -13 q 156 64 195 26 q 97 159 117 102 q 77 289 77 215 q 87 414 77 347 q 121 548 98 481 q 182 677 144 615 q 274 786 220 739 q 402 862 329 834 q 570 890 475 890 q 705 870 647 890 q 802 811 763 850 q 861 715 841 772 q 880 583 880 658 m 755 575 q 745 662 755 623 q 710 730 734 702 q 647 775 686 759 q 552 791 608 791 q 428 765 481 791 q 336 696 375 739 q 272 601 297 654 q 231 494 246 548 q 209 389 216 439 q 203 300 203 338 q 213 213 203 252 q 248 146 224 174 q 312 103 273 119 q 407 88 351 88 q 530 114 477 88 q 621 180 583 139 q 686 274 660 222 q 727 381 711 327 q 749 486 743 435 q 755 575 755 536 m 815 1058 q 814 1046 815 1053 q 812 1031 814 1039 q 807 1016 810 1023 q 801 1002 804 1008 q 792 992 797 996 q 783 988 788 988 l 412 988 q 400 993 404 988 q 396 1010 396 998 q 397 1021 396 1014 q 399 1035 397 1027 q 403 1050 400 1042 q 410 1064 406 1058 q 419 1074 414 1070 q 431 1078 424 1078 l 800 1078 q 812 1073 808 1078 q 815 1058 815 1067 m 165 878 z "},"Ŏ":{"ha":909,"x_min":77,"x_max":880,"o":"m 880 583 q 871 467 880 531 q 839 336 861 402 q 780 207 817 269 q 688 95 743 144 q 559 17 634 47 q 389 -13 485 -13 q 253 6 311 -13 q 156 64 195 26 q 97 159 117 102 q 77 289 77 215 q 87 414 77 347 q 121 548 98 481 q 182 677 144 615 q 274 786 220 739 q 402 862 329 834 q 570 890 475 890 q 705 870 647 890 q 802 811 763 850 q 861 715 841 772 q 880 583 880 658 m 755 575 q 745 662 755 623 q 710 730 734 702 q 647 775 686 759 q 552 791 608 791 q 428 765 481 791 q 336 696 375 739 q 272 601 297 654 q 231 494 246 548 q 209 389 216 439 q 203 300 203 338 q 213 213 203 252 q 248 146 224 174 q 312 103 273 119 q 407 88 351 88 q 530 114 477 88 q 621 180 583 139 q 686 274 660 222 q 727 381 711 327 q 749 486 743 435 q 755 575 755 536 m 801 1133 q 798 1108 801 1125 q 785 1070 794 1091 q 762 1028 777 1050 q 724 988 747 1006 q 669 958 701 970 q 593 946 636 946 q 519 957 548 946 q 472 985 490 967 q 447 1026 454 1002 q 439 1075 439 1049 q 440 1092 439 1082 q 443 1111 441 1101 q 447 1128 444 1120 q 452 1139 449 1136 q 467 1145 456 1143 q 490 1147 477 1147 q 509 1146 501 1147 q 521 1143 517 1145 q 527 1138 526 1141 q 529 1131 529 1135 q 528 1116 529 1124 q 527 1097 527 1107 q 530 1069 527 1082 q 542 1047 534 1056 q 564 1033 550 1038 q 600 1028 578 1028 q 637 1034 619 1028 q 671 1050 656 1039 q 698 1081 686 1062 q 717 1128 709 1100 q 721 1136 718 1133 q 730 1142 724 1140 q 743 1146 735 1145 q 764 1147 751 1147 q 783 1146 776 1147 q 794 1144 790 1145 q 800 1139 798 1142 q 801 1133 801 1136 m 194 878 z "},"Ő":{"ha":909,"x_min":77,"x_max":937,"o":"m 880 583 q 871 467 880 531 q 839 336 861 402 q 780 207 817 269 q 688 95 743 144 q 559 17 634 47 q 389 -13 485 -13 q 253 6 311 -13 q 156 64 195 26 q 97 159 117 102 q 77 289 77 215 q 87 414 77 347 q 121 548 98 481 q 182 677 144 615 q 274 786 220 739 q 402 862 329 834 q 570 890 475 890 q 705 870 647 890 q 802 811 763 850 q 861 715 841 772 q 880 583 880 658 m 755 575 q 745 662 755 623 q 710 730 734 702 q 647 775 686 759 q 552 791 608 791 q 428 765 481 791 q 336 696 375 739 q 272 601 297 654 q 231 494 246 548 q 209 389 216 439 q 203 300 203 338 q 213 213 203 252 q 248 146 224 174 q 312 103 273 119 q 407 88 351 88 q 530 114 477 88 q 621 180 583 139 q 686 274 660 222 q 727 381 711 327 q 749 486 743 435 q 755 575 755 536 m 768 961 q 758 952 762 956 q 746 948 753 949 q 730 946 739 947 q 707 946 721 946 q 685 947 694 946 q 672 951 676 949 q 667 959 667 954 q 670 968 666 963 l 798 1128 q 808 1137 803 1133 q 822 1143 814 1141 q 844 1146 831 1145 q 876 1147 857 1147 q 912 1145 899 1147 q 931 1139 925 1143 q 936 1130 937 1135 q 929 1119 935 1125 l 768 961 m 510 960 q 499 952 505 956 q 487 948 494 949 q 470 946 480 947 q 448 946 460 946 q 418 952 425 946 q 418 969 410 959 l 540 1128 q 550 1137 545 1133 q 564 1143 555 1141 q 583 1146 572 1145 q 612 1147 595 1147 q 652 1145 637 1147 q 673 1140 667 1143 q 677 1130 680 1136 q 667 1116 675 1124 l 510 960 m 182 878 z "},"Ø":{"ha":913,"x_min":26,"x_max":935,"o":"m 161 61 q 99 156 120 99 q 77 289 77 212 q 87 410 77 345 q 118 543 96 476 q 178 672 140 610 q 270 783 215 734 q 400 861 325 832 q 573 890 475 890 q 651 884 614 890 q 718 864 688 878 l 822 1015 q 845 1029 829 1025 q 890 1032 861 1032 q 917 1029 907 1032 q 931 1022 927 1027 q 933 1011 935 1017 q 926 996 932 1004 l 800 816 q 863 720 842 778 q 884 589 884 663 q 875 468 884 534 q 843 335 865 401 q 783 205 821 268 q 691 94 746 143 q 562 16 637 45 q 389 -13 487 -13 q 309 -6 346 -13 q 244 14 273 0 l 139 -140 q 117 -153 133 -149 q 73 -156 100 -156 q 45 -153 56 -156 q 30 -146 34 -151 q 27 -135 26 -142 q 34 -121 28 -129 l 161 61 m 304 105 q 351 90 325 96 q 408 84 377 84 q 535 111 480 84 q 629 181 590 138 q 694 279 669 224 q 735 388 720 333 q 756 494 750 444 q 762 579 762 544 q 754 653 762 618 q 727 713 747 688 l 304 105 m 657 772 q 610 788 635 783 q 554 793 584 793 q 455 778 499 793 q 376 736 411 762 q 314 674 340 709 q 267 599 287 639 q 234 517 248 559 q 213 435 221 475 q 202 360 205 395 q 199 298 199 324 q 207 224 199 259 q 235 164 215 189 l 657 772 z "},"Ǿ":{"ha":913,"x_min":26,"x_max":935,"o":"m 161 61 q 99 156 120 99 q 77 289 77 212 q 87 410 77 345 q 118 543 96 476 q 178 672 140 610 q 270 783 215 734 q 400 861 325 832 q 573 890 475 890 q 651 884 614 890 q 718 864 688 878 l 822 1015 q 845 1029 829 1025 q 890 1032 861 1032 q 917 1029 907 1032 q 931 1022 927 1027 q 933 1011 935 1017 q 926 996 932 1004 l 800 816 q 863 720 842 778 q 884 589 884 663 q 875 468 884 534 q 843 335 865 401 q 783 205 821 268 q 691 94 746 143 q 562 16 637 45 q 389 -13 487 -13 q 309 -6 346 -13 q 244 14 273 0 l 139 -140 q 117 -153 133 -149 q 73 -156 100 -156 q 45 -153 56 -156 q 30 -146 34 -151 q 27 -135 26 -142 q 34 -121 28 -129 l 161 61 m 304 105 q 351 90 325 96 q 408 84 377 84 q 535 111 480 84 q 629 181 590 138 q 694 279 669 224 q 735 388 720 333 q 756 494 750 444 q 762 579 762 544 q 754 653 762 618 q 727 713 747 688 l 304 105 m 657 772 q 610 788 635 783 q 554 793 584 793 q 455 778 499 793 q 376 736 411 762 q 314 674 340 709 q 267 599 287 639 q 234 517 248 559 q 213 435 221 475 q 202 360 205 395 q 199 298 199 324 q 207 224 199 259 q 235 164 215 189 l 657 772 m 567 967 q 553 957 559 961 q 540 950 547 953 q 523 947 532 948 q 499 946 513 946 q 462 953 468 946 q 469 975 456 960 l 603 1120 q 618 1133 610 1128 q 635 1141 626 1138 q 656 1144 644 1143 q 685 1145 668 1145 q 717 1142 705 1145 q 733 1135 728 1139 q 735 1124 738 1130 q 726 1111 733 1118 l 567 967 m 228 878 z "},"Œ":{"ha":1204,"x_min":77,"x_max":1230,"o":"m 1078 75 q 1078 64 1078 71 q 1076 48 1078 57 q 1072 32 1074 40 q 1065 16 1069 23 q 1056 4 1061 9 q 1044 0 1051 0 l 627 0 q 614 2 621 0 q 603 7 608 3 q 595 17 598 11 q 593 33 593 24 q 499 -1 549 10 q 391 -13 449 -13 q 277 0 326 -13 q 193 34 228 12 q 136 85 159 56 q 101 148 114 115 q 82 216 87 181 q 77 286 77 252 q 88 417 77 348 q 122 553 98 486 q 184 681 146 620 q 277 789 222 743 q 405 863 332 835 q 572 890 479 890 q 626 887 600 890 q 676 879 652 884 q 721 866 699 873 q 758 849 742 859 q 777 871 765 865 q 801 878 789 878 l 1214 878 q 1226 871 1223 878 q 1230 854 1230 865 q 1229 843 1230 850 q 1226 827 1228 836 q 1222 811 1225 819 q 1216 796 1220 803 q 1206 785 1212 789 q 1194 781 1201 781 l 851 781 l 796 505 l 1090 505 q 1103 498 1099 505 q 1107 481 1107 492 q 1106 470 1107 477 q 1103 455 1105 463 q 1099 438 1101 447 q 1092 423 1096 430 q 1083 412 1088 416 q 1071 408 1078 408 l 777 408 l 714 97 l 1063 97 q 1075 91 1072 97 q 1078 75 1078 85 m 726 734 q 650 775 693 760 q 553 791 607 791 q 428 764 481 791 q 334 694 374 737 q 270 598 295 652 q 229 490 244 545 q 208 387 214 436 q 202 302 202 337 q 214 209 202 249 q 251 142 226 169 q 316 102 277 115 q 410 88 355 88 q 460 92 435 88 q 511 104 486 96 q 561 124 536 112 q 610 153 585 136 l 726 734 z "},"P":{"ha":718,"x_min":56,"x_max":722,"o":"m 722 671 q 713 596 722 635 q 686 519 705 557 q 640 448 668 481 q 572 389 612 414 q 480 348 532 363 q 357 334 428 334 l 237 334 l 174 17 q 169 8 172 12 q 158 2 165 4 q 139 -2 150 -1 q 111 -4 127 -4 q 84 -3 95 -4 q 67 1 73 -1 q 58 7 60 3 q 57 17 56 12 l 218 827 q 241 866 224 854 q 280 878 258 878 l 453 878 q 513 875 487 878 q 564 867 539 873 q 630 842 600 859 q 680 801 659 825 q 711 743 700 776 q 722 671 722 711 m 598 659 q 577 731 598 701 q 513 774 557 762 q 477 780 497 779 q 435 781 458 781 l 326 781 l 256 429 l 367 429 q 448 440 415 429 q 507 469 481 451 q 549 510 532 486 q 577 559 566 534 q 593 611 588 585 q 598 659 598 637 z "},"Þ":{"ha":718,"x_min":55,"x_max":692,"o":"m 692 529 q 683 445 692 487 q 654 366 673 404 q 606 295 635 328 q 537 237 576 262 q 448 199 498 213 q 329 186 397 186 l 207 186 l 173 15 q 168 6 171 9 q 157 -1 164 2 q 138 -5 149 -3 q 110 -6 126 -6 q 82 -5 93 -6 q 65 -1 71 -3 q 57 6 59 2 q 56 15 55 9 l 225 862 q 230 871 226 867 q 240 878 233 875 q 259 882 248 880 q 287 883 271 883 q 315 882 304 883 q 332 878 326 880 q 341 871 338 875 q 342 862 343 867 l 316 730 l 424 730 q 486 727 460 730 q 535 720 511 725 q 608 690 578 710 q 657 644 638 670 q 684 589 675 618 q 692 529 692 559 m 568 507 q 564 546 568 528 q 549 581 559 565 q 523 608 539 596 q 483 627 507 620 q 445 633 466 631 q 397 634 423 634 l 296 634 l 227 281 l 338 281 q 451 305 409 281 q 519 363 494 329 q 557 437 545 398 q 568 507 568 476 z "},"Q":{"ha":922,"x_min":77,"x_max":880,"o":"m 874 -50 q 873 -64 874 -56 q 870 -81 872 -72 q 865 -98 868 -90 q 858 -113 862 -106 q 849 -124 854 -120 q 838 -128 844 -128 q 819 -124 833 -128 q 787 -112 806 -120 q 745 -91 768 -104 q 696 -59 722 -77 q 645 -18 671 -41 q 594 34 619 5 q 502 -1 552 11 q 388 -13 451 -13 q 253 6 311 -13 q 156 64 195 26 q 97 159 117 102 q 77 289 77 215 q 87 414 77 347 q 120 548 97 481 q 181 677 144 615 q 274 786 219 739 q 401 862 328 834 q 570 890 475 890 q 704 870 646 890 q 801 811 762 850 q 860 715 840 772 q 880 583 880 658 q 876 509 880 549 q 863 425 872 468 q 839 337 854 382 q 803 249 824 292 q 753 167 782 206 q 686 93 724 127 q 755 35 724 56 q 809 1 786 13 q 847 -18 833 -12 q 866 -28 862 -24 q 872 -36 871 -32 q 874 -50 874 -41 m 755 575 q 744 662 755 623 q 709 730 733 702 q 647 775 686 759 q 551 791 608 791 q 428 765 481 791 q 336 696 374 739 q 271 601 297 654 q 230 494 245 548 q 209 389 215 439 q 202 300 202 338 q 213 213 202 252 q 248 146 223 174 q 311 103 272 119 q 407 88 351 88 q 529 114 476 88 q 621 180 582 139 q 685 274 659 222 q 727 381 711 327 q 748 486 742 435 q 755 575 755 536 z "},"R":{"ha":754,"x_min":56,"x_max":720,"o":"m 720 694 q 707 605 720 647 q 667 528 694 563 q 600 465 640 492 q 506 420 559 437 q 564 366 542 408 q 599 257 587 325 l 635 63 q 638 39 637 50 q 640 19 640 28 q 637 8 640 13 q 626 1 633 4 q 605 -3 618 -1 q 573 -4 592 -4 q 545 -3 555 -4 q 528 2 534 -1 q 520 11 522 5 q 516 24 517 16 l 481 231 q 466 296 476 267 q 439 346 456 325 q 394 379 421 368 q 327 391 366 391 l 249 391 l 174 17 q 169 8 172 12 q 158 2 165 4 q 139 -2 151 -1 q 111 -4 127 -4 q 84 -3 95 -4 q 66 1 73 -1 q 58 7 60 3 q 57 17 56 12 l 220 830 q 241 867 225 857 q 277 878 258 878 l 468 878 q 577 865 530 878 q 656 830 625 853 q 704 772 688 806 q 720 694 720 738 m 594 675 q 586 718 594 699 q 561 752 578 738 q 515 774 543 766 q 448 781 487 781 l 327 781 l 267 486 l 370 486 q 473 502 431 486 q 542 545 515 518 q 582 606 569 572 q 594 675 594 640 z "},"Ŕ":{"ha":754,"x_min":56,"x_max":720,"o":"m 720 694 q 707 605 720 647 q 667 528 694 563 q 600 465 640 492 q 506 420 559 437 q 564 366 542 408 q 599 257 587 325 l 635 63 q 638 39 637 50 q 640 19 640 28 q 637 8 640 13 q 626 1 633 4 q 605 -3 618 -1 q 573 -4 592 -4 q 545 -3 555 -4 q 528 2 534 -1 q 520 11 522 5 q 516 24 517 16 l 481 231 q 466 296 476 267 q 439 346 456 325 q 394 379 421 368 q 327 391 366 391 l 249 391 l 174 17 q 169 8 172 12 q 158 2 165 4 q 139 -2 151 -1 q 111 -4 127 -4 q 84 -3 95 -4 q 66 1 73 -1 q 58 7 60 3 q 57 17 56 12 l 220 830 q 241 867 225 857 q 277 878 258 878 l 468 878 q 577 865 530 878 q 656 830 625 853 q 704 772 688 806 q 720 694 720 738 m 594 675 q 586 718 594 699 q 561 752 578 738 q 515 774 543 766 q 448 781 487 781 l 327 781 l 267 486 l 370 486 q 473 502 431 486 q 542 545 515 518 q 582 606 569 572 q 594 675 594 640 m 522 967 q 509 957 515 961 q 495 950 503 953 q 478 947 488 948 q 454 946 468 946 q 417 953 423 946 q 425 975 411 960 l 558 1120 q 573 1133 566 1128 q 590 1141 581 1138 q 611 1144 600 1143 q 640 1145 623 1145 q 672 1142 661 1145 q 688 1135 684 1139 q 691 1124 693 1130 q 682 1111 688 1118 l 522 967 m 183 878 z "},"Ř":{"ha":754,"x_min":41,"x_max":738,"o":"m 720 694 q 707 605 720 647 q 667 528 694 563 q 600 465 640 492 q 506 420 559 437 q 564 366 542 408 q 599 257 587 325 l 635 63 q 638 39 637 50 q 640 19 640 28 q 637 8 640 13 q 626 1 633 4 q 605 -3 618 -1 q 573 -4 592 -4 q 545 -3 555 -4 q 528 2 534 -1 q 520 11 522 5 q 516 24 517 16 l 481 231 q 466 296 476 267 q 439 346 456 325 q 394 379 421 368 q 327 391 366 391 l 249 391 l 174 17 q 169 8 172 12 q 158 2 165 4 q 139 -2 151 -1 q 111 -4 127 -4 q 84 -3 95 -4 q 66 1 73 -1 q 58 7 60 3 q 57 17 56 12 l 220 830 q 241 867 225 857 q 277 878 258 878 l 468 878 q 577 865 530 878 q 656 830 625 853 q 704 772 688 806 q 720 694 720 738 m 594 675 q 586 718 594 699 q 561 752 578 738 q 515 774 543 766 q 448 781 487 781 l 327 781 l 267 486 l 370 486 q 473 502 431 486 q 542 545 515 518 q 582 606 569 572 q 594 675 594 640 m 543 966 q 530 956 536 960 q 515 950 524 952 q 497 947 507 948 q 473 946 487 946 q 449 947 458 946 q 434 949 440 947 q 422 956 427 951 q 413 966 418 960 l 298 1120 q 293 1132 294 1126 q 298 1140 293 1137 q 312 1144 302 1143 q 337 1145 322 1145 q 369 1144 357 1145 q 387 1142 380 1143 q 396 1137 393 1140 q 402 1130 399 1133 l 484 1013 l 614 1127 q 627 1136 621 1133 q 643 1142 633 1140 q 665 1145 652 1144 q 696 1145 678 1145 q 722 1144 713 1145 q 735 1139 732 1142 q 735 1131 738 1136 q 726 1120 733 1126 l 543 966 m 41 878 z "},"Ŗ":{"ha":754,"x_min":56,"x_max":720,"o":"m 720 694 q 707 605 720 647 q 667 528 694 563 q 600 465 640 492 q 506 420 559 437 q 564 366 542 408 q 599 257 587 325 l 635 63 q 638 39 637 50 q 640 19 640 28 q 637 8 640 13 q 626 1 633 4 q 605 -3 618 -1 q 573 -4 592 -4 q 545 -3 555 -4 q 528 2 534 -1 q 520 11 522 5 q 516 24 517 16 l 481 231 q 466 296 476 267 q 439 346 456 325 q 394 379 421 368 q 327 391 366 391 l 249 391 l 174 17 q 169 8 172 12 q 158 2 165 4 q 139 -2 151 -1 q 111 -4 127 -4 q 84 -3 95 -4 q 66 1 73 -1 q 58 7 60 3 q 57 17 56 12 l 220 830 q 241 867 225 857 q 277 878 258 878 l 468 878 q 577 865 530 878 q 656 830 625 853 q 704 772 688 806 q 720 694 720 738 m 594 675 q 586 718 594 699 q 561 752 578 738 q 515 774 543 766 q 448 781 487 781 l 327 781 l 267 486 l 370 486 q 473 502 431 486 q 542 545 515 518 q 582 606 569 572 q 594 675 594 640 m 275 -227 q 266 -237 271 -233 q 255 -243 262 -241 q 239 -247 248 -245 q 215 -248 229 -248 q 194 -246 201 -248 q 184 -241 186 -244 q 182 -232 181 -237 q 187 -219 184 -227 l 254 -82 q 262 -70 257 -75 q 275 -62 267 -64 q 295 -58 283 -59 q 325 -56 307 -56 q 352 -59 342 -56 q 366 -65 362 -61 q 368 -76 370 -70 q 362 -89 367 -81 l 275 -227 z "},"S":{"ha":628,"x_min":3,"x_max":625,"o":"m 625 811 q 624 799 625 806 q 622 784 623 791 q 617 767 620 776 q 612 752 615 759 q 604 742 608 746 q 594 738 600 738 q 573 747 587 738 q 539 765 560 755 q 490 784 519 775 q 425 793 462 793 q 352 780 383 793 q 300 746 321 768 q 268 698 279 725 q 258 642 258 671 q 271 589 258 612 q 306 549 284 567 q 354 514 327 530 q 410 481 382 498 q 467 445 439 464 q 516 400 494 425 q 550 341 537 374 q 564 265 564 309 q 540 157 564 208 q 472 69 516 106 q 367 9 429 31 q 229 -13 305 -13 q 152 -6 188 -13 q 88 12 117 1 q 40 34 60 22 q 12 54 20 45 q 3 79 3 62 q 4 91 3 83 q 7 107 5 98 q 11 124 9 116 q 17 140 14 133 q 25 152 21 147 q 36 156 30 156 q 63 145 47 156 q 103 122 79 134 q 161 98 127 109 q 239 87 194 87 q 323 101 286 87 q 386 137 361 114 q 425 190 412 159 q 439 255 439 220 q 426 308 439 286 q 392 349 413 331 q 343 383 371 368 q 288 416 316 399 q 233 452 260 433 q 184 497 205 471 q 150 555 163 522 q 137 632 137 588 q 158 732 137 686 q 218 814 179 779 q 311 870 256 850 q 434 890 366 890 q 496 885 467 890 q 549 872 526 880 q 590 855 573 864 q 613 840 607 846 q 622 827 619 833 q 625 811 625 821 z "},"Ś":{"ha":628,"x_min":3,"x_max":652,"o":"m 625 811 q 624 799 625 806 q 622 784 623 791 q 617 767 620 776 q 612 752 615 759 q 604 742 608 746 q 594 738 600 738 q 573 747 587 738 q 539 765 560 755 q 490 784 519 775 q 425 793 462 793 q 352 780 383 793 q 300 746 321 768 q 268 698 279 725 q 258 642 258 671 q 271 589 258 612 q 306 549 284 567 q 354 514 327 530 q 410 481 382 498 q 467 445 439 464 q 516 400 494 425 q 550 341 537 374 q 564 265 564 309 q 540 157 564 208 q 472 69 516 106 q 367 9 429 31 q 229 -13 305 -13 q 152 -6 188 -13 q 88 12 117 1 q 40 34 60 22 q 12 54 20 45 q 3 79 3 62 q 4 91 3 83 q 7 107 5 98 q 11 124 9 116 q 17 140 14 133 q 25 152 21 147 q 36 156 30 156 q 63 145 47 156 q 103 122 79 134 q 161 98 127 109 q 239 87 194 87 q 323 101 286 87 q 386 137 361 114 q 425 190 412 159 q 439 255 439 220 q 426 308 439 286 q 392 349 413 331 q 343 383 371 368 q 288 416 316 399 q 233 452 260 433 q 184 497 205 471 q 150 555 163 522 q 137 632 137 588 q 158 732 137 686 q 218 814 179 779 q 311 870 256 850 q 434 890 366 890 q 496 885 467 890 q 549 872 526 880 q 590 855 573 864 q 613 840 607 846 q 622 827 619 833 q 625 811 625 821 m 481 967 q 468 957 474 961 q 454 950 462 953 q 437 947 447 948 q 414 946 427 946 q 376 953 382 946 q 384 975 370 960 l 517 1120 q 533 1133 525 1128 q 550 1141 541 1138 q 571 1144 559 1143 q 600 1145 583 1145 q 631 1142 620 1145 q 648 1135 643 1139 q 650 1124 652 1130 q 641 1111 648 1118 l 481 967 m 142 878 z "},"Ŝ":{"ha":628,"x_min":-7,"x_max":654,"o":"m 625 811 q 624 799 625 806 q 622 784 623 791 q 617 767 620 776 q 612 752 615 759 q 604 742 608 746 q 594 738 600 738 q 573 747 587 738 q 539 765 560 755 q 490 784 519 775 q 425 793 462 793 q 352 780 383 793 q 300 746 321 768 q 268 698 279 725 q 258 642 258 671 q 271 589 258 612 q 306 549 284 567 q 354 514 327 530 q 410 481 382 498 q 467 445 439 464 q 516 400 494 425 q 550 341 537 374 q 564 265 564 309 q 540 157 564 208 q 472 69 516 106 q 367 9 429 31 q 229 -13 305 -13 q 152 -6 188 -13 q 88 12 117 1 q 40 34 60 22 q 12 54 20 45 q 3 79 3 62 q 4 91 3 83 q 7 107 5 98 q 11 124 9 116 q 17 140 14 133 q 25 152 21 147 q 36 156 30 156 q 63 145 47 156 q 103 122 79 134 q 161 98 127 109 q 239 87 194 87 q 323 101 286 87 q 386 137 361 114 q 425 190 412 159 q 439 255 439 220 q 426 308 439 286 q 392 349 413 331 q 343 383 371 368 q 288 416 316 399 q 233 452 260 433 q 184 497 205 471 q 150 555 163 522 q 137 632 137 588 q 158 732 137 686 q 218 814 179 779 q 311 870 256 850 q 434 890 366 890 q 496 885 467 890 q 549 872 526 880 q 590 855 573 864 q 613 840 607 846 q 622 827 619 833 q 625 811 625 821 m 650 972 q 654 960 654 965 q 649 952 654 955 q 635 947 644 949 q 610 946 625 946 q 578 947 590 946 q 560 950 567 948 q 550 955 553 951 q 544 961 547 958 l 464 1078 l 333 964 q 320 955 326 959 q 304 949 313 951 q 282 947 295 947 q 251 946 269 946 q 225 948 234 946 q 213 952 216 949 q 212 960 210 956 q 223 972 215 965 l 406 1126 q 418 1136 412 1132 q 432 1142 425 1139 q 450 1145 440 1144 q 475 1145 460 1145 q 498 1145 489 1145 q 514 1142 507 1144 q 525 1136 520 1139 q 534 1126 530 1132 l 650 972 m -7 878 z "},"Š":{"ha":628,"x_min":1,"x_max":698,"o":"m 625 811 q 624 799 625 806 q 622 784 623 791 q 617 767 620 776 q 612 752 615 759 q 604 742 608 746 q 594 738 600 738 q 573 747 587 738 q 539 765 560 755 q 490 784 519 775 q 425 793 462 793 q 352 780 383 793 q 300 746 321 768 q 268 698 279 725 q 258 642 258 671 q 271 589 258 612 q 306 549 284 567 q 354 514 327 530 q 410 481 382 498 q 467 445 439 464 q 516 400 494 425 q 550 341 537 374 q 564 265 564 309 q 540 157 564 208 q 472 69 516 106 q 367 9 429 31 q 229 -13 305 -13 q 152 -6 188 -13 q 88 12 117 1 q 40 34 60 22 q 12 54 20 45 q 3 79 3 62 q 4 91 3 83 q 7 107 5 98 q 11 124 9 116 q 17 140 14 133 q 25 152 21 147 q 36 156 30 156 q 63 145 47 156 q 103 122 79 134 q 161 98 127 109 q 239 87 194 87 q 323 101 286 87 q 386 137 361 114 q 425 190 412 159 q 439 255 439 220 q 426 308 439 286 q 392 349 413 331 q 343 383 371 368 q 288 416 316 399 q 233 452 260 433 q 184 497 205 471 q 150 555 163 522 q 137 632 137 588 q 158 732 137 686 q 218 814 179 779 q 311 870 256 850 q 434 890 366 890 q 496 885 467 890 q 549 872 526 880 q 590 855 573 864 q 613 840 607 846 q 622 827 619 833 q 625 811 625 821 m 503 966 q 490 956 496 960 q 475 950 484 952 q 457 947 467 948 q 433 946 447 946 q 409 947 418 946 q 394 949 400 947 q 382 956 387 951 q 373 966 378 960 l 258 1120 q 253 1132 254 1126 q 258 1140 253 1137 q 272 1144 262 1143 q 297 1145 282 1145 q 329 1144 317 1145 q 347 1142 340 1143 q 356 1137 353 1140 q 362 1130 359 1133 l 444 1013 l 574 1127 q 587 1136 581 1133 q 603 1142 593 1140 q 625 1145 612 1144 q 656 1145 638 1145 q 682 1144 673 1145 q 695 1139 692 1142 q 695 1131 698 1136 q 686 1120 693 1126 l 503 966 m 1 878 z "},"Ş":{"ha":628,"x_min":3,"x_max":625,"o":"m 192 -12 q 99 8 138 -5 q 40 33 60 22 q 12 54 20 45 q 3 79 3 62 q 4 91 3 83 q 7 107 5 98 q 11 124 9 116 q 17 140 14 133 q 25 152 21 147 q 36 156 30 156 q 63 145 47 156 q 103 122 79 134 q 161 98 127 109 q 239 87 194 87 q 323 101 286 87 q 386 137 361 114 q 425 190 412 159 q 439 255 439 220 q 426 308 439 286 q 392 349 413 331 q 343 383 371 368 q 288 416 316 399 q 233 452 260 433 q 184 497 205 471 q 150 555 163 522 q 137 632 137 588 q 158 732 137 686 q 218 814 179 779 q 311 870 256 850 q 434 890 366 890 q 496 885 467 890 q 549 872 526 880 q 590 855 573 864 q 613 840 607 846 q 622 827 619 833 q 625 811 625 821 q 624 799 625 806 q 622 784 623 791 q 617 767 620 776 q 612 752 615 759 q 604 742 608 746 q 594 738 600 738 q 573 747 587 738 q 539 765 560 755 q 490 784 519 775 q 425 793 462 793 q 352 780 383 793 q 300 746 321 768 q 268 698 279 725 q 258 642 258 671 q 271 589 258 612 q 306 549 284 567 q 354 514 327 530 q 410 481 382 498 q 467 445 439 464 q 516 400 494 425 q 550 341 537 374 q 564 265 564 309 q 540 157 564 208 q 474 70 516 107 q 380 14 432 33 q 286 -9 328 -5 l 296 -50 q 306 -89 302 -73 q 309 -119 309 -104 q 298 -176 309 -152 q 268 -216 288 -201 q 221 -240 249 -232 q 160 -248 194 -248 q 125 -246 142 -248 q 93 -242 107 -245 q 68 -236 79 -239 q 53 -231 58 -233 q 48 -225 50 -229 q 46 -216 46 -222 q 47 -200 46 -209 q 52 -183 49 -191 q 61 -169 56 -175 q 75 -163 66 -163 l 158 -163 q 179 -161 169 -163 q 196 -153 189 -159 q 209 -139 204 -148 q 214 -116 214 -130 q 212 -98 214 -109 q 208 -77 211 -87 l 192 -12 z "},"Ș":{"ha":628,"x_min":3,"x_max":625,"o":"m 625 811 q 624 799 625 806 q 622 784 623 791 q 617 767 620 776 q 612 752 615 759 q 604 742 608 746 q 594 738 600 738 q 573 747 587 738 q 539 765 560 755 q 490 784 519 775 q 425 793 462 793 q 352 780 383 793 q 300 746 321 768 q 268 698 279 725 q 258 642 258 671 q 271 589 258 612 q 306 549 284 567 q 354 514 327 530 q 410 481 382 498 q 467 445 439 464 q 516 400 494 425 q 550 341 537 374 q 564 265 564 309 q 540 157 564 208 q 472 69 516 106 q 367 9 429 31 q 229 -13 305 -13 q 152 -6 188 -13 q 88 12 117 1 q 40 34 60 22 q 12 54 20 45 q 3 79 3 62 q 4 91 3 83 q 7 107 5 98 q 11 124 9 116 q 17 140 14 133 q 25 152 21 147 q 36 156 30 156 q 63 145 47 156 q 103 122 79 134 q 161 98 127 109 q 239 87 194 87 q 323 101 286 87 q 386 137 361 114 q 425 190 412 159 q 439 255 439 220 q 426 308 439 286 q 392 349 413 331 q 343 383 371 368 q 288 416 316 399 q 233 452 260 433 q 184 497 205 471 q 150 555 163 522 q 137 632 137 588 q 158 732 137 686 q 218 814 179 779 q 311 870 256 850 q 434 890 366 890 q 496 885 467 890 q 549 872 526 880 q 590 855 573 864 q 613 840 607 846 q 622 827 619 833 q 625 811 625 821 m 180 -227 q 171 -237 175 -233 q 159 -243 166 -241 q 143 -247 153 -245 q 119 -248 134 -248 q 98 -246 106 -248 q 88 -241 91 -244 q 87 -232 85 -237 q 92 -219 88 -227 l 158 -82 q 166 -70 161 -75 q 179 -62 171 -64 q 199 -58 187 -59 q 229 -56 211 -56 q 257 -59 247 -56 q 270 -65 267 -61 q 273 -76 274 -70 q 267 -89 271 -81 l 180 -227 z "},"T":{"ha":677,"x_min":111,"x_max":772,"o":"m 772 854 q 772 843 772 850 q 770 827 772 836 q 766 810 768 819 q 759 794 763 801 q 749 783 755 787 q 736 779 743 779 l 490 779 l 337 18 q 332 8 336 12 q 321 2 328 4 q 302 -2 314 -1 q 274 -4 291 -4 q 246 -2 257 -4 q 229 2 235 -1 q 221 8 223 4 q 220 18 219 12 l 372 779 l 127 779 q 114 785 117 779 q 111 802 111 791 q 112 813 111 806 q 114 829 113 821 q 119 846 116 838 q 125 862 121 854 q 135 873 130 869 q 146 878 140 878 l 757 878 q 769 871 766 878 q 772 854 772 865 z "},"Ť":{"ha":677,"x_min":15,"x_max":772,"o":"m 772 854 q 772 843 772 850 q 770 827 772 836 q 766 810 768 819 q 759 794 763 801 q 749 783 755 787 q 736 779 743 779 l 490 779 l 337 18 q 332 8 336 12 q 321 2 328 4 q 302 -2 314 -1 q 274 -4 291 -4 q 246 -2 257 -4 q 229 2 235 -1 q 221 8 223 4 q 220 18 219 12 l 372 779 l 127 779 q 114 785 117 779 q 111 802 111 791 q 112 813 111 806 q 114 829 113 821 q 119 846 116 838 q 125 862 121 854 q 135 873 130 869 q 146 878 140 878 l 757 878 q 769 871 766 878 q 772 854 772 865 m 517 966 q 504 956 511 960 q 490 950 498 952 q 471 947 481 948 q 447 946 461 946 q 424 947 433 946 q 408 949 414 947 q 397 956 401 951 q 387 966 392 960 l 273 1120 q 268 1132 268 1126 q 272 1140 267 1137 q 287 1144 277 1143 q 311 1145 296 1145 q 343 1144 332 1145 q 361 1142 355 1143 q 370 1137 367 1140 q 376 1130 373 1133 l 458 1013 l 589 1127 q 601 1136 595 1133 q 617 1142 608 1140 q 639 1145 626 1144 q 671 1145 652 1145 q 696 1144 687 1145 q 709 1139 706 1142 q 710 1131 712 1136 q 700 1120 707 1126 l 517 966 m 15 878 z "},"Ț":{"ha":677,"x_min":111,"x_max":772,"o":"m 772 854 q 772 843 772 850 q 770 827 772 836 q 766 810 768 819 q 759 794 763 801 q 749 783 755 787 q 736 779 743 779 l 490 779 l 337 18 q 332 8 336 12 q 321 2 328 4 q 302 -2 314 -1 q 274 -4 291 -4 q 246 -2 257 -4 q 229 2 235 -1 q 221 8 223 4 q 220 18 219 12 l 372 779 l 127 779 q 114 785 117 779 q 111 802 111 791 q 112 813 111 806 q 114 829 113 821 q 119 846 116 838 q 125 862 121 854 q 135 873 130 869 q 146 878 140 878 l 757 878 q 769 871 766 878 q 772 854 772 865 m 224 -227 q 215 -237 219 -233 q 203 -243 210 -241 q 187 -247 197 -245 q 163 -248 178 -248 q 142 -246 150 -248 q 132 -241 135 -244 q 131 -232 130 -237 q 136 -219 132 -227 l 202 -82 q 210 -70 205 -75 q 223 -62 215 -64 q 243 -58 231 -59 q 273 -56 255 -56 q 301 -59 291 -56 q 314 -65 311 -61 q 317 -76 318 -70 q 311 -89 315 -81 l 224 -227 z "},"Ŧ":{"ha":677,"x_min":100,"x_max":772,"o":"m 433 498 l 613 498 q 625 492 621 498 q 629 474 629 486 q 629 463 629 470 q 626 448 628 456 q 622 431 625 439 q 615 416 618 423 q 606 406 611 410 q 593 401 601 401 l 414 401 l 337 17 q 332 8 336 12 q 321 1 328 4 q 303 -3 314 -1 q 274 -4 292 -4 q 247 -3 258 -4 q 229 1 235 -1 q 221 8 223 4 q 220 17 219 12 l 296 401 l 117 401 q 104 407 109 401 q 100 425 100 413 q 101 436 100 429 q 103 451 102 443 q 107 467 105 458 q 114 482 110 475 q 123 493 118 489 q 136 498 129 498 l 317 498 l 372 779 l 125 779 q 113 785 116 779 q 109 802 109 791 q 110 813 109 806 q 113 829 111 821 q 117 846 115 838 q 123 862 119 854 q 133 873 127 869 q 145 878 138 878 l 755 878 q 768 871 765 878 q 772 854 772 865 q 771 841 772 848 q 768 825 770 833 q 764 809 766 817 q 757 793 761 800 q 747 783 753 787 q 736 779 742 779 l 489 779 l 433 498 z "},"U":{"ha":891,"x_min":100,"x_max":886,"o":"m 777 319 q 725 174 760 237 q 639 71 690 112 q 524 8 588 29 q 386 -13 460 -13 q 249 8 307 -13 q 156 72 191 30 q 111 178 121 115 q 117 324 100 241 l 224 860 q 228 869 224 865 q 239 876 232 873 q 258 880 247 878 q 286 882 269 882 q 314 880 303 882 q 331 876 325 878 q 339 869 338 873 q 340 860 341 865 l 233 326 q 227 221 222 266 q 253 146 232 176 q 311 102 274 117 q 399 87 348 87 q 493 102 450 87 q 570 148 536 118 q 627 223 604 178 q 662 324 650 267 l 769 860 q 773 869 770 865 q 784 876 777 873 q 803 880 791 878 q 831 882 814 882 q 858 880 847 882 q 875 876 869 878 q 884 869 882 873 q 885 860 886 865 l 777 319 z "},"Ù":{"ha":891,"x_min":100,"x_max":886,"o":"m 777 319 q 725 174 760 237 q 639 71 690 112 q 524 8 588 29 q 386 -13 460 -13 q 249 8 307 -13 q 156 72 191 30 q 111 178 121 115 q 117 324 100 241 l 224 860 q 228 869 224 865 q 239 876 232 873 q 258 880 247 878 q 286 882 269 882 q 314 880 303 882 q 331 876 325 878 q 339 869 338 873 q 340 860 341 865 l 233 326 q 227 221 222 266 q 253 146 232 176 q 311 102 274 117 q 399 87 348 87 q 493 102 450 87 q 570 148 536 118 q 627 223 604 178 q 662 324 650 267 l 769 860 q 773 869 770 865 q 784 876 777 873 q 803 880 791 878 q 831 882 814 882 q 858 880 847 882 q 875 876 869 878 q 884 869 882 873 q 885 860 886 865 l 777 319 m 602 975 q 610 962 608 968 q 608 953 612 957 q 594 948 604 949 q 570 946 585 946 q 547 947 556 946 q 530 950 537 948 q 517 957 523 953 q 504 967 511 960 l 357 1111 q 349 1124 350 1118 q 352 1135 347 1130 q 369 1142 357 1139 q 401 1145 381 1145 q 430 1145 418 1145 q 451 1141 441 1144 q 467 1134 460 1139 q 481 1120 474 1128 l 602 975 m 109 878 z "},"Ú":{"ha":891,"x_min":100,"x_max":886,"o":"m 777 319 q 725 174 760 237 q 639 71 690 112 q 524 8 588 29 q 386 -13 460 -13 q 249 8 307 -13 q 156 72 191 30 q 111 178 121 115 q 117 324 100 241 l 224 860 q 228 869 224 865 q 239 876 232 873 q 258 880 247 878 q 286 882 269 882 q 314 880 303 882 q 331 876 325 878 q 339 869 338 873 q 340 860 341 865 l 233 326 q 227 221 222 266 q 253 146 232 176 q 311 102 274 117 q 399 87 348 87 q 493 102 450 87 q 570 148 536 118 q 627 223 604 178 q 662 324 650 267 l 769 860 q 773 869 770 865 q 784 876 777 873 q 803 880 791 878 q 831 882 814 882 q 858 880 847 882 q 875 876 869 878 q 884 869 882 873 q 885 860 886 865 l 777 319 m 616 967 q 603 957 609 961 q 589 950 597 953 q 572 947 582 948 q 549 946 562 946 q 511 953 517 946 q 519 975 505 960 l 652 1120 q 668 1133 660 1128 q 685 1141 675 1138 q 706 1144 694 1143 q 734 1145 718 1145 q 766 1142 755 1145 q 783 1135 778 1139 q 785 1124 787 1130 q 776 1111 783 1118 l 616 967 m 277 878 z "},"Û":{"ha":891,"x_min":100,"x_max":886,"o":"m 777 319 q 725 174 760 237 q 639 71 690 112 q 524 8 588 29 q 386 -13 460 -13 q 249 8 307 -13 q 156 72 191 30 q 111 178 121 115 q 117 324 100 241 l 224 860 q 228 869 224 865 q 239 876 232 873 q 258 880 247 878 q 286 882 269 882 q 314 880 303 882 q 331 876 325 878 q 339 869 338 873 q 340 860 341 865 l 233 326 q 227 221 222 266 q 253 146 232 176 q 311 102 274 117 q 399 87 348 87 q 493 102 450 87 q 570 148 536 118 q 627 223 604 178 q 662 324 650 267 l 769 860 q 773 869 770 865 q 784 876 777 873 q 803 880 791 878 q 831 882 814 882 q 858 880 847 882 q 875 876 869 878 q 884 869 882 873 q 885 860 886 865 l 777 319 m 785 972 q 790 960 790 965 q 785 952 789 955 q 770 947 780 949 q 746 946 761 946 q 714 947 726 946 q 696 950 703 948 q 686 955 689 951 q 680 961 682 958 l 600 1078 l 469 964 q 455 955 462 959 q 440 949 449 951 q 418 947 431 947 q 387 946 405 946 q 360 948 370 946 q 348 952 351 949 q 348 960 345 956 q 359 972 351 965 l 541 1126 q 554 1136 547 1132 q 568 1142 560 1139 q 586 1145 576 1144 q 610 1145 596 1145 q 634 1145 625 1145 q 649 1142 643 1144 q 661 1136 656 1139 q 670 1126 665 1132 l 785 972 m 129 878 z "},"Ũ":{"ha":891,"x_min":100,"x_max":886,"o":"m 777 319 q 725 174 760 237 q 639 71 690 112 q 524 8 588 29 q 386 -13 460 -13 q 249 8 307 -13 q 156 72 191 30 q 111 178 121 115 q 117 324 100 241 l 224 860 q 228 869 224 865 q 239 876 232 873 q 258 880 247 878 q 286 882 269 882 q 314 880 303 882 q 331 876 325 878 q 339 869 338 873 q 340 860 341 865 l 233 326 q 227 221 222 266 q 253 146 232 176 q 311 102 274 117 q 399 87 348 87 q 493 102 450 87 q 570 148 536 118 q 627 223 604 178 q 662 324 650 267 l 769 860 q 773 869 770 865 q 784 876 777 873 q 803 880 791 878 q 831 882 814 882 q 858 880 847 882 q 875 876 869 878 q 884 869 882 873 q 885 860 886 865 l 777 319 m 740 1095 q 743 1102 741 1099 q 751 1106 746 1105 q 765 1109 757 1108 q 784 1109 773 1109 q 814 1105 807 1109 q 821 1093 821 1101 q 820 1078 821 1090 q 814 1050 819 1066 q 800 1016 809 1034 q 775 982 791 998 q 735 957 760 967 q 676 947 711 947 q 615 959 641 947 q 569 986 589 971 q 529 1012 548 1000 q 488 1024 509 1024 q 445 1007 458 1024 q 429 962 432 990 q 425 955 428 958 q 417 950 422 952 q 404 948 412 949 q 385 947 396 947 q 355 950 363 947 q 347 964 347 954 q 349 985 347 971 q 357 1016 351 1000 q 373 1048 363 1031 q 399 1079 383 1065 q 439 1101 416 1093 q 494 1109 462 1109 q 554 1097 528 1109 q 600 1071 579 1085 q 640 1044 621 1057 q 681 1032 659 1032 q 721 1046 705 1032 q 740 1095 736 1060 m 125 878 z "},"Ü":{"ha":891,"x_min":100,"x_max":886,"o":"m 777 319 q 725 174 760 237 q 639 71 690 112 q 524 8 588 29 q 386 -13 460 -13 q 249 8 307 -13 q 156 72 191 30 q 111 178 121 115 q 117 324 100 241 l 224 860 q 228 869 224 865 q 239 876 232 873 q 258 880 247 878 q 286 882 269 882 q 314 880 303 882 q 331 876 325 878 q 339 869 338 873 q 340 860 341 865 l 233 326 q 227 221 222 266 q 253 146 232 176 q 311 102 274 117 q 399 87 348 87 q 493 102 450 87 q 570 148 536 118 q 627 223 604 178 q 662 324 650 267 l 769 860 q 773 869 770 865 q 784 876 777 873 q 803 880 791 878 q 831 882 814 882 q 858 880 847 882 q 875 876 869 878 q 884 869 882 873 q 885 860 886 865 l 777 319 m 791 1036 q 783 1004 788 1017 q 769 984 778 992 q 746 974 760 977 q 715 970 733 970 q 684 974 696 970 q 666 984 672 977 q 658 1004 659 992 q 660 1036 657 1017 q 668 1067 663 1055 q 682 1087 673 1080 q 704 1098 691 1095 q 736 1101 717 1101 q 767 1098 755 1101 q 785 1087 779 1095 q 793 1067 791 1080 q 791 1036 795 1055 m 511 1036 q 503 1004 509 1017 q 489 984 498 992 q 466 974 479 977 q 434 970 453 970 q 403 974 415 970 q 385 984 391 977 q 378 1004 379 992 q 380 1036 377 1017 q 388 1067 383 1055 q 402 1087 393 1080 q 424 1098 410 1095 q 456 1101 437 1101 q 487 1098 475 1101 q 505 1087 498 1095 q 513 1067 511 1080 q 511 1036 514 1055 m 146 878 z "},"Ū":{"ha":891,"x_min":100,"x_max":886,"o":"m 777 319 q 725 174 760 237 q 639 71 690 112 q 524 8 588 29 q 386 -13 460 -13 q 249 8 307 -13 q 156 72 191 30 q 111 178 121 115 q 117 324 100 241 l 224 860 q 228 869 224 865 q 239 876 232 873 q 258 880 247 878 q 286 882 269 882 q 314 880 303 882 q 331 876 325 878 q 339 869 338 873 q 340 860 341 865 l 233 326 q 227 221 222 266 q 253 146 232 176 q 311 102 274 117 q 399 87 348 87 q 493 102 450 87 q 570 148 536 118 q 627 223 604 178 q 662 324 650 267 l 769 860 q 773 869 770 865 q 784 876 777 873 q 803 880 791 878 q 831 882 814 882 q 858 880 847 882 q 875 876 869 878 q 884 869 882 873 q 885 860 886 865 l 777 319 m 792 1058 q 791 1046 792 1053 q 789 1031 791 1039 q 784 1016 787 1023 q 778 1002 781 1008 q 769 992 774 996 q 760 988 765 988 l 389 988 q 377 993 381 988 q 373 1010 373 998 q 374 1021 373 1014 q 376 1035 374 1027 q 380 1050 377 1042 q 387 1064 383 1058 q 396 1074 391 1070 q 408 1078 401 1078 l 777 1078 q 789 1073 785 1078 q 792 1058 792 1067 m 142 878 z "},"Ŭ":{"ha":891,"x_min":100,"x_max":886,"o":"m 777 319 q 725 174 760 237 q 639 71 690 112 q 524 8 588 29 q 386 -13 460 -13 q 249 8 307 -13 q 156 72 191 30 q 111 178 121 115 q 117 324 100 241 l 224 860 q 228 869 224 865 q 239 876 232 873 q 258 880 247 878 q 286 882 269 882 q 314 880 303 882 q 331 876 325 878 q 339 869 338 873 q 340 860 341 865 l 233 326 q 227 221 222 266 q 253 146 232 176 q 311 102 274 117 q 399 87 348 87 q 493 102 450 87 q 570 148 536 118 q 627 223 604 178 q 662 324 650 267 l 769 860 q 773 869 770 865 q 784 876 777 873 q 803 880 791 878 q 831 882 814 882 q 858 880 847 882 q 875 876 869 878 q 884 869 882 873 q 885 860 886 865 l 777 319 m 779 1133 q 776 1108 779 1125 q 764 1070 772 1091 q 740 1028 755 1050 q 703 988 726 1006 q 647 958 680 970 q 571 946 614 946 q 497 957 526 946 q 450 985 468 967 q 425 1026 433 1002 q 418 1075 418 1049 q 419 1092 418 1082 q 421 1111 420 1101 q 425 1128 422 1120 q 430 1139 427 1136 q 445 1145 435 1143 q 468 1147 455 1147 q 487 1146 479 1147 q 499 1143 495 1145 q 506 1138 504 1141 q 507 1131 507 1135 q 506 1116 507 1124 q 505 1097 505 1107 q 509 1069 505 1082 q 520 1047 512 1056 q 542 1033 528 1038 q 578 1028 556 1028 q 616 1034 597 1028 q 649 1050 634 1039 q 676 1081 665 1062 q 695 1128 688 1100 q 700 1136 696 1133 q 708 1142 703 1140 q 722 1146 713 1145 q 742 1147 730 1147 q 761 1146 754 1147 q 772 1144 768 1145 q 778 1139 777 1142 q 779 1133 779 1136 m 172 878 z "},"Ů":{"ha":891,"x_min":100,"x_max":886,"o":"m 777 319 q 725 174 760 237 q 639 71 690 112 q 524 8 588 29 q 386 -13 460 -13 q 249 8 307 -13 q 156 72 191 30 q 111 178 121 115 q 117 324 100 241 l 224 860 q 228 869 224 865 q 239 876 232 873 q 258 880 247 878 q 286 882 269 882 q 314 880 303 882 q 331 876 325 878 q 339 869 338 873 q 340 860 341 865 l 233 326 q 227 221 222 266 q 253 146 232 176 q 311 102 274 117 q 399 87 348 87 q 493 102 450 87 q 570 148 536 118 q 627 223 604 178 q 662 324 650 267 l 769 860 q 773 869 770 865 q 784 876 777 873 q 803 880 791 878 q 831 882 814 882 q 858 880 847 882 q 875 876 869 878 q 884 869 882 873 q 885 860 886 865 l 777 319 m 727 1065 q 716 1009 727 1036 q 685 964 705 983 q 637 933 665 945 q 572 922 608 922 q 516 931 539 922 q 478 956 493 941 q 456 990 463 970 q 450 1030 450 1009 q 454 1069 450 1050 q 468 1103 458 1087 q 490 1133 477 1119 q 520 1156 503 1146 q 559 1170 538 1165 q 604 1175 580 1175 q 660 1166 637 1175 q 699 1141 684 1157 q 720 1106 713 1126 q 727 1065 727 1086 m 651 1057 q 648 1078 651 1067 q 638 1097 645 1088 q 621 1110 632 1105 q 594 1115 610 1115 q 565 1109 578 1115 q 543 1093 551 1103 q 530 1069 534 1082 q 526 1039 526 1055 q 528 1018 526 1029 q 537 1000 531 1008 q 555 987 544 992 q 582 983 566 983 q 611 988 598 983 q 633 1004 624 994 q 646 1027 642 1014 q 651 1057 651 1041 m 213 878 z "},"Ű":{"ha":891,"x_min":100,"x_max":916,"o":"m 777 319 q 725 174 760 237 q 639 71 690 112 q 524 8 588 29 q 386 -13 460 -13 q 249 8 307 -13 q 156 72 191 30 q 111 178 121 115 q 117 324 100 241 l 224 860 q 228 869 224 865 q 239 876 232 873 q 258 880 247 878 q 286 882 269 882 q 314 880 303 882 q 331 876 325 878 q 339 869 338 873 q 340 860 341 865 l 233 326 q 227 221 222 266 q 253 146 232 176 q 311 102 274 117 q 399 87 348 87 q 493 102 450 87 q 570 148 536 118 q 627 223 604 178 q 662 324 650 267 l 769 860 q 773 869 770 865 q 784 876 777 873 q 803 880 791 878 q 831 882 814 882 q 858 880 847 882 q 875 876 869 878 q 884 869 882 873 q 885 860 886 865 l 777 319 m 747 961 q 736 952 741 956 q 725 948 732 949 q 709 946 718 947 q 686 946 700 946 q 664 947 673 946 q 651 951 655 949 q 646 959 646 954 q 649 968 645 963 l 777 1128 q 787 1137 782 1133 q 801 1143 793 1141 q 823 1146 810 1145 q 854 1147 836 1147 q 891 1145 878 1147 q 910 1139 904 1143 q 915 1130 916 1135 q 908 1119 913 1125 l 747 961 m 489 960 q 478 952 484 956 q 466 948 473 949 q 449 946 459 947 q 427 946 439 946 q 397 952 404 946 q 397 969 389 959 l 519 1128 q 529 1137 524 1133 q 543 1143 534 1141 q 562 1146 551 1145 q 591 1147 574 1147 q 631 1145 616 1147 q 652 1140 646 1143 q 656 1130 659 1136 q 646 1116 654 1124 l 489 960 m 161 878 z "},"Ų":{"ha":891,"x_min":100,"x_max":886,"o":"m 778 324 q 754 239 769 280 q 718 162 740 199 q 666 96 696 126 q 596 40 636 65 q 565 20 579 30 q 537 0 551 10 q 511 -21 524 -10 q 484 -43 498 -32 l 441 -80 q 413 -110 422 -97 q 404 -136 404 -122 q 414 -156 404 -149 q 446 -163 423 -163 l 524 -163 q 536 -167 533 -163 q 538 -177 538 -170 q 537 -191 538 -183 q 534 -205 536 -198 q 530 -218 532 -212 q 525 -227 527 -224 q 508 -235 520 -231 q 479 -241 495 -239 q 447 -246 464 -244 q 419 -248 431 -248 q 360 -241 385 -248 q 320 -224 336 -235 q 297 -196 304 -212 q 290 -161 290 -180 q 308 -99 290 -127 q 363 -41 327 -71 l 401 -9 q 387 -12 394 -12 q 373 -12 380 -12 q 247 9 302 -12 q 157 72 191 30 q 111 176 122 113 q 116 323 100 239 l 224 861 q 228 869 224 865 q 239 876 232 873 q 258 880 247 879 q 286 882 269 882 q 314 880 303 882 q 331 876 325 879 q 339 869 338 873 q 340 861 341 865 l 233 326 q 252 147 210 208 q 400 87 294 87 q 493 102 450 87 q 570 148 536 118 q 627 222 604 178 q 662 323 650 267 l 769 861 q 773 869 770 865 q 784 876 777 873 q 803 880 791 879 q 831 882 814 882 q 858 880 847 882 q 875 876 869 879 q 884 869 882 873 q 885 861 886 865 l 778 324 z "},"V":{"ha":788,"x_min":131,"x_max":873,"o":"m 412 20 q 402 8 408 13 q 388 1 397 3 q 366 -3 379 -2 q 332 -4 352 -4 q 296 -3 310 -4 q 273 1 281 -2 q 261 8 265 3 q 257 21 258 14 l 133 842 q 131 863 131 854 q 137 875 132 871 q 155 880 143 879 q 188 882 167 882 q 220 881 208 882 q 239 877 232 880 q 248 869 245 874 q 252 858 250 865 l 354 120 l 355 120 l 746 859 q 754 870 749 865 q 766 877 758 874 q 786 881 773 880 q 819 882 798 882 q 852 880 840 882 q 869 873 864 878 q 871 860 873 869 q 861 836 869 850 l 412 20 z "},"W":{"ha":1236,"x_min":149,"x_max":1303,"o":"m 899 25 q 888 10 895 16 q 871 1 882 4 q 847 -3 861 -2 q 813 -4 833 -4 q 778 -3 792 -4 q 755 1 764 -2 q 742 9 746 4 q 737 24 738 15 l 685 688 l 684 688 l 384 25 q 374 10 380 16 q 359 1 368 4 q 335 -3 350 -2 q 300 -4 321 -4 q 262 -3 277 -4 q 238 1 247 -2 q 224 10 229 4 q 220 26 220 16 l 150 839 q 150 861 149 852 q 156 874 151 870 q 174 880 162 879 q 208 882 186 882 q 238 880 224 882 q 258 876 252 879 q 267 866 264 872 q 269 850 269 860 l 317 122 l 319 122 l 654 856 q 662 868 657 863 q 673 876 666 873 q 693 880 681 879 q 727 882 706 882 q 756 881 745 882 q 773 877 767 880 q 781 868 779 873 q 783 856 783 863 l 839 122 l 840 122 l 1181 859 q 1187 870 1183 865 q 1199 877 1192 874 q 1220 881 1207 880 q 1251 882 1232 882 q 1282 880 1271 882 q 1299 873 1294 878 q 1301 860 1303 869 q 1293 836 1299 850 l 899 25 z "},"Ẁ":{"ha":1236,"x_min":149,"x_max":1303,"o":"m 899 25 q 888 10 895 16 q 871 1 882 4 q 847 -3 861 -2 q 813 -4 833 -4 q 778 -3 792 -4 q 755 1 764 -2 q 742 9 746 4 q 737 24 738 15 l 685 688 l 684 688 l 384 25 q 374 10 380 16 q 359 1 368 4 q 335 -3 350 -2 q 300 -4 321 -4 q 262 -3 277 -4 q 238 1 247 -2 q 224 10 229 4 q 220 26 220 16 l 150 839 q 150 861 149 852 q 156 874 151 870 q 174 880 162 879 q 208 882 186 882 q 238 880 224 882 q 258 876 252 879 q 267 866 264 872 q 269 850 269 860 l 317 122 l 319 122 l 654 856 q 662 868 657 863 q 673 876 666 873 q 693 880 681 879 q 727 882 706 882 q 756 881 745 882 q 773 877 767 880 q 781 868 779 873 q 783 856 783 863 l 839 122 l 840 122 l 1181 859 q 1187 870 1183 865 q 1199 877 1192 874 q 1220 881 1207 880 q 1251 882 1232 882 q 1282 880 1271 882 q 1299 873 1294 878 q 1301 860 1303 869 q 1293 836 1299 850 l 899 25 m 780 975 q 788 962 786 968 q 785 953 789 957 q 772 948 781 949 q 748 946 763 946 q 724 947 734 946 q 708 950 715 948 q 694 957 701 953 q 682 967 688 960 l 534 1111 q 526 1124 528 1118 q 530 1135 525 1130 q 547 1142 534 1139 q 579 1145 559 1145 q 608 1145 596 1145 q 629 1141 619 1144 q 645 1134 638 1139 q 659 1120 652 1128 l 780 975 m 287 878 z "},"Ẃ":{"ha":1236,"x_min":149,"x_max":1303,"o":"m 899 25 q 888 10 895 16 q 871 1 882 4 q 847 -3 861 -2 q 813 -4 833 -4 q 778 -3 792 -4 q 755 1 764 -2 q 742 9 746 4 q 737 24 738 15 l 685 688 l 684 688 l 384 25 q 374 10 380 16 q 359 1 368 4 q 335 -3 350 -2 q 300 -4 321 -4 q 262 -3 277 -4 q 238 1 247 -2 q 224 10 229 4 q 220 26 220 16 l 150 839 q 150 861 149 852 q 156 874 151 870 q 174 880 162 879 q 208 882 186 882 q 238 880 224 882 q 258 876 252 879 q 267 866 264 872 q 269 850 269 860 l 317 122 l 319 122 l 654 856 q 662 868 657 863 q 673 876 666 873 q 693 880 681 879 q 727 882 706 882 q 756 881 745 882 q 773 877 767 880 q 781 868 779 873 q 783 856 783 863 l 839 122 l 840 122 l 1181 859 q 1187 870 1183 865 q 1199 877 1192 874 q 1220 881 1207 880 q 1251 882 1232 882 q 1282 880 1271 882 q 1299 873 1294 878 q 1301 860 1303 869 q 1293 836 1299 850 l 899 25 m 798 967 q 785 957 791 961 q 771 950 779 953 q 754 947 764 948 q 730 946 744 946 q 693 953 699 946 q 701 975 687 960 l 834 1120 q 849 1133 842 1128 q 866 1141 857 1138 q 887 1144 876 1143 q 916 1145 899 1145 q 948 1142 937 1145 q 964 1135 960 1139 q 967 1124 969 1130 q 958 1111 964 1118 l 798 967 m 459 878 z "},"Ŵ":{"ha":1236,"x_min":149,"x_max":1303,"o":"m 899 25 q 888 10 895 16 q 871 1 882 4 q 847 -3 861 -2 q 813 -4 833 -4 q 778 -3 792 -4 q 755 1 764 -2 q 742 9 746 4 q 737 24 738 15 l 685 688 l 684 688 l 384 25 q 374 10 380 16 q 359 1 368 4 q 335 -3 350 -2 q 300 -4 321 -4 q 262 -3 277 -4 q 238 1 247 -2 q 224 10 229 4 q 220 26 220 16 l 150 839 q 150 861 149 852 q 156 874 151 870 q 174 880 162 879 q 208 882 186 882 q 238 880 224 882 q 258 876 252 879 q 267 866 264 872 q 269 850 269 860 l 317 122 l 319 122 l 654 856 q 662 868 657 863 q 673 876 666 873 q 693 880 681 879 q 727 882 706 882 q 756 881 745 882 q 773 877 767 880 q 781 868 779 873 q 783 856 783 863 l 839 122 l 840 122 l 1181 859 q 1187 870 1183 865 q 1199 877 1192 874 q 1220 881 1207 880 q 1251 882 1232 882 q 1282 880 1271 882 q 1299 873 1294 878 q 1301 860 1303 869 q 1293 836 1299 850 l 899 25 m 964 972 q 968 960 968 965 q 963 952 968 955 q 949 947 958 949 q 924 946 939 946 q 892 947 904 946 q 874 950 881 948 q 864 955 867 951 q 858 961 861 958 l 778 1078 l 647 964 q 634 955 640 959 q 618 949 627 951 q 596 947 609 947 q 565 946 583 946 q 539 948 548 946 q 527 952 530 949 q 526 960 524 956 q 537 972 529 965 l 720 1126 q 732 1136 726 1132 q 746 1142 739 1139 q 764 1145 754 1144 q 789 1145 774 1145 q 812 1145 803 1145 q 828 1142 821 1144 q 839 1136 834 1139 q 848 1126 844 1132 l 964 972 m 307 878 z "},"Ẅ":{"ha":1236,"x_min":149,"x_max":1303,"o":"m 899 25 q 888 10 895 16 q 871 1 882 4 q 847 -3 861 -2 q 813 -4 833 -4 q 778 -3 792 -4 q 755 1 764 -2 q 742 9 746 4 q 737 24 738 15 l 685 688 l 684 688 l 384 25 q 374 10 380 16 q 359 1 368 4 q 335 -3 350 -2 q 300 -4 321 -4 q 262 -3 277 -4 q 238 1 247 -2 q 224 10 229 4 q 220 26 220 16 l 150 839 q 150 861 149 852 q 156 874 151 870 q 174 880 162 879 q 208 882 186 882 q 238 880 224 882 q 258 876 252 879 q 267 866 264 872 q 269 850 269 860 l 317 122 l 319 122 l 654 856 q 662 868 657 863 q 673 876 666 873 q 693 880 681 879 q 727 882 706 882 q 756 881 745 882 q 773 877 767 880 q 781 868 779 873 q 783 856 783 863 l 839 122 l 840 122 l 1181 859 q 1187 870 1183 865 q 1199 877 1192 874 q 1220 881 1207 880 q 1251 882 1232 882 q 1282 880 1271 882 q 1299 873 1294 878 q 1301 860 1303 869 q 1293 836 1299 850 l 899 25 m 968 1036 q 960 1004 965 1017 q 946 984 955 992 q 923 974 937 977 q 892 970 910 970 q 861 974 873 970 q 843 984 849 977 q 835 1004 836 992 q 837 1036 834 1017 q 845 1067 840 1055 q 859 1087 850 1080 q 881 1098 868 1095 q 913 1101 894 1101 q 944 1098 932 1101 q 962 1087 956 1095 q 970 1067 968 1080 q 968 1036 972 1055 m 688 1036 q 680 1004 686 1017 q 666 984 675 992 q 643 974 656 977 q 611 970 630 970 q 580 974 592 970 q 562 984 568 977 q 555 1004 556 992 q 557 1036 554 1017 q 565 1067 560 1055 q 579 1087 570 1080 q 601 1098 587 1095 q 633 1101 614 1101 q 664 1098 652 1101 q 682 1087 675 1095 q 690 1067 688 1080 q 688 1036 691 1055 m 323 878 z "},"X":{"ha":721,"x_min":-32,"x_max":786,"o":"m 462 448 l 626 43 q 631 19 631 28 q 625 4 631 9 q 605 -2 618 -1 q 567 -4 591 -4 q 536 -3 547 -4 q 518 1 524 -2 q 509 7 511 3 q 504 17 506 11 l 371 369 l 105 17 q 95 7 100 11 q 82 0 90 3 q 61 -3 74 -2 q 28 -4 48 -4 q -8 -2 6 -4 q -27 4 -22 -1 q -28 18 -32 9 q -14 42 -25 27 l 311 452 l 161 836 q 156 859 155 850 q 163 873 156 868 q 184 880 170 878 q 221 882 198 882 q 251 881 239 882 q 268 876 262 880 q 278 868 275 873 q 284 854 281 863 l 404 534 l 651 861 q 661 870 656 866 q 673 877 665 875 q 694 881 682 880 q 726 882 706 882 q 762 880 748 882 q 781 873 776 878 q 783 859 786 868 q 770 836 780 850 l 462 448 z "},"Y":{"ha":677,"x_min":130,"x_max":766,"o":"m 401 341 l 337 17 q 332 8 336 12 q 321 2 328 4 q 302 -2 313 -1 q 274 -4 290 -4 q 246 -2 257 -4 q 229 2 235 -1 q 221 8 223 4 q 220 17 219 12 l 285 341 l 136 836 q 131 860 132 851 q 135 873 130 869 q 153 880 140 878 q 189 882 165 882 q 219 881 208 882 q 237 876 231 880 q 247 868 244 873 q 253 854 250 863 l 323 613 q 345 532 335 571 q 363 451 354 493 l 364 451 q 414 532 389 492 q 467 612 439 572 l 633 857 q 642 869 637 864 q 655 877 647 873 q 675 881 663 880 q 708 882 688 882 q 745 879 732 882 q 762 871 758 877 q 762 857 766 866 q 749 836 758 848 l 401 341 z "},"Ỳ":{"ha":677,"x_min":40,"x_max":766,"o":"m 401 341 l 337 17 q 332 8 336 12 q 321 2 328 4 q 302 -2 313 -1 q 274 -4 290 -4 q 246 -2 257 -4 q 229 2 235 -1 q 221 8 223 4 q 220 17 219 12 l 285 341 l 136 836 q 131 860 132 851 q 135 873 130 869 q 153 880 140 878 q 189 882 165 882 q 219 881 208 882 q 237 876 231 880 q 247 868 244 873 q 253 854 250 863 l 323 613 q 345 532 335 571 q 363 451 354 493 l 364 451 q 414 532 389 492 q 467 612 439 572 l 633 857 q 642 869 637 864 q 655 877 647 873 q 675 881 663 880 q 708 882 688 882 q 745 879 732 882 q 762 871 758 877 q 762 857 766 866 q 749 836 758 848 l 401 341 m 533 975 q 541 962 539 968 q 538 953 543 957 q 525 948 534 949 q 501 946 516 946 q 477 947 487 946 q 461 950 468 948 q 448 957 454 953 q 435 967 441 960 l 288 1111 q 279 1124 281 1118 q 283 1135 278 1130 q 300 1142 288 1139 q 332 1145 312 1145 q 361 1145 349 1145 q 382 1141 372 1144 q 398 1134 391 1139 q 412 1120 405 1128 l 533 975 m 40 878 z "},"Ý":{"ha":677,"x_min":130,"x_max":766,"o":"m 401 341 l 337 17 q 332 8 336 12 q 321 2 328 4 q 302 -2 313 -1 q 274 -4 290 -4 q 246 -2 257 -4 q 229 2 235 -1 q 221 8 223 4 q 220 17 219 12 l 285 341 l 136 836 q 131 860 132 851 q 135 873 130 869 q 153 880 140 878 q 189 882 165 882 q 219 881 208 882 q 237 876 231 880 q 247 868 244 873 q 253 854 250 863 l 323 613 q 345 532 335 571 q 363 451 354 493 l 364 451 q 414 532 389 492 q 467 612 439 572 l 633 857 q 642 869 637 864 q 655 877 647 873 q 675 881 663 880 q 708 882 688 882 q 745 879 732 882 q 762 871 758 877 q 762 857 766 866 q 749 836 758 848 l 401 341 m 557 967 q 544 957 550 961 q 530 950 538 953 q 513 947 523 948 q 490 946 503 946 q 452 953 458 946 q 460 975 446 960 l 593 1120 q 609 1133 601 1128 q 626 1141 616 1138 q 647 1144 635 1143 q 675 1145 659 1145 q 707 1142 696 1145 q 724 1135 719 1139 q 726 1124 728 1130 q 717 1111 724 1118 l 557 967 m 218 878 z "},"Ŷ":{"ha":677,"x_min":52,"x_max":766,"o":"m 401 341 l 337 17 q 332 8 336 12 q 321 2 328 4 q 302 -2 313 -1 q 274 -4 290 -4 q 246 -2 257 -4 q 229 2 235 -1 q 221 8 223 4 q 220 17 219 12 l 285 341 l 136 836 q 131 860 132 851 q 135 873 130 869 q 153 880 140 878 q 189 882 165 882 q 219 881 208 882 q 237 876 231 880 q 247 868 244 873 q 253 854 250 863 l 323 613 q 345 532 335 571 q 363 451 354 493 l 364 451 q 414 532 389 492 q 467 612 439 572 l 633 857 q 642 869 637 864 q 655 877 647 873 q 675 881 663 880 q 708 882 688 882 q 745 879 732 882 q 762 871 758 877 q 762 857 766 866 q 749 836 758 848 l 401 341 m 709 972 q 713 960 713 965 q 708 952 713 955 q 694 947 703 949 q 669 946 684 946 q 637 947 649 946 q 619 950 626 948 q 609 955 612 951 q 603 961 606 958 l 523 1078 l 392 964 q 379 955 385 959 q 363 949 372 951 q 341 947 354 947 q 310 946 328 946 q 284 948 293 946 q 272 952 275 949 q 271 960 269 956 q 282 972 274 965 l 465 1126 q 477 1136 471 1132 q 491 1142 484 1139 q 509 1145 499 1144 q 534 1145 519 1145 q 557 1145 548 1145 q 573 1142 566 1144 q 584 1136 579 1139 q 593 1126 589 1132 l 709 972 m 52 878 z "},"Ÿ":{"ha":677,"x_min":71,"x_max":766,"o":"m 401 341 l 337 17 q 332 8 336 12 q 321 2 328 4 q 302 -2 313 -1 q 274 -4 290 -4 q 246 -2 257 -4 q 229 2 235 -1 q 221 8 223 4 q 220 17 219 12 l 285 341 l 136 836 q 131 860 132 851 q 135 873 130 869 q 153 880 140 878 q 189 882 165 882 q 219 881 208 882 q 237 876 231 880 q 247 868 244 873 q 253 854 250 863 l 323 613 q 345 532 335 571 q 363 451 354 493 l 364 451 q 414 532 389 492 q 467 612 439 572 l 633 857 q 642 869 637 864 q 655 877 647 873 q 675 881 663 880 q 708 882 688 882 q 745 879 732 882 q 762 871 758 877 q 762 857 766 866 q 749 836 758 848 l 401 341 m 716 1036 q 708 1004 713 1017 q 693 984 703 992 q 671 974 684 977 q 640 970 658 970 q 609 974 621 970 q 590 984 597 977 q 583 1004 584 992 q 585 1036 582 1017 q 593 1067 588 1055 q 607 1087 597 1080 q 629 1098 616 1095 q 661 1101 642 1101 q 691 1098 680 1101 q 710 1087 703 1095 q 718 1067 716 1080 q 716 1036 720 1055 m 436 1036 q 428 1004 433 1017 q 413 984 422 992 q 391 974 404 977 q 359 970 378 970 q 328 974 340 970 q 310 984 316 977 q 303 1004 304 992 q 305 1036 302 1017 q 313 1067 308 1055 q 327 1087 318 1080 q 348 1098 335 1095 q 381 1101 361 1101 q 411 1098 399 1101 q 430 1087 423 1095 q 437 1067 436 1080 q 436 1036 439 1055 m 71 878 z "},"Z":{"ha":650,"x_min":-16,"x_max":707,"o":"m 677 878 q 699 870 690 878 q 707 848 707 862 q 704 823 707 840 q 697 793 701 805 q 693 781 695 787 q 686 769 690 776 q 674 752 681 762 q 655 729 667 743 l 130 98 l 554 98 q 566 93 563 98 q 570 76 570 87 q 569 65 570 72 q 567 49 568 58 q 563 32 566 41 q 557 16 561 23 q 548 4 553 9 q 535 0 543 0 l 16 0 q -8 9 0 0 q -16 31 -16 18 q -15 43 -16 35 q -13 58 -14 50 q -9 75 -11 66 q -5 87 -7 83 q 0 98 -3 92 q 7 111 3 104 q 19 127 12 117 q 37 149 26 136 l 562 780 l 166 780 q 149 804 149 780 q 150 814 149 807 q 152 829 151 821 q 156 846 154 838 q 163 862 159 855 q 173 873 167 869 q 186 878 179 878 l 677 878 z "},"Ź":{"ha":650,"x_min":-16,"x_max":707,"o":"m 677 878 q 699 870 690 878 q 707 848 707 862 q 704 823 707 840 q 697 793 701 805 q 693 781 695 787 q 686 769 690 776 q 674 752 681 762 q 655 729 667 743 l 130 98 l 554 98 q 566 93 563 98 q 570 76 570 87 q 569 65 570 72 q 567 49 568 58 q 563 32 566 41 q 557 16 561 23 q 548 4 553 9 q 535 0 543 0 l 16 0 q -8 9 0 0 q -16 31 -16 18 q -15 43 -16 35 q -13 58 -14 50 q -9 75 -11 66 q -5 87 -7 83 q 0 98 -3 92 q 7 111 3 104 q 19 127 12 117 q 37 149 26 136 l 562 780 l 166 780 q 149 804 149 780 q 150 814 149 807 q 152 829 151 821 q 156 846 154 838 q 163 862 159 855 q 173 873 167 869 q 186 878 179 878 l 677 878 m 496 967 q 482 957 488 961 q 469 950 476 953 q 451 947 461 948 q 428 946 441 946 q 391 953 397 946 q 398 975 385 960 l 532 1120 q 547 1133 539 1128 q 564 1141 555 1138 q 585 1144 573 1143 q 614 1145 597 1145 q 646 1142 634 1145 q 662 1135 657 1139 q 664 1124 667 1130 q 655 1111 662 1118 l 496 967 m 157 878 z "},"Ž":{"ha":650,"x_min":-16,"x_max":711,"o":"m 677 878 q 699 870 690 878 q 707 848 707 862 q 704 823 707 840 q 697 793 701 805 q 693 781 695 787 q 686 769 690 776 q 674 752 681 762 q 655 729 667 743 l 130 98 l 554 98 q 566 93 563 98 q 570 76 570 87 q 569 65 570 72 q 567 49 568 58 q 563 32 566 41 q 557 16 561 23 q 548 4 553 9 q 535 0 543 0 l 16 0 q -8 9 0 0 q -16 31 -16 18 q -15 43 -16 35 q -13 58 -14 50 q -9 75 -11 66 q -5 87 -7 83 q 0 98 -3 92 q 7 111 3 104 q 19 127 12 117 q 37 149 26 136 l 562 780 l 166 780 q 149 804 149 780 q 150 814 149 807 q 152 829 151 821 q 156 846 154 838 q 163 862 159 855 q 173 873 167 869 q 186 878 179 878 l 677 878 m 515 966 q 503 956 509 960 q 488 950 496 952 q 470 947 480 948 q 446 946 460 946 q 422 947 431 946 q 407 949 413 947 q 395 956 400 951 q 386 966 391 960 l 271 1120 q 266 1132 267 1126 q 271 1140 266 1137 q 285 1144 275 1143 q 310 1145 295 1145 q 342 1144 330 1145 q 359 1142 353 1143 q 369 1137 366 1140 q 375 1130 372 1133 l 456 1013 l 587 1127 q 600 1136 593 1133 q 615 1142 606 1140 q 638 1145 625 1144 q 669 1145 651 1145 q 695 1144 686 1145 q 708 1139 705 1142 q 708 1131 711 1136 q 699 1120 706 1126 l 515 966 m 14 878 z "},"Ż":{"ha":650,"x_min":-16,"x_max":707,"o":"m 677 878 q 699 870 690 878 q 707 848 707 862 q 704 823 707 840 q 697 793 701 805 q 693 781 695 787 q 686 769 690 776 q 674 752 681 762 q 655 729 667 743 l 130 98 l 554 98 q 566 93 563 98 q 570 76 570 87 q 569 65 570 72 q 567 49 568 58 q 563 32 566 41 q 557 16 561 23 q 548 4 553 9 q 535 0 543 0 l 16 0 q -8 9 0 0 q -16 31 -16 18 q -15 43 -16 35 q -13 58 -14 50 q -9 75 -11 66 q -5 87 -7 83 q 0 98 -3 92 q 7 111 3 104 q 19 127 12 117 q 37 149 26 136 l 562 780 l 166 780 q 149 804 149 780 q 150 814 149 807 q 152 829 151 821 q 156 846 154 838 q 163 862 159 855 q 173 873 167 869 q 186 878 179 878 l 677 878 m 398 1036 q 407 1066 401 1054 q 423 1087 413 1079 q 446 1098 433 1095 q 479 1102 460 1102 q 510 1098 498 1102 q 528 1087 522 1095 q 535 1066 534 1079 q 532 1036 536 1054 q 523 1006 529 1019 q 508 985 517 994 q 485 974 498 977 q 452 970 471 970 q 421 974 433 970 q 403 985 409 977 q 396 1006 397 994 q 398 1036 395 1019 m 165 878 z "},"a":{"ha":714,"x_min":55,"x_max":673,"o":"m 551 17 q 536 1 548 5 q 495 -4 524 -4 q 473 -3 481 -4 q 458 1 464 -1 q 451 7 453 3 q 451 17 449 11 l 473 132 q 441 85 465 111 q 387 37 418 59 q 317 1 355 16 q 238 -13 278 -13 q 148 6 184 -13 q 92 56 113 25 q 63 127 71 87 q 55 208 55 166 q 62 294 55 245 q 85 392 69 342 q 126 490 101 442 q 188 575 152 537 q 271 635 224 612 q 379 658 319 658 q 483 633 439 658 q 559 566 526 609 l 572 628 q 588 644 575 639 q 628 648 601 648 q 651 647 642 648 q 665 644 660 646 q 672 637 671 641 q 673 628 673 633 l 551 17 m 530 468 q 461 538 498 515 q 378 562 424 562 q 312 544 341 562 q 259 498 282 527 q 220 434 237 470 q 193 359 203 397 q 177 283 182 320 q 172 216 172 245 q 176 169 172 192 q 190 126 180 145 q 219 95 201 106 q 267 83 237 83 q 341 103 304 83 q 412 161 379 124 q 469 247 444 197 q 507 356 494 296 l 530 468 z "},"à":{"ha":714,"x_min":55,"x_max":673,"o":"m 551 17 q 536 1 548 5 q 495 -4 524 -4 q 473 -3 481 -4 q 458 1 464 -1 q 451 7 453 3 q 451 17 449 11 l 473 132 q 441 85 465 111 q 387 37 418 59 q 317 1 355 16 q 238 -13 278 -13 q 148 6 184 -13 q 92 56 113 25 q 63 127 71 87 q 55 208 55 166 q 62 294 55 245 q 85 392 69 342 q 126 490 101 442 q 188 575 152 537 q 271 635 224 612 q 379 658 319 658 q 483 633 439 658 q 559 566 526 609 l 572 628 q 588 644 575 639 q 628 648 601 648 q 651 647 642 648 q 665 644 660 646 q 672 637 671 641 q 673 628 673 633 l 551 17 m 530 468 q 461 538 498 515 q 378 562 424 562 q 312 544 341 562 q 259 498 282 527 q 220 434 237 470 q 193 359 203 397 q 177 283 182 320 q 172 216 172 245 q 176 169 172 192 q 190 126 180 145 q 219 95 201 106 q 267 83 237 83 q 341 103 304 83 q 412 161 379 124 q 469 247 444 197 q 507 356 494 296 l 530 468 m 497 769 q 503 756 502 762 q 500 747 504 751 q 487 742 496 744 q 463 740 478 740 q 441 741 450 740 q 426 744 432 741 q 415 750 420 746 q 406 762 410 755 l 290 920 q 284 931 285 926 q 289 942 284 937 q 306 948 294 946 q 338 951 318 951 q 365 950 354 951 q 383 946 376 949 q 396 938 391 943 q 406 926 401 933 l 497 769 m 85 645 z "},"á":{"ha":714,"x_min":55,"x_max":673,"o":"m 551 17 q 536 1 548 5 q 495 -4 524 -4 q 473 -3 481 -4 q 458 1 464 -1 q 451 7 453 3 q 451 17 449 11 l 473 132 q 441 85 465 111 q 387 37 418 59 q 317 1 355 16 q 238 -13 278 -13 q 148 6 184 -13 q 92 56 113 25 q 63 127 71 87 q 55 208 55 166 q 62 294 55 245 q 85 392 69 342 q 126 490 101 442 q 188 575 152 537 q 271 635 224 612 q 379 658 319 658 q 483 633 439 658 q 559 566 526 609 l 572 628 q 588 644 575 639 q 628 648 601 648 q 651 647 642 648 q 665 644 660 646 q 672 637 671 641 q 673 628 673 633 l 551 17 m 530 468 q 461 538 498 515 q 378 562 424 562 q 312 544 341 562 q 259 498 282 527 q 220 434 237 470 q 193 359 203 397 q 177 283 182 320 q 172 216 172 245 q 176 169 172 192 q 190 126 180 145 q 219 95 201 106 q 267 83 237 83 q 341 103 304 83 q 412 161 379 124 q 469 247 444 197 q 507 356 494 296 l 530 468 m 479 762 q 470 751 474 755 q 459 744 465 747 q 444 741 452 742 q 421 740 435 740 q 397 742 406 740 q 385 747 389 744 q 383 756 382 751 q 389 769 385 762 l 494 926 q 504 938 498 933 q 518 945 510 943 q 537 949 526 948 q 566 951 549 951 q 596 948 585 951 q 611 942 607 946 q 615 931 616 937 q 608 920 614 926 l 479 762 m 191 645 z "},"â":{"ha":714,"x_min":55,"x_max":673,"o":"m 551 17 q 536 1 548 5 q 495 -4 524 -4 q 473 -3 481 -4 q 458 1 464 -1 q 451 7 453 3 q 451 17 449 11 l 473 132 q 441 85 465 111 q 387 37 418 59 q 317 1 355 16 q 238 -13 278 -13 q 148 6 184 -13 q 92 56 113 25 q 63 127 71 87 q 55 208 55 166 q 62 294 55 245 q 85 392 69 342 q 126 490 101 442 q 188 575 152 537 q 271 635 224 612 q 379 658 319 658 q 483 633 439 658 q 559 566 526 609 l 572 628 q 588 644 575 639 q 628 648 601 648 q 651 647 642 648 q 665 644 660 646 q 672 637 671 641 q 673 628 673 633 l 551 17 m 530 468 q 461 538 498 515 q 378 562 424 562 q 312 544 341 562 q 259 498 282 527 q 220 434 237 470 q 193 359 203 397 q 177 283 182 320 q 172 216 172 245 q 176 169 172 192 q 190 126 180 145 q 219 95 201 106 q 267 83 237 83 q 341 103 304 83 q 412 161 379 124 q 469 247 444 197 q 507 356 494 296 l 530 468 m 635 778 q 642 761 640 768 q 640 749 644 753 q 627 742 637 745 q 599 740 616 740 q 576 741 585 740 q 563 744 568 742 q 555 750 558 746 q 549 760 552 754 l 486 882 l 373 760 q 363 750 368 753 q 352 744 358 746 q 336 741 345 742 q 315 740 328 740 q 287 742 296 740 q 274 749 277 745 q 275 761 271 753 q 289 778 279 768 l 431 933 q 441 942 436 939 q 454 947 447 945 q 472 950 462 949 q 498 951 483 951 q 521 950 512 951 q 537 946 530 949 q 547 941 543 944 q 555 933 551 938 l 635 778 m 95 645 z "},"ã":{"ha":714,"x_min":39,"x_max":688,"o":"m 551 17 q 536 1 548 5 q 495 -4 524 -4 q 473 -3 481 -4 q 458 1 464 -1 q 451 7 453 3 q 451 17 449 11 l 473 132 q 441 85 465 111 q 387 37 418 59 q 317 1 355 16 q 238 -13 278 -13 q 148 6 184 -13 q 92 56 113 25 q 63 127 71 87 q 55 208 55 166 q 62 294 55 245 q 85 392 69 342 q 126 490 101 442 q 188 575 152 537 q 271 635 224 612 q 379 658 319 658 q 483 633 439 658 q 559 566 526 609 l 572 628 q 588 644 575 639 q 628 648 601 648 q 651 647 642 648 q 665 644 660 646 q 672 637 671 641 q 673 628 673 633 l 551 17 m 530 468 q 461 538 498 515 q 378 562 424 562 q 312 544 341 562 q 259 498 282 527 q 220 434 237 470 q 193 359 203 397 q 177 283 182 320 q 172 216 172 245 q 176 169 172 192 q 190 126 180 145 q 219 95 201 106 q 267 83 237 83 q 341 103 304 83 q 412 161 379 124 q 469 247 444 197 q 507 356 494 296 l 530 468 m 688 900 q 686 883 688 896 q 680 853 685 871 q 666 816 675 836 q 641 781 657 797 q 602 754 625 764 q 545 743 578 743 q 500 750 519 743 q 465 766 481 756 q 436 788 450 777 q 411 810 423 800 q 386 826 398 820 q 358 833 373 833 q 318 813 331 833 q 301 761 305 793 q 298 752 300 756 q 292 747 296 749 q 279 744 287 745 q 257 743 271 743 q 239 744 245 743 q 229 748 232 745 q 224 754 225 750 q 222 763 222 758 q 223 780 222 767 q 229 810 224 793 q 243 847 234 828 q 269 882 253 866 q 308 908 284 898 q 364 919 331 919 q 409 912 389 919 q 444 896 428 906 q 473 874 460 886 q 498 852 486 863 q 523 836 511 842 q 551 829 536 829 q 589 847 574 829 q 608 901 604 865 q 617 915 609 911 q 649 919 626 919 q 681 915 674 919 q 688 900 688 910 m 39 645 z "},"ä":{"ha":714,"x_min":55,"x_max":673,"o":"m 551 17 q 536 1 548 5 q 495 -4 524 -4 q 473 -3 481 -4 q 458 1 464 -1 q 451 7 453 3 q 451 17 449 11 l 473 132 q 441 85 465 111 q 387 37 418 59 q 317 1 355 16 q 238 -13 278 -13 q 148 6 184 -13 q 92 56 113 25 q 63 127 71 87 q 55 208 55 166 q 62 294 55 245 q 85 392 69 342 q 126 490 101 442 q 188 575 152 537 q 271 635 224 612 q 379 658 319 658 q 483 633 439 658 q 559 566 526 609 l 572 628 q 588 644 575 639 q 628 648 601 648 q 651 647 642 648 q 665 644 660 646 q 672 637 671 641 q 673 628 673 633 l 551 17 m 530 468 q 461 538 498 515 q 378 562 424 562 q 312 544 341 562 q 259 498 282 527 q 220 434 237 470 q 193 359 203 397 q 177 283 182 320 q 172 216 172 245 q 176 169 172 192 q 190 126 180 145 q 219 95 201 106 q 267 83 237 83 q 341 103 304 83 q 412 161 379 124 q 469 247 444 197 q 507 356 494 296 l 530 468 m 635 825 q 627 794 632 806 q 613 774 621 781 q 591 764 604 767 q 561 761 578 761 q 532 764 543 761 q 514 774 520 767 q 507 794 509 781 q 509 825 506 806 q 517 855 512 843 q 531 875 522 867 q 552 885 540 882 q 583 888 565 888 q 612 885 600 888 q 630 875 623 882 q 637 855 636 867 q 635 825 638 843 m 395 825 q 387 794 393 806 q 373 774 382 781 q 351 764 364 767 q 321 761 338 761 q 292 764 303 761 q 274 774 280 767 q 267 794 268 781 q 269 825 267 806 q 277 855 272 843 q 291 875 282 867 q 312 885 300 882 q 342 888 325 888 q 372 885 360 888 q 390 875 383 882 q 397 855 396 867 q 395 825 398 843 m 77 645 z "},"ā":{"ha":714,"x_min":55,"x_max":673,"o":"m 551 17 q 536 1 548 5 q 495 -4 524 -4 q 473 -3 481 -4 q 458 1 464 -1 q 451 7 453 3 q 451 17 449 11 l 473 132 q 441 85 465 111 q 387 37 418 59 q 317 1 355 16 q 238 -13 278 -13 q 148 6 184 -13 q 92 56 113 25 q 63 127 71 87 q 55 208 55 166 q 62 294 55 245 q 85 392 69 342 q 126 490 101 442 q 188 575 152 537 q 271 635 224 612 q 379 658 319 658 q 483 633 439 658 q 559 566 526 609 l 572 628 q 588 644 575 639 q 628 648 601 648 q 651 647 642 648 q 665 644 660 646 q 672 637 671 641 q 673 628 673 633 l 551 17 m 530 468 q 461 538 498 515 q 378 562 424 562 q 312 544 341 562 q 259 498 282 527 q 220 434 237 470 q 193 359 203 397 q 177 283 182 320 q 172 216 172 245 q 176 169 172 192 q 190 126 180 145 q 219 95 201 106 q 267 83 237 83 q 341 103 304 83 q 412 161 379 124 q 469 247 444 197 q 507 356 494 296 l 530 468 m 642 856 q 642 846 642 852 q 639 832 641 840 q 635 818 637 825 q 629 804 633 810 q 621 793 626 798 q 610 789 616 789 l 286 789 q 272 794 277 789 q 268 811 268 800 q 269 827 268 816 q 275 849 271 838 q 285 868 279 860 q 303 877 292 877 l 628 877 q 639 871 636 877 q 642 856 642 865 m 78 645 z "},"ă":{"ha":714,"x_min":55,"x_max":673,"o":"m 551 17 q 536 1 548 5 q 495 -4 524 -4 q 473 -3 481 -4 q 458 1 464 -1 q 451 7 453 3 q 451 17 449 11 l 473 132 q 441 85 465 111 q 387 37 418 59 q 317 1 355 16 q 238 -13 278 -13 q 148 6 184 -13 q 92 56 113 25 q 63 127 71 87 q 55 208 55 166 q 62 294 55 245 q 85 392 69 342 q 126 490 101 442 q 188 575 152 537 q 271 635 224 612 q 379 658 319 658 q 483 633 439 658 q 559 566 526 609 l 572 628 q 588 644 575 639 q 628 648 601 648 q 651 647 642 648 q 665 644 660 646 q 672 637 671 641 q 673 628 673 633 l 551 17 m 530 468 q 461 538 498 515 q 378 562 424 562 q 312 544 341 562 q 259 498 282 527 q 220 434 237 470 q 193 359 203 397 q 177 283 182 320 q 172 216 172 245 q 176 169 172 192 q 190 126 180 145 q 219 95 201 106 q 267 83 237 83 q 341 103 304 83 q 412 161 379 124 q 469 247 444 197 q 507 356 494 296 l 530 468 m 643 932 q 640 907 643 924 q 628 869 637 890 q 606 826 620 848 q 569 785 591 804 q 513 755 546 766 q 437 743 481 743 q 364 753 393 743 q 318 782 335 764 q 293 823 300 800 q 286 873 286 847 q 287 889 286 880 q 289 909 288 899 q 293 927 291 919 q 298 937 295 935 q 313 944 303 943 q 335 946 322 946 q 354 945 347 946 q 366 942 361 944 q 372 938 370 941 q 373 930 373 935 q 372 914 373 923 q 371 895 371 905 q 374 866 371 879 q 386 843 378 852 q 409 828 395 833 q 444 823 422 823 q 482 828 464 823 q 516 847 500 834 q 543 879 531 859 q 562 926 555 898 q 566 935 563 931 q 573 941 568 939 q 586 945 578 943 q 606 946 594 946 q 626 945 618 946 q 637 942 633 944 q 642 938 641 941 q 643 932 643 935 m 81 645 z "},"å":{"ha":714,"x_min":55,"x_max":673,"o":"m 551 17 q 536 1 548 5 q 495 -4 524 -4 q 473 -3 481 -4 q 458 1 464 -1 q 451 7 453 3 q 451 17 449 11 l 473 132 q 441 85 465 111 q 387 37 418 59 q 317 1 355 16 q 238 -13 278 -13 q 148 6 184 -13 q 92 56 113 25 q 63 127 71 87 q 55 208 55 166 q 62 294 55 245 q 85 392 69 342 q 126 490 101 442 q 188 575 152 537 q 271 635 224 612 q 379 658 319 658 q 483 633 439 658 q 559 566 526 609 l 572 628 q 588 644 575 639 q 628 648 601 648 q 651 647 642 648 q 665 644 660 646 q 672 637 671 641 q 673 628 673 633 l 551 17 m 530 468 q 461 538 498 515 q 378 562 424 562 q 312 544 341 562 q 259 498 282 527 q 220 434 237 470 q 193 359 203 397 q 177 283 182 320 q 172 216 172 245 q 176 169 172 192 q 190 126 180 145 q 219 95 201 106 q 267 83 237 83 q 341 103 304 83 q 412 161 379 124 q 469 247 444 197 q 507 356 494 296 l 530 468 m 589 867 q 579 811 589 836 q 550 767 569 785 q 503 738 530 749 q 439 728 475 728 q 384 736 406 728 q 347 759 361 745 q 326 792 332 773 q 320 832 320 811 q 330 889 320 863 q 360 932 340 914 q 407 961 379 951 q 470 972 435 972 q 526 963 503 972 q 563 940 549 954 q 583 907 577 926 q 589 867 589 888 m 516 859 q 513 880 516 869 q 504 898 511 890 q 487 910 498 905 q 460 915 476 915 q 411 895 429 915 q 394 840 394 875 q 397 820 394 830 q 406 803 399 810 q 422 790 412 795 q 449 785 433 785 q 498 805 481 785 q 516 859 516 825 m 125 645 z "},"ǻ":{"ha":714,"x_min":55,"x_max":673,"o":"m 551 17 q 536 1 548 5 q 495 -4 524 -4 q 473 -3 481 -4 q 458 1 464 -1 q 451 7 453 3 q 451 17 449 11 l 473 132 q 441 85 465 111 q 387 37 418 59 q 317 1 355 16 q 238 -13 278 -13 q 148 6 184 -13 q 92 56 113 25 q 63 127 71 87 q 55 208 55 166 q 62 294 55 245 q 85 392 69 342 q 126 490 101 442 q 188 575 152 537 q 271 635 224 612 q 379 658 319 658 q 483 633 439 658 q 559 566 526 609 l 572 628 q 588 644 575 639 q 628 648 601 648 q 651 647 642 648 q 665 644 660 646 q 672 637 671 641 q 673 628 673 633 l 551 17 m 530 468 q 461 538 498 515 q 378 562 424 562 q 312 544 341 562 q 259 498 282 527 q 220 434 237 470 q 193 359 203 397 q 177 283 182 320 q 172 216 172 245 q 176 169 172 192 q 190 126 180 145 q 219 95 201 106 q 267 83 237 83 q 341 103 304 83 q 412 161 379 124 q 469 247 444 197 q 507 356 494 296 l 530 468 m 536 983 q 523 973 529 977 q 511 967 517 969 q 495 963 504 964 q 474 962 487 962 q 451 963 459 962 q 439 969 442 965 q 439 978 437 972 q 448 989 441 983 l 549 1086 q 562 1097 555 1093 q 576 1105 568 1102 q 594 1108 584 1107 q 619 1109 604 1109 q 649 1106 638 1109 q 665 1100 661 1104 q 667 1092 669 1097 q 658 1080 665 1086 l 536 983 m 574 825 q 565 777 574 798 q 537 740 555 755 q 495 716 519 724 q 442 707 471 707 q 389 715 411 707 q 352 736 366 723 q 330 767 337 749 q 323 804 323 785 q 333 853 323 831 q 360 890 342 876 q 402 914 377 905 q 458 922 427 922 q 509 915 487 922 q 546 894 531 907 q 567 863 560 881 q 574 825 574 846 m 507 819 q 504 838 507 829 q 494 855 500 848 q 477 867 488 863 q 451 872 467 872 q 407 856 422 872 q 391 812 391 840 q 394 792 391 801 q 403 775 397 783 q 420 763 410 768 q 448 759 431 759 q 491 776 476 759 q 507 819 507 793 m 142 645 z "},"ą":{"ha":714,"x_min":55,"x_max":673,"o":"m 530 468 q 461 538 498 515 q 378 562 424 562 q 312 544 341 562 q 259 498 282 527 q 220 434 237 470 q 193 359 203 397 q 177 283 182 320 q 172 216 172 245 q 176 169 172 192 q 190 126 180 145 q 219 95 201 106 q 267 83 237 83 q 341 103 304 83 q 412 161 379 124 q 469 247 444 197 q 507 356 494 296 l 530 468 m 473 132 q 441 85 465 111 q 387 37 418 59 q 317 1 355 16 q 238 -13 278 -13 q 148 6 184 -13 q 92 56 113 25 q 63 127 71 87 q 55 208 55 166 q 62 294 55 245 q 85 392 69 342 q 126 490 101 442 q 188 575 152 537 q 271 635 224 612 q 379 658 319 658 q 483 633 439 658 q 559 566 526 609 l 572 628 q 588 644 575 639 q 628 648 601 648 q 651 647 642 648 q 665 644 660 646 q 672 637 671 641 q 673 628 673 633 l 551 16 q 539 -15 547 -3 q 517 -39 532 -26 l 477 -73 q 443 -107 452 -93 q 433 -138 433 -122 q 442 -157 433 -149 q 469 -164 451 -164 l 539 -164 q 551 -168 548 -164 q 553 -178 553 -172 q 552 -189 553 -182 q 550 -203 551 -196 q 546 -217 548 -211 q 540 -227 543 -224 q 525 -234 535 -231 q 502 -241 515 -238 q 473 -246 489 -244 q 444 -248 458 -248 q 351 -225 382 -248 q 320 -163 320 -203 q 323 -136 320 -149 q 336 -107 327 -123 q 360 -75 345 -92 q 398 -39 375 -58 l 448 2 l 473 132 z "},"æ":{"ha":1048,"x_min":32,"x_max":1013,"o":"m 802 658 q 900 644 860 658 q 965 607 940 629 q 1001 557 989 585 q 1013 501 1013 529 q 991 418 1013 456 q 925 354 970 380 q 808 312 880 327 q 633 298 736 298 l 560 298 q 554 255 556 275 q 553 217 553 235 q 587 113 553 149 q 699 77 621 77 q 773 84 740 77 q 833 98 807 90 q 874 112 859 105 q 897 118 890 118 q 909 102 909 118 q 907 83 909 93 q 903 63 906 73 q 895 45 899 53 q 887 32 891 37 q 860 17 880 24 q 811 2 840 9 q 749 -9 783 -5 q 680 -13 715 -13 q 605 -5 639 -13 q 544 17 570 2 q 497 53 517 32 q 465 101 477 74 q 406 52 436 73 q 345 16 376 31 q 281 -5 313 2 q 216 -13 249 -13 q 129 0 164 -13 q 73 35 94 14 q 41 84 51 57 q 32 140 32 112 q 42 211 32 178 q 73 270 53 243 q 122 317 94 296 q 188 351 151 337 q 267 372 224 365 q 359 379 311 379 l 465 379 l 475 425 q 481 487 483 460 q 467 531 480 513 q 428 558 454 549 q 363 567 403 567 q 287 557 323 567 q 224 535 252 547 q 178 514 197 524 q 153 504 160 504 q 141 511 145 504 q 136 531 136 518 q 138 547 136 538 q 142 565 139 556 q 149 581 144 573 q 157 593 153 589 q 190 615 167 604 q 244 635 214 626 q 311 651 275 645 q 381 658 346 658 q 455 650 423 658 q 510 627 488 642 q 547 593 533 613 q 568 550 562 574 q 616 595 589 575 q 673 629 642 615 q 736 650 703 643 q 802 658 769 658 m 441 180 q 439 194 439 186 q 438 210 438 201 q 440 254 438 231 q 447 298 442 277 l 353 298 q 260 287 298 298 q 196 256 221 275 q 160 210 172 237 q 149 154 149 184 q 174 95 149 115 q 239 75 199 75 q 288 80 264 75 q 336 99 311 86 q 387 132 361 112 q 441 180 412 152 m 898 492 q 892 523 898 509 q 873 548 886 537 q 840 564 860 558 q 793 570 820 570 q 713 554 749 570 q 651 513 678 538 q 606 452 625 487 q 577 380 587 418 l 650 380 q 771 389 723 380 q 847 414 819 398 q 886 450 875 429 q 898 492 898 470 z "},"ǽ":{"ha":1048,"x_min":32,"x_max":1013,"o":"m 802 658 q 900 644 860 658 q 965 607 940 629 q 1001 557 989 585 q 1013 501 1013 529 q 991 418 1013 456 q 925 354 970 380 q 808 312 880 327 q 633 298 736 298 l 560 298 q 554 255 556 275 q 553 217 553 235 q 587 113 553 149 q 699 77 621 77 q 773 84 740 77 q 833 98 807 90 q 874 112 859 105 q 897 118 890 118 q 909 102 909 118 q 907 83 909 93 q 903 63 906 73 q 895 45 899 53 q 887 32 891 37 q 860 17 880 24 q 811 2 840 9 q 749 -9 783 -5 q 680 -13 715 -13 q 605 -5 639 -13 q 544 17 570 2 q 497 53 517 32 q 465 101 477 74 q 406 52 436 73 q 345 16 376 31 q 281 -5 313 2 q 216 -13 249 -13 q 129 0 164 -13 q 73 35 94 14 q 41 84 51 57 q 32 140 32 112 q 42 211 32 178 q 73 270 53 243 q 122 317 94 296 q 188 351 151 337 q 267 372 224 365 q 359 379 311 379 l 465 379 l 475 425 q 481 487 483 460 q 467 531 480 513 q 428 558 454 549 q 363 567 403 567 q 287 557 323 567 q 224 535 252 547 q 178 514 197 524 q 153 504 160 504 q 141 511 145 504 q 136 531 136 518 q 138 547 136 538 q 142 565 139 556 q 149 581 144 573 q 157 593 153 589 q 190 615 167 604 q 244 635 214 626 q 311 651 275 645 q 381 658 346 658 q 455 650 423 658 q 510 627 488 642 q 547 593 533 613 q 568 550 562 574 q 616 595 589 575 q 673 629 642 615 q 736 650 703 643 q 802 658 769 658 m 441 180 q 439 194 439 186 q 438 210 438 201 q 440 254 438 231 q 447 298 442 277 l 353 298 q 260 287 298 298 q 196 256 221 275 q 160 210 172 237 q 149 154 149 184 q 174 95 149 115 q 239 75 199 75 q 288 80 264 75 q 336 99 311 86 q 387 132 361 112 q 441 180 412 152 m 898 492 q 892 523 898 509 q 873 548 886 537 q 840 564 860 558 q 793 570 820 570 q 713 554 749 570 q 651 513 678 538 q 606 452 625 487 q 577 380 587 418 l 650 380 q 771 389 723 380 q 847 414 819 398 q 886 450 875 429 q 898 492 898 470 m 675 762 q 666 751 671 755 q 655 744 662 747 q 640 741 649 742 q 618 740 631 740 q 594 742 603 740 q 582 747 585 744 q 580 756 578 751 q 586 769 581 762 l 690 926 q 701 938 695 933 q 714 945 707 943 q 734 949 722 948 q 762 951 745 951 q 792 948 781 951 q 808 942 804 946 q 811 931 812 937 q 805 920 810 926 l 675 762 m 387 645 z "},"b":{"ha":714,"x_min":41,"x_max":662,"o":"m 662 437 q 654 347 662 396 q 630 248 647 298 q 589 151 614 198 q 527 67 564 104 q 444 9 491 31 q 338 -13 397 -13 q 233 10 277 -13 q 156 77 190 33 l 144 17 q 129 1 142 5 q 89 -4 116 -4 q 51 1 60 -4 q 44 17 41 7 l 224 923 q 229 932 226 928 q 239 939 232 937 q 257 943 246 942 q 286 945 269 945 q 312 943 302 945 q 328 939 322 942 q 336 932 334 937 q 336 923 337 928 l 282 650 q 274 614 279 633 q 264 576 269 595 q 254 541 259 557 q 245 512 249 524 q 279 561 256 536 q 334 608 302 587 q 403 644 366 629 q 478 658 440 658 q 548 647 519 658 q 597 618 577 636 q 630 577 618 600 q 650 530 643 554 q 659 481 656 505 q 662 437 662 457 m 545 427 q 541 469 545 446 q 528 513 538 493 q 499 548 518 534 q 450 562 481 562 q 375 541 413 562 q 304 483 337 519 q 247 396 272 446 q 210 287 221 346 l 187 174 q 256 105 219 127 q 338 83 292 83 q 402 99 374 83 q 454 142 431 115 q 494 204 477 170 q 522 278 511 239 q 539 355 533 316 q 545 427 545 393 z "},"c":{"ha":578,"x_min":52,"x_max":579,"o":"m 579 574 q 577 549 579 562 q 570 525 574 536 q 558 506 565 513 q 544 498 552 498 q 524 508 534 498 q 497 530 514 518 q 455 553 481 543 q 391 563 430 563 q 314 545 347 563 q 255 498 280 527 q 214 433 231 469 q 188 359 198 396 q 173 287 178 321 q 169 226 169 252 q 199 120 169 156 q 290 84 230 84 q 366 95 334 84 q 419 120 397 106 q 456 144 441 134 q 481 155 470 155 q 489 150 486 155 q 492 136 492 145 q 491 116 492 127 q 487 93 490 105 q 479 71 484 81 q 467 53 475 61 q 438 32 458 44 q 391 10 418 20 q 333 -6 364 0 q 269 -13 302 -13 q 105 43 159 -13 q 52 208 52 98 q 59 299 52 250 q 83 398 66 348 q 126 494 100 448 q 191 577 153 541 q 281 635 230 614 q 397 657 332 657 q 450 653 425 657 q 497 641 475 648 q 537 622 519 633 q 565 602 555 611 q 577 587 574 593 q 579 574 579 581 z "},"ć":{"ha":578,"x_min":52,"x_max":586,"o":"m 579 574 q 577 549 579 562 q 570 525 574 536 q 558 506 565 513 q 544 498 552 498 q 524 508 534 498 q 497 530 514 518 q 455 553 481 543 q 391 563 430 563 q 314 545 347 563 q 255 498 280 527 q 214 433 231 469 q 188 359 198 396 q 173 287 178 321 q 169 226 169 252 q 199 120 169 156 q 290 84 230 84 q 366 95 334 84 q 419 120 397 106 q 456 144 441 134 q 481 155 470 155 q 489 150 486 155 q 492 136 492 145 q 491 116 492 127 q 487 93 490 105 q 479 71 484 81 q 467 53 475 61 q 438 32 458 44 q 391 10 418 20 q 333 -6 364 0 q 269 -13 302 -13 q 105 43 159 -13 q 52 208 52 98 q 59 299 52 250 q 83 398 66 348 q 126 494 100 448 q 191 577 153 541 q 281 635 230 614 q 397 657 332 657 q 450 653 425 657 q 497 641 475 648 q 537 622 519 633 q 565 602 555 611 q 577 587 574 593 q 579 574 579 581 m 449 762 q 440 751 444 755 q 429 744 435 747 q 414 741 422 742 q 391 740 405 740 q 368 742 376 740 q 355 747 359 744 q 353 756 352 751 q 359 769 355 762 l 464 926 q 474 938 469 933 q 488 945 480 943 q 507 949 496 948 q 536 951 519 951 q 566 948 555 951 q 582 942 577 946 q 585 931 586 937 q 578 920 584 926 l 449 762 m 161 645 z "},"ĉ":{"ha":578,"x_min":42,"x_max":591,"o":"m 579 574 q 577 549 579 562 q 570 525 574 536 q 558 506 565 513 q 544 498 552 498 q 524 508 534 498 q 497 530 514 518 q 455 553 481 543 q 391 563 430 563 q 314 545 347 563 q 255 498 280 527 q 214 433 231 469 q 188 359 198 396 q 173 287 178 321 q 169 226 169 252 q 199 120 169 156 q 290 84 230 84 q 366 95 334 84 q 419 120 397 106 q 456 144 441 134 q 481 155 470 155 q 489 150 486 155 q 492 136 492 145 q 491 116 492 127 q 487 93 490 105 q 479 71 484 81 q 467 53 475 61 q 438 32 458 44 q 391 10 418 20 q 333 -6 364 0 q 269 -13 302 -13 q 105 43 159 -13 q 52 208 52 98 q 59 299 52 250 q 83 398 66 348 q 126 494 100 448 q 191 577 153 541 q 281 635 230 614 q 397 657 332 657 q 450 653 425 657 q 497 641 475 648 q 537 622 519 633 q 565 602 555 611 q 577 587 574 593 q 579 574 579 581 m 582 778 q 589 761 587 768 q 587 749 591 753 q 574 742 584 745 q 546 740 564 740 q 524 741 532 740 q 510 744 515 742 q 502 750 505 746 q 496 760 499 754 l 433 882 l 320 760 q 310 750 315 753 q 299 744 305 746 q 283 741 292 742 q 262 740 275 740 q 234 742 243 740 q 221 749 224 745 q 222 761 218 753 q 236 778 227 768 l 378 933 q 389 942 383 939 q 401 947 394 945 q 419 950 409 949 q 445 951 430 951 q 468 950 459 951 q 484 946 477 949 q 494 941 490 944 q 502 933 498 938 l 582 778 m 42 645 z "},"č":{"ha":578,"x_min":43,"x_max":627,"o":"m 579 574 q 577 549 579 562 q 570 525 574 536 q 558 506 565 513 q 544 498 552 498 q 524 508 534 498 q 497 530 514 518 q 455 553 481 543 q 391 563 430 563 q 314 545 347 563 q 255 498 280 527 q 214 433 231 469 q 188 359 198 396 q 173 287 178 321 q 169 226 169 252 q 199 120 169 156 q 290 84 230 84 q 366 95 334 84 q 419 120 397 106 q 456 144 441 134 q 481 155 470 155 q 489 150 486 155 q 492 136 492 145 q 491 116 492 127 q 487 93 490 105 q 479 71 484 81 q 467 53 475 61 q 438 32 458 44 q 391 10 418 20 q 333 -6 364 0 q 269 -13 302 -13 q 105 43 159 -13 q 52 208 52 98 q 59 299 52 250 q 83 398 66 348 q 126 494 100 448 q 191 577 153 541 q 281 635 230 614 q 397 657 332 657 q 450 653 425 657 q 497 641 475 648 q 537 622 519 633 q 565 602 555 611 q 577 587 574 593 q 579 574 579 581 m 467 758 q 457 749 463 752 q 444 744 452 745 q 426 741 436 742 q 399 740 415 740 q 376 741 386 740 q 361 744 367 742 q 351 749 355 746 q 345 758 347 753 l 264 913 q 257 930 258 922 q 258 942 255 937 q 271 948 262 946 q 299 951 281 951 q 321 950 313 951 q 334 946 329 949 q 341 940 338 944 q 347 930 345 937 l 412 808 l 524 930 q 534 940 529 937 q 546 946 539 944 q 562 950 553 949 q 583 951 570 951 q 611 948 601 951 q 624 942 621 946 q 623 930 627 937 q 610 913 619 923 l 467 758 m 43 645 z "},"ċ":{"ha":578,"x_min":52,"x_max":579,"o":"m 579 574 q 577 549 579 562 q 570 525 574 536 q 558 506 565 513 q 544 498 552 498 q 524 508 534 498 q 497 530 514 518 q 455 553 481 543 q 391 563 430 563 q 314 545 347 563 q 255 498 280 527 q 214 433 231 469 q 188 359 198 396 q 173 287 178 321 q 169 226 169 252 q 199 120 169 156 q 290 84 230 84 q 366 95 334 84 q 419 120 397 106 q 456 144 441 134 q 481 155 470 155 q 489 150 486 155 q 492 136 492 145 q 491 116 492 127 q 487 93 490 105 q 479 71 484 81 q 467 53 475 61 q 438 32 458 44 q 391 10 418 20 q 333 -6 364 0 q 269 -13 302 -13 q 105 43 159 -13 q 52 208 52 98 q 59 299 52 250 q 83 398 66 348 q 126 494 100 448 q 191 577 153 541 q 281 635 230 614 q 397 657 332 657 q 450 653 425 657 q 497 641 475 648 q 537 622 519 633 q 565 602 555 611 q 577 587 574 593 q 579 574 579 581 m 488 834 q 479 804 485 817 q 464 784 473 792 q 440 772 454 776 q 408 769 427 769 q 377 772 389 769 q 358 784 365 776 q 351 804 352 792 q 353 834 350 817 q 361 865 355 852 q 376 885 367 878 q 399 897 385 893 q 431 900 412 900 q 463 897 450 900 q 481 885 475 893 q 489 865 488 878 q 488 834 490 852 m 160 645 z "},"ç":{"ha":578,"x_min":52,"x_max":579,"o":"m 203 -6 q 92 59 133 6 q 52 208 52 112 q 59 299 52 250 q 83 398 66 348 q 126 494 100 448 q 191 577 153 541 q 281 635 230 614 q 397 657 332 657 q 450 653 425 657 q 497 641 475 648 q 537 622 519 633 q 565 602 555 611 q 577 587 574 593 q 579 574 579 581 q 577 549 579 562 q 570 525 574 536 q 558 506 565 513 q 544 498 552 498 q 524 508 534 498 q 497 530 514 518 q 455 553 481 543 q 391 563 430 563 q 314 545 347 563 q 255 498 280 527 q 214 433 231 469 q 188 359 198 396 q 173 287 178 321 q 169 226 169 252 q 199 120 169 156 q 290 84 230 84 q 366 95 334 84 q 419 120 397 106 q 456 144 441 134 q 481 155 470 155 q 489 150 486 155 q 492 136 492 145 q 491 116 492 127 q 487 93 490 105 q 479 71 484 81 q 467 53 475 61 q 436 30 458 44 q 375 4 413 16 q 299 -11 338 -8 l 309 -50 q 318 -89 315 -73 q 321 -119 321 -104 q 311 -176 321 -152 q 281 -216 300 -201 q 234 -240 262 -232 q 172 -248 207 -248 q 138 -246 155 -248 q 105 -242 120 -245 q 80 -236 91 -239 q 66 -231 70 -233 q 60 -225 62 -229 q 59 -216 59 -222 q 60 -200 59 -209 q 65 -183 62 -191 q 73 -169 68 -175 q 87 -163 79 -163 l 170 -163 q 191 -161 181 -163 q 209 -153 201 -159 q 222 -139 217 -148 q 227 -116 227 -130 q 225 -98 227 -109 q 221 -77 223 -87 l 203 -6 z "},"d":{"ha":714,"x_min":55,"x_max":733,"o":"m 551 17 q 537 1 549 5 q 496 -4 525 -4 q 473 -3 482 -4 q 459 1 465 -1 q 452 7 454 3 q 452 17 450 11 l 473 131 q 441 83 465 109 q 387 36 418 58 q 317 1 355 15 q 238 -13 278 -13 q 169 -2 198 -13 q 119 26 139 8 q 86 67 99 43 q 67 115 74 90 q 57 165 60 140 q 55 211 55 190 q 62 299 55 250 q 86 397 70 348 q 128 493 102 446 q 189 577 153 541 q 272 635 225 613 q 379 658 319 658 q 434 651 408 658 q 481 634 460 645 q 519 607 502 623 q 551 574 537 591 l 621 920 q 625 929 621 925 q 635 936 628 934 q 652 940 642 939 q 680 942 663 942 q 707 940 696 942 q 724 936 718 939 q 731 929 730 934 q 732 920 733 925 l 551 17 m 530 466 q 461 537 498 513 q 378 562 424 562 q 313 545 342 562 q 261 500 284 528 q 221 437 238 473 q 194 362 205 401 q 178 287 183 324 q 172 218 172 250 q 195 118 172 153 q 267 83 217 83 q 341 103 304 83 q 412 159 379 123 q 469 245 444 195 q 507 353 494 294 l 530 466 z "},"ď":{"ha":770,"x_min":55,"x_max":944,"o":"m 551 17 q 537 1 549 5 q 496 -4 525 -4 q 473 -3 482 -4 q 459 1 465 -1 q 452 7 454 3 q 452 17 450 11 l 473 131 q 441 83 465 109 q 387 36 418 58 q 317 1 355 15 q 238 -13 278 -13 q 169 -2 198 -13 q 119 26 139 8 q 86 67 99 43 q 67 115 74 90 q 57 165 60 140 q 55 211 55 190 q 62 299 55 250 q 86 397 70 348 q 128 493 102 446 q 189 577 153 541 q 272 635 225 613 q 379 658 319 658 q 434 651 408 658 q 481 634 460 645 q 519 607 502 623 q 551 574 537 591 l 621 920 q 625 929 621 925 q 635 936 628 934 q 652 940 642 939 q 680 942 663 942 q 707 940 696 942 q 724 936 718 939 q 731 929 730 934 q 732 920 733 925 l 551 17 m 530 466 q 461 537 498 513 q 378 562 424 562 q 313 545 342 562 q 261 500 284 528 q 221 437 238 473 q 194 362 205 401 q 178 287 183 324 q 172 218 172 250 q 195 118 172 153 q 267 83 217 83 q 341 103 304 83 q 412 159 379 123 q 469 245 444 195 q 507 353 494 294 l 530 466 m 832 711 q 826 703 829 706 q 816 698 822 700 q 801 696 810 696 q 777 695 791 695 q 762 696 768 695 q 753 701 756 698 q 750 707 751 703 q 752 716 750 711 l 839 923 q 846 935 842 930 q 858 942 850 939 q 876 946 865 945 q 903 947 887 947 q 927 946 918 947 q 940 942 937 945 q 943 934 944 939 q 940 922 943 929 l 832 711 m 578 676 z "},"đ":{"ha":765,"x_min":55,"x_max":827,"o":"m 810 836 q 822 831 817 836 q 827 814 827 827 q 826 804 827 810 q 824 790 825 798 q 819 775 822 783 q 813 762 817 768 q 804 752 809 756 q 793 748 799 748 l 698 748 l 551 17 q 537 1 549 5 q 496 -4 525 -4 q 473 -3 482 -4 q 459 1 465 -1 q 452 7 454 3 q 452 17 450 11 l 473 131 q 441 83 465 109 q 387 36 418 58 q 317 1 355 15 q 238 -13 278 -13 q 169 -2 198 -13 q 119 26 139 8 q 86 67 99 43 q 67 115 74 90 q 57 165 60 140 q 55 211 55 190 q 62 299 55 250 q 86 397 70 348 q 128 493 102 446 q 189 577 153 541 q 272 635 225 613 q 379 658 319 658 q 434 651 408 658 q 481 634 460 645 q 519 607 502 623 q 551 574 537 591 l 586 748 l 423 748 q 412 753 415 748 q 408 770 408 759 q 409 780 408 773 q 411 793 409 786 q 415 808 412 801 q 420 822 417 816 q 429 832 424 828 q 441 836 434 836 l 604 836 l 621 920 q 625 929 621 925 q 635 936 628 934 q 652 940 642 939 q 680 942 663 942 q 707 940 696 942 q 724 936 718 939 q 731 929 730 934 q 732 920 733 925 l 715 836 l 810 836 m 530 466 q 461 537 498 513 q 378 562 424 562 q 313 545 342 562 q 261 500 284 528 q 221 437 238 473 q 194 362 205 401 q 178 287 183 324 q 172 218 172 250 q 195 118 172 153 q 267 83 217 83 q 341 103 304 83 q 412 159 379 123 q 469 245 444 195 q 507 353 494 294 l 530 466 z "},"ð":{"ha":730,"x_min":54,"x_max":755,"o":"m 284 726 q 267 727 271 722 q 263 743 263 732 q 265 763 263 753 q 271 783 267 774 q 282 800 275 793 q 297 809 288 807 l 435 842 l 386 914 q 380 926 382 921 q 384 936 379 932 q 401 941 389 939 q 435 943 413 943 q 469 942 455 943 q 491 938 482 941 q 506 931 500 935 q 515 922 512 927 l 548 869 l 732 914 q 750 912 745 917 q 755 897 755 907 q 754 880 755 890 q 749 860 753 869 q 739 842 745 850 q 722 831 732 833 l 592 800 q 622 734 609 767 q 644 667 635 701 q 657 596 653 632 q 662 522 662 560 q 657 426 662 475 q 642 331 652 378 q 615 241 631 284 q 575 159 598 197 q 523 89 552 121 q 456 35 493 58 q 374 0 418 12 q 275 -13 329 -13 q 172 3 214 -13 q 104 50 130 20 q 66 121 78 80 q 54 213 54 163 q 62 305 54 256 q 87 404 71 355 q 130 499 104 454 q 193 580 156 545 q 279 637 231 616 q 389 658 328 658 q 437 652 413 658 q 484 634 461 647 q 525 601 506 622 q 559 551 545 581 q 546 597 552 572 q 532 650 541 622 q 511 708 524 677 q 477 772 498 739 l 284 726 m 526 385 q 516 457 526 424 q 489 513 507 490 q 446 549 471 536 q 387 562 420 562 q 318 546 349 562 q 263 503 288 530 q 222 441 239 476 q 194 370 205 407 q 178 296 183 333 q 172 228 172 259 q 201 119 172 156 q 289 83 230 83 q 367 98 332 83 q 428 138 401 113 q 472 195 454 163 q 503 260 491 227 q 520 326 515 294 q 526 385 526 359 z "},"e":{"ha":663,"x_min":52,"x_max":627,"o":"m 627 503 q 606 418 627 456 q 538 355 584 381 q 420 314 492 328 q 248 300 348 300 l 176 300 q 169 256 171 277 q 168 217 168 235 q 201 113 168 149 q 310 77 235 77 q 388 84 353 77 q 448 98 422 90 q 490 112 473 105 q 512 118 506 118 q 521 114 518 118 q 524 101 524 109 q 523 85 524 94 q 519 65 522 75 q 512 47 516 56 q 502 32 507 38 q 473 16 494 24 q 424 2 452 8 q 361 -9 395 -5 q 294 -13 328 -13 q 188 1 233 -13 q 112 42 142 14 q 67 113 82 71 q 52 212 52 155 q 61 306 52 256 q 87 406 69 357 q 135 501 106 456 q 204 581 164 547 q 298 637 245 616 q 417 658 351 658 q 514 644 474 658 q 579 607 553 629 q 616 557 604 585 q 627 503 627 530 m 513 492 q 486 548 513 527 q 408 570 458 570 q 330 554 364 570 q 270 513 296 539 q 225 453 244 488 q 195 381 207 419 l 264 381 q 384 390 336 381 q 460 414 431 399 q 501 450 489 429 q 513 492 513 470 z "},"è":{"ha":663,"x_min":52,"x_max":627,"o":"m 627 503 q 606 418 627 456 q 538 355 584 381 q 420 314 492 328 q 248 300 348 300 l 176 300 q 169 256 171 277 q 168 217 168 235 q 201 113 168 149 q 310 77 235 77 q 388 84 353 77 q 448 98 422 90 q 490 112 473 105 q 512 118 506 118 q 521 114 518 118 q 524 101 524 109 q 523 85 524 94 q 519 65 522 75 q 512 47 516 56 q 502 32 507 38 q 473 16 494 24 q 424 2 452 8 q 361 -9 395 -5 q 294 -13 328 -13 q 188 1 233 -13 q 112 42 142 14 q 67 113 82 71 q 52 212 52 155 q 61 306 52 256 q 87 406 69 357 q 135 501 106 456 q 204 581 164 547 q 298 637 245 616 q 417 658 351 658 q 514 644 474 658 q 579 607 553 629 q 616 557 604 585 q 627 503 627 530 m 513 492 q 486 548 513 527 q 408 570 458 570 q 330 554 364 570 q 270 513 296 539 q 225 453 244 488 q 195 381 207 419 l 264 381 q 384 390 336 381 q 460 414 431 399 q 501 450 489 429 q 513 492 513 470 m 490 769 q 496 756 495 762 q 493 747 497 751 q 480 742 490 744 q 456 740 471 740 q 434 741 443 740 q 419 744 425 741 q 408 750 413 746 q 399 762 404 755 l 283 920 q 278 931 278 926 q 282 942 277 937 q 299 948 288 946 q 331 951 311 951 q 358 950 347 951 q 376 946 369 949 q 389 938 384 943 q 399 926 394 933 l 490 769 m 79 645 z "},"é":{"ha":663,"x_min":52,"x_max":627,"o":"m 627 503 q 606 418 627 456 q 538 355 584 381 q 420 314 492 328 q 248 300 348 300 l 176 300 q 169 256 171 277 q 168 217 168 235 q 201 113 168 149 q 310 77 235 77 q 388 84 353 77 q 448 98 422 90 q 490 112 473 105 q 512 118 506 118 q 521 114 518 118 q 524 101 524 109 q 523 85 524 94 q 519 65 522 75 q 512 47 516 56 q 502 32 507 38 q 473 16 494 24 q 424 2 452 8 q 361 -9 395 -5 q 294 -13 328 -13 q 188 1 233 -13 q 112 42 142 14 q 67 113 82 71 q 52 212 52 155 q 61 306 52 256 q 87 406 69 357 q 135 501 106 456 q 204 581 164 547 q 298 637 245 616 q 417 658 351 658 q 514 644 474 658 q 579 607 553 629 q 616 557 604 585 q 627 503 627 530 m 513 492 q 486 548 513 527 q 408 570 458 570 q 330 554 364 570 q 270 513 296 539 q 225 453 244 488 q 195 381 207 419 l 264 381 q 384 390 336 381 q 460 414 431 399 q 501 450 489 429 q 513 492 513 470 m 471 762 q 462 751 467 755 q 451 744 458 747 q 436 741 445 742 q 414 740 427 740 q 390 742 399 740 q 378 747 381 744 q 376 756 374 751 q 382 769 377 762 l 486 926 q 497 938 491 933 q 510 945 503 943 q 530 949 518 948 q 558 951 541 951 q 588 948 577 951 q 604 942 600 946 q 607 931 608 937 q 601 920 606 926 l 471 762 m 183 645 z "},"ê":{"ha":663,"x_min":52,"x_max":627,"o":"m 627 503 q 606 418 627 456 q 538 355 584 381 q 420 314 492 328 q 248 300 348 300 l 176 300 q 169 256 171 277 q 168 217 168 235 q 201 113 168 149 q 310 77 235 77 q 388 84 353 77 q 448 98 422 90 q 490 112 473 105 q 512 118 506 118 q 521 114 518 118 q 524 101 524 109 q 523 85 524 94 q 519 65 522 75 q 512 47 516 56 q 502 32 507 38 q 473 16 494 24 q 424 2 452 8 q 361 -9 395 -5 q 294 -13 328 -13 q 188 1 233 -13 q 112 42 142 14 q 67 113 82 71 q 52 212 52 155 q 61 306 52 256 q 87 406 69 357 q 135 501 106 456 q 204 581 164 547 q 298 637 245 616 q 417 658 351 658 q 514 644 474 658 q 579 607 553 629 q 616 557 604 585 q 627 503 627 530 m 513 492 q 486 548 513 527 q 408 570 458 570 q 330 554 364 570 q 270 513 296 539 q 225 453 244 488 q 195 381 207 419 l 264 381 q 384 390 336 381 q 460 414 431 399 q 501 450 489 429 q 513 492 513 470 m 606 778 q 613 761 612 768 q 612 749 615 753 q 598 742 608 745 q 570 740 588 740 q 548 741 556 740 q 535 744 540 742 q 527 750 530 746 q 521 760 524 754 l 457 882 l 345 760 q 334 750 339 753 q 323 744 330 746 q 308 741 317 742 q 286 740 299 740 q 258 742 268 740 q 245 749 248 745 q 247 761 243 753 q 260 778 251 768 l 403 933 q 413 942 408 939 q 426 947 418 945 q 444 950 433 949 q 469 951 454 951 q 493 950 484 951 q 508 946 502 949 q 519 941 515 944 q 526 933 523 938 l 606 778 m 66 645 z "},"ě":{"ha":663,"x_min":52,"x_max":650,"o":"m 627 503 q 606 418 627 456 q 538 355 584 381 q 420 314 492 328 q 248 300 348 300 l 176 300 q 169 256 171 277 q 168 217 168 235 q 201 113 168 149 q 310 77 235 77 q 388 84 353 77 q 448 98 422 90 q 490 112 473 105 q 512 118 506 118 q 521 114 518 118 q 524 101 524 109 q 523 85 524 94 q 519 65 522 75 q 512 47 516 56 q 502 32 507 38 q 473 16 494 24 q 424 2 452 8 q 361 -9 395 -5 q 294 -13 328 -13 q 188 1 233 -13 q 112 42 142 14 q 67 113 82 71 q 52 212 52 155 q 61 306 52 256 q 87 406 69 357 q 135 501 106 456 q 204 581 164 547 q 298 637 245 616 q 417 658 351 658 q 514 644 474 658 q 579 607 553 629 q 616 557 604 585 q 627 503 627 530 m 513 492 q 486 548 513 527 q 408 570 458 570 q 330 554 364 570 q 270 513 296 539 q 225 453 244 488 q 195 381 207 419 l 264 381 q 384 390 336 381 q 460 414 431 399 q 501 450 489 429 q 513 492 513 470 m 490 758 q 480 749 486 752 q 467 744 475 745 q 449 741 459 742 q 422 740 438 740 q 399 741 409 740 q 384 744 390 742 q 374 749 378 746 q 368 758 370 753 l 287 913 q 280 930 281 922 q 281 942 278 937 q 294 948 285 946 q 322 951 304 951 q 344 950 336 951 q 357 946 352 949 q 365 940 361 944 q 370 930 368 937 l 435 808 l 547 930 q 557 940 552 937 q 569 946 562 944 q 585 950 576 949 q 606 951 593 951 q 634 948 624 951 q 647 942 644 946 q 646 930 650 937 q 633 913 642 923 l 490 758 m 66 645 z "},"ë":{"ha":663,"x_min":52,"x_max":627,"o":"m 627 503 q 606 418 627 456 q 538 355 584 381 q 420 314 492 328 q 248 300 348 300 l 176 300 q 169 256 171 277 q 168 217 168 235 q 201 113 168 149 q 310 77 235 77 q 388 84 353 77 q 448 98 422 90 q 490 112 473 105 q 512 118 506 118 q 521 114 518 118 q 524 101 524 109 q 523 85 524 94 q 519 65 522 75 q 512 47 516 56 q 502 32 507 38 q 473 16 494 24 q 424 2 452 8 q 361 -9 395 -5 q 294 -13 328 -13 q 188 1 233 -13 q 112 42 142 14 q 67 113 82 71 q 52 212 52 155 q 61 306 52 256 q 87 406 69 357 q 135 501 106 456 q 204 581 164 547 q 298 637 245 616 q 417 658 351 658 q 514 644 474 658 q 579 607 553 629 q 616 557 604 585 q 627 503 627 530 m 513 492 q 486 548 513 527 q 408 570 458 570 q 330 554 364 570 q 270 513 296 539 q 225 453 244 488 q 195 381 207 419 l 264 381 q 384 390 336 381 q 460 414 431 399 q 501 450 489 429 q 513 492 513 470 m 620 825 q 611 794 616 806 q 597 774 606 781 q 576 764 589 767 q 545 761 563 761 q 516 764 528 761 q 499 774 505 767 q 492 794 493 781 q 494 825 490 806 q 502 855 496 843 q 515 875 507 867 q 537 885 524 882 q 567 888 549 888 q 596 885 585 888 q 614 875 608 882 q 622 855 621 867 q 620 825 623 843 m 380 825 q 372 794 377 806 q 357 774 366 781 q 336 764 349 767 q 306 761 323 761 q 276 764 288 761 q 258 774 264 767 q 252 794 252 781 q 254 825 251 806 q 261 855 256 843 q 275 875 267 867 q 297 885 284 882 q 327 888 309 888 q 356 885 345 888 q 374 875 368 882 q 381 855 380 867 q 380 825 382 843 m 62 645 z "},"ē":{"ha":663,"x_min":52,"x_max":644,"o":"m 627 503 q 606 418 627 456 q 538 355 584 381 q 420 314 492 328 q 248 300 348 300 l 176 300 q 169 256 171 277 q 168 217 168 235 q 201 113 168 149 q 310 77 235 77 q 388 84 353 77 q 448 98 422 90 q 490 112 473 105 q 512 118 506 118 q 521 114 518 118 q 524 101 524 109 q 523 85 524 94 q 519 65 522 75 q 512 47 516 56 q 502 32 507 38 q 473 16 494 24 q 424 2 452 8 q 361 -9 395 -5 q 294 -13 328 -13 q 188 1 233 -13 q 112 42 142 14 q 67 113 82 71 q 52 212 52 155 q 61 306 52 256 q 87 406 69 357 q 135 501 106 456 q 204 581 164 547 q 298 637 245 616 q 417 658 351 658 q 514 644 474 658 q 579 607 553 629 q 616 557 604 585 q 627 503 627 530 m 513 492 q 486 548 513 527 q 408 570 458 570 q 330 554 364 570 q 270 513 296 539 q 225 453 244 488 q 195 381 207 419 l 264 381 q 384 390 336 381 q 460 414 431 399 q 501 450 489 429 q 513 492 513 470 m 644 856 q 643 846 644 852 q 641 832 642 840 q 636 818 639 825 q 631 804 634 810 q 623 793 627 798 q 612 789 618 789 l 287 789 q 274 794 278 789 q 269 811 269 800 q 271 827 269 816 q 276 849 272 838 q 287 868 280 860 q 304 877 293 877 l 629 877 q 641 871 637 877 q 644 856 644 865 m 79 645 z "},"ĕ":{"ha":663,"x_min":52,"x_max":637,"o":"m 627 503 q 606 418 627 456 q 538 355 584 381 q 420 314 492 328 q 248 300 348 300 l 176 300 q 169 256 171 277 q 168 217 168 235 q 201 113 168 149 q 310 77 235 77 q 388 84 353 77 q 448 98 422 90 q 490 112 473 105 q 512 118 506 118 q 521 114 518 118 q 524 101 524 109 q 523 85 524 94 q 519 65 522 75 q 512 47 516 56 q 502 32 507 38 q 473 16 494 24 q 424 2 452 8 q 361 -9 395 -5 q 294 -13 328 -13 q 188 1 233 -13 q 112 42 142 14 q 67 113 82 71 q 52 212 52 155 q 61 306 52 256 q 87 406 69 357 q 135 501 106 456 q 204 581 164 547 q 298 637 245 616 q 417 658 351 658 q 514 644 474 658 q 579 607 553 629 q 616 557 604 585 q 627 503 627 530 m 513 492 q 486 548 513 527 q 408 570 458 570 q 330 554 364 570 q 270 513 296 539 q 225 453 244 488 q 195 381 207 419 l 264 381 q 384 390 336 381 q 460 414 431 399 q 501 450 489 429 q 513 492 513 470 m 637 932 q 634 907 637 924 q 623 869 631 890 q 600 826 614 848 q 563 785 586 804 q 508 755 541 766 q 432 743 475 743 q 358 753 387 743 q 312 782 330 764 q 288 823 295 800 q 281 873 281 847 q 281 889 281 880 q 284 909 282 899 q 288 927 286 919 q 293 937 290 935 q 307 944 298 943 q 330 946 317 946 q 349 945 342 946 q 360 942 356 944 q 366 938 365 941 q 368 930 368 935 q 367 914 368 923 q 366 895 366 905 q 369 866 366 879 q 381 843 372 852 q 403 828 389 833 q 438 823 417 823 q 477 828 458 823 q 510 847 495 834 q 537 879 526 859 q 556 926 549 898 q 560 935 557 931 q 568 941 563 939 q 581 945 572 943 q 601 946 589 946 q 620 945 613 946 q 631 942 627 944 q 636 938 635 941 q 637 932 637 935 m 75 645 z "},"ė":{"ha":663,"x_min":52,"x_max":627,"o":"m 627 503 q 606 418 627 456 q 538 355 584 381 q 420 314 492 328 q 248 300 348 300 l 176 300 q 169 256 171 277 q 168 217 168 235 q 201 113 168 149 q 310 77 235 77 q 388 84 353 77 q 448 98 422 90 q 490 112 473 105 q 512 118 506 118 q 521 114 518 118 q 524 101 524 109 q 523 85 524 94 q 519 65 522 75 q 512 47 516 56 q 502 32 507 38 q 473 16 494 24 q 424 2 452 8 q 361 -9 395 -5 q 294 -13 328 -13 q 188 1 233 -13 q 112 42 142 14 q 67 113 82 71 q 52 212 52 155 q 61 306 52 256 q 87 406 69 357 q 135 501 106 456 q 204 581 164 547 q 298 637 245 616 q 417 658 351 658 q 514 644 474 658 q 579 607 553 629 q 616 557 604 585 q 627 503 627 530 m 513 492 q 486 548 513 527 q 408 570 458 570 q 330 554 364 570 q 270 513 296 539 q 225 453 244 488 q 195 381 207 419 l 264 381 q 384 390 336 381 q 460 414 431 399 q 501 450 489 429 q 513 492 513 470 m 517 834 q 509 804 515 817 q 494 784 503 792 q 470 772 484 776 q 437 769 456 769 q 407 772 418 769 q 388 784 395 776 q 381 804 382 792 q 382 834 380 817 q 391 865 385 852 q 406 885 397 878 q 429 897 415 893 q 461 900 442 900 q 492 897 480 900 q 511 885 505 893 q 519 865 517 878 q 517 834 520 852 m 190 645 z "},"ę":{"ha":663,"x_min":52,"x_max":627,"o":"m 513 492 q 486 548 513 527 q 408 570 458 570 q 330 554 364 570 q 270 513 296 539 q 225 453 244 488 q 195 381 207 419 l 264 381 q 388 391 340 381 q 464 416 436 401 q 502 452 492 432 q 513 492 513 471 m 345 -8 q 320 -11 334 -9 q 290 -13 307 -13 q 186 1 231 -13 q 112 43 142 15 q 67 113 82 71 q 52 212 52 155 q 61 306 52 256 q 87 406 69 357 q 135 501 106 456 q 204 581 164 547 q 298 637 245 616 q 417 658 351 658 q 514 644 474 658 q 579 607 553 629 q 616 557 604 585 q 627 503 627 530 q 607 422 627 459 q 542 358 587 385 q 425 315 497 330 q 248 300 353 300 l 176 300 q 169 256 171 277 q 168 217 168 235 q 201 113 168 149 q 310 77 235 77 q 388 84 353 77 q 448 98 422 90 q 490 112 474 105 q 512 118 506 118 q 522 113 519 118 q 524 101 524 108 q 523 80 524 92 q 515 54 521 68 q 498 26 509 41 q 469 -3 488 12 l 391 -70 q 354 -106 366 -91 q 342 -139 342 -122 q 352 -157 342 -149 q 382 -164 361 -164 l 460 -164 q 471 -168 469 -164 q 474 -178 474 -171 q 473 -189 474 -182 q 470 -203 472 -196 q 466 -217 469 -211 q 460 -227 464 -224 q 445 -234 456 -231 q 420 -241 435 -238 q 389 -246 406 -244 q 357 -248 372 -248 q 261 -226 293 -248 q 229 -163 229 -204 q 233 -136 229 -149 q 245 -107 236 -122 q 268 -76 254 -92 q 305 -41 283 -59 l 345 -8 z "},"f":{"ha":424,"x_min":-132,"x_max":554,"o":"m 554 905 q 553 897 554 903 q 552 884 553 891 q 549 869 551 877 q 544 854 547 861 q 538 844 541 848 q 530 840 534 840 q 518 842 526 840 q 502 848 511 845 q 479 854 492 851 q 451 857 467 857 q 401 848 422 857 q 366 820 380 839 q 340 773 351 802 q 323 706 330 745 l 311 645 l 448 645 q 459 640 455 645 q 464 623 464 635 q 463 608 464 616 q 459 592 461 600 q 454 577 457 584 q 447 564 451 570 q 439 555 444 559 q 429 552 434 552 l 292 552 l 176 -26 q 145 -124 165 -83 q 97 -194 125 -166 q 31 -234 68 -221 q -53 -248 -6 -248 q -103 -243 -83 -248 q -127 -234 -122 -238 q -131 -227 -130 -231 q -132 -216 -132 -222 q -131 -207 -132 -213 q -129 -193 -130 -200 q -125 -178 -127 -186 q -121 -163 -123 -170 q -115 -153 -118 -157 q -106 -149 -111 -149 q -97 -150 -102 -149 q -88 -152 -93 -151 q -76 -154 -83 -153 q -58 -155 -68 -155 q -8 -146 -29 -155 q 27 -118 12 -137 q 51 -71 41 -100 q 69 -3 61 -43 l 180 552 l 94 552 q 83 556 87 552 q 79 573 79 561 q 80 586 79 578 q 82 602 81 594 q 87 618 84 610 q 94 631 90 625 q 102 641 98 637 q 113 645 106 645 l 199 645 l 216 730 q 247 827 227 785 q 296 896 267 869 q 362 936 325 923 q 446 949 400 949 q 477 948 460 949 q 507 943 493 946 q 531 936 521 940 q 546 928 542 932 q 552 918 550 924 q 554 905 554 912 z "},"ﬀ":{"ha":810,"x_min":-153,"x_max":941,"o":"m 941 906 q 940 898 941 903 q 938 885 940 892 q 935 869 937 878 q 930 855 933 861 q 924 845 928 849 q 917 840 921 840 q 905 843 912 840 q 889 849 899 846 q 866 854 879 852 q 838 857 854 857 q 787 848 808 857 q 752 821 766 840 q 728 774 738 802 q 709 707 718 745 l 698 645 l 835 645 q 846 640 842 645 q 850 623 850 635 q 849 608 850 616 q 846 592 848 600 q 841 577 844 584 q 834 564 838 570 q 826 555 830 559 q 816 552 821 552 l 679 552 l 568 -2 q 535 -109 555 -64 q 487 -183 515 -154 q 419 -226 458 -212 q 333 -239 381 -239 q 274 -234 298 -239 q 241 -220 249 -229 q 235 -202 235 -215 q 235 -192 235 -199 q 237 -178 236 -186 q 241 -163 239 -171 q 246 -149 243 -155 q 253 -138 249 -142 q 261 -134 256 -134 q 272 -136 266 -134 q 287 -140 279 -138 q 307 -144 296 -142 q 331 -146 317 -146 q 379 -138 359 -146 q 414 -111 399 -129 q 439 -66 429 -94 q 456 0 449 -38 l 567 552 l 292 552 l 180 -10 q 147 -118 168 -73 q 98 -192 127 -163 q 31 -234 69 -220 q -55 -248 -7 -248 q -113 -242 -88 -248 q -146 -228 -138 -237 q -151 -220 -149 -225 q -153 -209 -153 -216 q -152 -200 -153 -206 q -150 -186 -151 -194 q -146 -171 -149 -179 q -141 -157 -144 -163 q -135 -146 -138 -151 q -127 -142 -132 -142 q -100 -149 -117 -142 q -58 -155 -83 -155 q -9 -146 -29 -155 q 26 -119 12 -137 q 51 -74 41 -102 q 68 -9 61 -47 l 180 552 l 94 552 q 83 556 87 552 q 79 573 79 561 q 80 586 79 578 q 82 602 81 594 q 87 618 84 610 q 94 631 90 625 q 102 641 98 637 q 113 645 106 645 l 199 645 l 214 721 q 246 819 226 777 q 295 887 266 860 q 361 928 323 915 q 445 942 399 942 q 476 940 460 942 q 506 936 492 939 q 530 928 519 932 q 545 920 541 924 q 551 911 549 917 q 553 898 553 905 q 552 889 553 895 q 550 877 551 884 q 547 861 549 869 q 543 847 545 853 q 536 836 540 840 q 529 832 533 832 q 517 835 524 832 q 500 841 510 838 q 478 846 491 844 q 450 849 465 849 q 400 840 420 849 q 365 813 379 831 q 339 766 350 794 q 321 699 329 737 l 311 645 l 586 645 l 602 728 q 634 826 614 785 q 682 896 654 868 q 748 937 711 923 q 833 950 786 950 q 864 948 848 950 q 893 944 880 947 q 918 937 907 941 q 933 928 929 932 q 939 919 937 925 q 941 906 941 913 z "},"ﬁ":{"ha":735,"x_min":-132,"x_max":751,"o":"m 663 645 q 687 635 682 645 q 690 610 693 626 l 572 17 q 568 8 571 12 q 557 1 564 4 q 539 -3 550 -1 q 511 -4 528 -4 q 485 -3 495 -4 q 469 1 474 -1 q 461 8 463 4 q 460 17 459 12 l 567 552 l 292 552 l 176 -26 q 145 -124 165 -83 q 97 -194 125 -166 q 31 -234 68 -221 q -53 -248 -6 -248 q -103 -243 -83 -248 q -127 -234 -122 -238 q -131 -227 -130 -231 q -132 -216 -132 -222 q -131 -207 -132 -213 q -129 -193 -130 -200 q -125 -178 -127 -186 q -121 -163 -123 -170 q -115 -153 -118 -157 q -106 -149 -111 -149 q -97 -150 -102 -149 q -88 -152 -93 -151 q -76 -154 -83 -153 q -58 -155 -68 -155 q -8 -146 -29 -155 q 27 -118 12 -137 q 51 -71 41 -100 q 69 -3 61 -43 l 180 552 l 94 552 q 83 556 87 552 q 79 573 79 561 q 80 586 79 578 q 82 602 81 594 q 87 618 84 610 q 94 631 90 625 q 102 641 98 637 q 113 645 106 645 l 199 645 l 216 728 q 247 826 227 785 q 296 896 267 868 q 361 937 324 923 q 445 950 399 950 q 475 948 460 950 q 503 944 490 947 q 524 937 515 941 q 536 930 532 934 q 541 921 539 926 q 542 909 542 916 q 541 901 542 907 q 539 888 541 895 q 536 873 538 881 q 532 858 534 865 q 525 848 529 852 q 517 844 522 844 q 507 846 513 844 q 492 850 500 848 q 472 855 484 852 q 446 857 461 857 q 398 848 418 857 q 365 821 378 840 q 340 774 351 802 q 323 707 330 745 l 311 645 l 663 645 m 747 833 q 739 801 744 814 q 724 780 733 788 q 700 769 714 772 q 666 766 686 766 q 633 769 646 766 q 615 780 621 772 q 608 801 609 788 q 611 833 608 814 q 621 864 615 852 q 635 885 626 877 q 659 897 645 894 q 693 900 673 900 q 726 897 713 900 q 744 885 738 894 q 751 864 750 877 q 747 833 751 852 z "},"ﬃ":{"ha":1122,"x_min":-132,"x_max":1139,"o":"m 292 552 l 176 -26 q 145 -124 165 -83 q 97 -194 125 -166 q 31 -234 68 -221 q -53 -248 -6 -248 q -103 -243 -83 -248 q -127 -234 -122 -238 q -131 -227 -130 -231 q -132 -216 -132 -222 q -131 -207 -132 -213 q -129 -193 -130 -200 q -125 -178 -127 -186 q -121 -163 -123 -170 q -115 -153 -118 -157 q -106 -149 -111 -149 q -97 -150 -102 -149 q -88 -152 -93 -151 q -76 -154 -83 -153 q -58 -155 -68 -155 q -8 -146 -29 -155 q 27 -118 12 -137 q 51 -71 41 -100 q 69 -3 61 -43 l 180 552 l 94 552 q 83 556 87 552 q 79 573 79 561 q 80 586 79 578 q 82 602 81 594 q 87 618 84 610 q 94 631 90 625 q 102 641 98 637 q 113 645 106 645 l 199 645 l 214 721 q 246 819 226 777 q 295 887 266 860 q 361 928 323 915 q 445 942 399 942 q 476 940 460 942 q 506 936 492 939 q 530 928 519 932 q 545 920 541 924 q 551 911 549 917 q 553 898 553 905 q 552 889 553 895 q 550 877 551 884 q 547 861 549 869 q 543 847 545 853 q 536 836 540 840 q 529 832 533 832 q 517 835 524 832 q 500 841 510 838 q 478 846 491 844 q 450 849 465 849 q 400 840 420 849 q 365 813 379 831 q 339 766 350 794 q 321 699 329 737 l 311 645 l 586 645 l 602 728 q 634 826 614 785 q 682 896 654 868 q 748 937 711 923 q 832 950 785 950 q 863 948 848 950 q 890 944 878 947 q 911 937 902 941 q 924 930 920 934 q 928 921 927 926 q 928 909 928 916 q 928 901 928 907 q 926 888 928 895 q 923 873 925 881 q 919 859 922 865 q 913 848 916 852 q 905 844 909 844 q 893 846 900 844 q 879 850 887 848 q 859 855 870 852 q 833 857 848 857 q 785 848 805 857 q 751 821 766 840 q 727 774 737 802 q 709 707 718 745 l 698 645 l 1050 645 q 1074 636 1068 645 q 1078 610 1080 627 l 960 17 q 955 8 958 12 q 944 1 951 4 q 926 -3 937 -1 q 899 -4 915 -4 q 871 -3 882 -4 q 855 1 861 -1 q 847 8 849 4 q 847 17 846 12 l 954 552 l 679 552 l 568 -2 q 535 -109 555 -64 q 487 -183 515 -154 q 419 -226 458 -212 q 333 -239 381 -239 q 274 -234 298 -239 q 241 -220 249 -229 q 235 -202 235 -215 q 235 -192 235 -199 q 237 -178 236 -186 q 241 -163 239 -171 q 246 -149 243 -155 q 253 -138 249 -142 q 261 -134 256 -134 q 272 -136 266 -134 q 287 -140 279 -138 q 307 -144 296 -142 q 331 -146 317 -146 q 379 -138 359 -146 q 414 -111 399 -129 q 439 -66 429 -94 q 456 0 449 -38 l 567 552 l 292 552 m 1135 833 q 1125 801 1131 814 q 1110 780 1120 788 q 1087 769 1101 772 q 1053 766 1073 766 q 1020 769 1032 766 q 1001 780 1007 772 q 995 801 995 788 q 998 833 994 814 q 1007 864 1002 852 q 1022 885 1013 877 q 1046 897 1031 894 q 1080 900 1060 900 q 1113 897 1100 900 q 1131 885 1125 894 q 1138 864 1137 877 q 1135 833 1139 852 z "},"ﬂ":{"ha":735,"x_min":-132,"x_max":754,"o":"m 572 18 q 556 1 570 6 q 513 -4 542 -4 q 486 -2 496 -4 q 469 2 475 -1 q 461 8 463 4 q 460 18 459 12 l 625 845 q 621 842 624 843 q 614 840 618 840 q 600 843 609 840 q 575 848 590 845 q 541 854 561 852 q 493 857 520 857 q 420 848 449 857 q 372 820 391 839 q 341 773 353 802 q 323 706 330 745 l 311 645 l 436 645 q 448 640 444 645 q 452 623 452 635 q 451 608 452 616 q 448 592 450 600 q 443 577 446 584 q 436 564 439 570 q 427 555 432 559 q 417 552 422 552 l 292 552 l 176 -26 q 145 -124 165 -83 q 97 -194 125 -166 q 31 -234 68 -221 q -53 -248 -6 -248 q -103 -243 -83 -248 q -127 -234 -122 -238 q -131 -227 -130 -231 q -132 -216 -132 -222 q -131 -207 -132 -213 q -129 -193 -130 -200 q -125 -178 -127 -186 q -121 -163 -123 -170 q -115 -153 -118 -157 q -106 -149 -111 -149 q -97 -150 -102 -149 q -88 -152 -93 -151 q -76 -154 -83 -153 q -58 -155 -68 -155 q -8 -146 -29 -155 q 27 -118 12 -137 q 51 -71 41 -100 q 69 -3 61 -43 l 180 552 l 94 552 q 83 556 87 552 q 79 573 79 561 q 80 586 79 578 q 82 602 81 594 q 87 618 84 610 q 94 631 90 625 q 102 641 98 637 q 113 645 106 645 l 199 645 l 216 730 q 248 827 227 785 q 303 896 269 869 q 385 936 337 923 q 500 949 433 949 q 536 948 515 949 q 578 943 557 946 q 614 936 598 940 q 635 928 631 932 q 638 924 637 926 q 640 920 639 923 q 644 930 641 926 q 654 938 648 935 q 672 943 661 941 q 702 945 684 945 q 728 943 718 945 q 744 939 739 942 q 752 932 750 937 q 753 923 754 928 l 572 18 z "},"ﬄ":{"ha":1122,"x_min":-132,"x_max":1141,"o":"m 960 17 q 943 1 957 5 q 900 -4 928 -4 q 872 -3 883 -4 q 856 1 861 -1 q 848 8 850 4 q 847 17 846 12 l 1012 846 q 1008 842 1010 844 q 1001 841 1005 841 q 986 843 996 841 q 962 849 977 846 q 927 854 947 852 q 880 857 907 857 q 806 848 836 857 q 758 821 777 840 q 728 774 739 802 q 709 707 718 745 l 698 645 l 823 645 q 835 640 831 645 q 839 623 839 635 q 838 608 839 616 q 835 592 837 600 q 830 577 833 584 q 823 564 827 570 q 814 555 819 559 q 804 552 809 552 l 679 552 l 568 -2 q 536 -109 555 -64 q 487 -183 516 -154 q 419 -226 458 -212 q 333 -239 381 -239 q 274 -234 299 -239 q 241 -220 250 -229 q 235 -202 235 -215 q 235 -192 235 -199 q 237 -178 236 -186 q 241 -163 239 -171 q 246 -149 243 -155 q 253 -138 249 -142 q 261 -134 256 -134 q 272 -136 266 -134 q 287 -140 279 -138 q 307 -144 296 -142 q 331 -146 317 -146 q 379 -138 359 -146 q 414 -111 399 -129 q 439 -66 429 -94 q 457 0 449 -38 l 567 552 l 292 552 l 176 -26 q 145 -124 165 -83 q 97 -194 125 -166 q 31 -234 68 -221 q -53 -248 -6 -248 q -103 -243 -83 -248 q -127 -234 -122 -238 q -131 -227 -130 -231 q -132 -216 -132 -222 q -131 -207 -132 -213 q -129 -193 -130 -200 q -125 -178 -127 -186 q -121 -163 -123 -170 q -115 -153 -118 -157 q -106 -149 -111 -149 q -97 -150 -102 -149 q -88 -152 -93 -151 q -76 -154 -83 -153 q -58 -155 -68 -155 q -8 -146 -29 -155 q 27 -119 12 -137 q 51 -72 41 -100 q 69 -3 61 -43 l 180 552 l 94 552 q 83 556 87 552 q 79 573 79 561 q 80 586 79 578 q 82 602 81 594 q 87 618 84 610 q 94 631 90 625 q 102 641 98 637 q 113 645 106 645 l 199 645 l 214 721 q 246 819 226 777 q 295 887 266 860 q 361 928 323 915 q 445 942 399 942 q 476 940 460 942 q 506 936 492 939 q 530 928 519 932 q 545 920 541 924 q 551 911 549 917 q 553 898 553 905 q 552 889 553 895 q 550 877 551 884 q 547 861 549 869 q 543 847 545 853 q 536 836 540 840 q 529 832 533 832 q 517 835 524 832 q 500 841 510 838 q 478 846 491 844 q 450 849 465 849 q 400 840 420 849 q 365 813 379 831 q 339 766 350 794 q 321 699 329 737 l 311 645 l 586 645 l 602 730 q 634 827 614 785 q 689 896 655 869 q 772 937 723 923 q 887 950 821 950 q 923 948 902 950 q 965 944 945 947 q 1001 937 985 941 q 1021 929 1017 933 q 1025 925 1023 926 q 1027 920 1026 923 q 1031 930 1028 926 q 1042 938 1035 935 q 1060 943 1048 941 q 1088 945 1071 945 q 1115 943 1105 945 q 1132 939 1126 942 q 1139 932 1137 937 q 1139 923 1141 928 l 960 17 z "},"g":{"ha":714,"x_min":45,"x_max":673,"o":"m 541 -31 q 506 -126 530 -85 q 444 -194 481 -167 q 356 -234 407 -220 q 239 -248 304 -248 q 137 -236 183 -248 q 62 -210 90 -225 q 48 -196 52 -203 q 45 -180 45 -190 q 45 -168 45 -176 q 47 -153 45 -161 q 51 -138 49 -146 q 57 -123 54 -130 q 66 -113 61 -117 q 78 -109 72 -109 q 98 -116 86 -109 q 131 -132 111 -123 q 181 -149 151 -141 q 256 -156 212 -156 q 322 -149 292 -156 q 373 -126 351 -141 q 409 -88 395 -111 q 430 -33 423 -65 q 453 69 441 28 q 472 132 465 110 q 437 82 461 107 q 382 35 414 56 q 314 0 351 14 q 238 -13 277 -13 q 152 4 187 -13 q 95 51 117 21 q 64 120 74 80 q 55 208 55 161 q 62 296 55 247 q 86 395 70 345 q 128 492 102 445 q 189 576 153 539 q 272 635 225 613 q 379 658 319 658 q 483 633 439 658 q 559 566 526 609 l 572 628 q 588 644 575 639 q 628 648 601 648 q 651 647 642 648 q 665 644 660 646 q 672 637 671 641 q 673 628 673 633 l 541 -31 m 530 468 q 461 538 498 515 q 378 562 424 562 q 312 545 341 562 q 260 499 283 528 q 220 435 237 471 q 193 360 203 398 q 177 284 182 321 q 172 216 172 246 q 177 162 172 186 q 194 120 182 138 q 223 93 205 103 q 267 83 241 83 q 341 103 304 83 q 412 161 379 124 q 469 247 444 197 q 507 356 494 297 l 530 468 z "}}}
